<svg width="68" height="68" viewBox="0 0 68 68" fill="none" xmlns="http://www.w3.org/2000/svg">
<path fill-rule="evenodd" clip-rule="evenodd" d="M66.9032 0H28.7903C28.1838 0 27.6935 0.491355 27.6935 1.09677V9.42677C25.6601 8.67768 23.4688 8.26968 21.2116 8.26968H15.2452C12.4078 8.26968 9.64723 8.84219 7.04897 9.96968C5.7109 10.5411 4.42548 11.2715 3.23329 12.1369C2.18039 12.8893 1.19439 13.747 0.300516 14.6869C0.108581 14.8909 0 15.1618 0 15.4426V66.9032C0 67.5087 0.490258 68 1.09677 68H66.9032C67.5097 68 68 67.5087 68 66.9032V19.72V9.36645V1.09677C68 0.491355 67.5097 0 66.9032 0ZM29.8871 2.19355H65.8064V8.26968H63.1084C56.0485 8.26968 49.6192 12.2192 46.7171 18.3578L46.2192 19.5072C46.2159 19.516 46.2148 19.5259 46.2115 19.5346L46.2082 19.5335C44.1243 24.7465 45.5095 31.7725 46.0119 33.9046L44.2505 35.6572C43.3478 36.5533 42.9387 37.8365 43.157 39.0879C43.3752 40.3415 44.1945 41.4098 45.3428 41.945L46.2455 42.3728L47.2984 48.3151C47.8523 51.4914 50.5942 53.7968 53.8187 53.7968H60.4652C61.2998 53.7968 61.9787 54.4757 61.9787 55.3103V59.6645H56.1C54.1653 59.6645 52.3479 60.418 50.9781 61.7879C49.8758 62.9 49.1826 64.2995 48.9523 65.8064H35.3677C35.1374 64.2995 34.4431 62.9 33.3397 61.7846C32.3746 60.8194 31.1835 60.169 29.8882 59.8641V53.7968H30.5024C33.7269 53.7968 36.4688 51.4914 37.0216 48.3173L38.0756 42.3717L38.9728 41.9472C40.1266 41.4098 40.9459 40.3405 41.1641 39.0879C41.3824 37.8354 40.9733 36.5533 40.0717 35.6583L38.3092 33.9046C38.8115 31.7725 40.199 24.7465 38.1129 19.5325L38.1096 19.5335C38.1063 19.5248 38.1052 19.516 38.1019 19.5072L37.5919 18.3304C35.9687 14.8986 33.2279 12.149 29.8882 10.3974V2.19355H29.8871ZM22.3413 57.1716V55.3103C22.3413 54.4757 23.0202 53.7968 23.8548 53.7968H27.6935V59.6645H25.8345C24.8507 58.6193 23.6739 57.7616 22.3413 57.1716ZM36.3098 21.0361C38.046 26.407 36.0565 33.8739 36.0345 33.9517C35.9303 34.3323 36.04 34.7403 36.3197 35.0189L38.5253 37.2135C38.9245 37.6106 39.0989 38.1557 39.0035 38.7106C38.9059 39.2656 38.5571 39.7208 38.0394 39.9621L36.6246 40.6311C36.3032 40.7835 36.0762 41.0808 36.0137 41.4306L34.8599 47.9367C34.4903 50.0612 32.6565 51.6021 30.5002 51.6021H23.8537C21.8105 51.6021 20.1466 53.2659 20.1466 55.3092V56.3742C15.969 54.6928 13.2984 50.4209 13.7031 45.866C13.985 42.6985 15.7519 39.7844 18.4324 38.0723L18.9665 37.7301C21.8653 35.8766 23.8921 32.8747 24.5305 29.4923L25.0723 26.6121C25.6821 23.3821 28.5095 21.0372 31.7977 21.0372H36.3098V21.0361ZM2.19355 65.8064V15.8879C2.90974 15.1684 3.68736 14.5081 4.51542 13.917C5.58258 13.1426 6.72432 12.4934 7.91652 11.9845C10.2439 10.9754 12.7105 10.4632 15.2463 10.4632H21.2116C27.2713 10.4632 32.7946 13.7481 35.4006 18.8426H31.7999C27.4577 18.8426 23.7232 21.9388 22.9193 26.2052L22.3775 29.0854C21.851 31.8755 20.1774 34.3532 17.7853 35.8821L17.2512 36.2243C14.0036 38.3004 11.8616 41.8321 11.5194 45.6719C10.9941 51.5824 14.7395 57.1014 20.4263 58.7948C23.1452 59.6042 25.2916 61.699 26.169 64.396L26.6275 65.8064H2.19355ZM28.934 65.8064L28.2562 63.7193C28.0434 63.0656 27.7539 62.4492 27.4281 61.8581H28.22C29.5679 61.8581 30.8347 62.3834 31.7834 63.3321C32.4733 64.0286 32.9383 64.883 33.1445 65.8064H28.934ZM51.1744 65.8064C51.3806 64.8819 51.8456 64.0286 52.5322 63.3354C53.4842 62.3823 54.751 61.8581 56.1 61.8581H63.0744C63.6809 61.8581 64.1712 61.3667 64.1712 60.7613V55.3103C64.1712 53.2659 62.5074 51.6032 60.4641 51.6032H53.8176C51.6614 51.6032 49.8275 50.0623 49.4568 47.9356L48.3041 41.4317C48.2416 41.0819 48.0146 40.7835 47.6932 40.6322L46.2729 39.9599C45.7607 39.7208 45.4119 39.2667 45.3143 38.7106C45.2178 38.1568 45.3922 37.6106 45.7936 37.2125L47.9981 35.0189C48.2778 34.7403 48.3864 34.3334 48.2833 33.9517C48.2614 33.8739 46.2729 26.407 48.008 21.0361H52.5223C55.8116 21.0361 58.6379 23.381 59.2434 26.6154L59.7917 29.4966C60.4268 32.8791 62.4569 35.881 65.3502 37.7268C65.3513 37.7279 65.5772 37.8738 65.8043 38.023V65.8064H51.1744ZM65.8064 35.3699C63.807 33.8322 62.4174 31.5871 61.948 29.0897L61.4007 26.2085C60.6012 21.941 56.8688 18.8426 52.5234 18.8426H48.9205C51.544 13.7371 57.0586 10.4632 63.1084 10.4632H65.8064V19.72V35.3699ZM30.9729 27.9842C32.2594 27.9842 33.4055 28.4503 33.9649 29.2016C34.3257 29.6875 34.2248 30.3741 33.739 30.736C33.5426 30.8819 33.3123 30.9532 33.0853 30.9532C32.7497 30.9532 32.4206 30.8007 32.2046 30.5112C32.1311 30.4212 31.7055 30.1777 30.9729 30.1777C30.2381 30.1777 29.8114 30.4223 29.7401 30.5112C29.3639 30.9762 28.673 31.0727 28.2025 30.7053C27.7297 30.339 27.6255 29.6798 27.9809 29.2016C28.5392 28.4503 29.6853 27.9842 30.9729 27.9842ZM33.5262 43.3379C33.5218 43.9401 33.0315 44.4259 32.4294 44.4259C32.4261 44.4259 32.4239 44.4259 32.4206 44.4259C30.249 44.4095 28.6499 43.7481 27.6705 42.4605C27.3042 41.979 27.3974 41.2903 27.8789 40.9239C28.3604 40.5565 29.0481 40.6497 29.4155 41.1323C29.9628 41.8518 30.9795 42.2214 32.4371 42.2324C33.0436 42.2379 33.5306 42.7325 33.5262 43.3379ZM30.9729 35.7296C30.3664 35.7296 29.8761 35.2383 29.8761 34.6328V33.6567C29.8761 33.0513 30.3664 32.5599 30.9729 32.5599C31.5794 32.5599 32.0697 33.0513 32.0697 33.6567V34.6328C32.0697 35.2383 31.5794 35.7296 30.9729 35.7296ZM50.5766 30.7042C50.105 30.339 49.9997 29.6798 50.3551 29.2016C50.9145 28.4503 52.0606 27.9842 53.3482 27.9842C54.6358 27.9842 55.7819 28.4503 56.3413 29.2016C56.7021 29.6875 56.6012 30.3741 56.1154 30.736C55.919 30.8819 55.6887 30.9532 55.4617 30.9532C55.1261 30.9532 54.7959 30.8007 54.5799 30.5112C54.5097 30.4234 54.0819 30.1788 53.3482 30.1788C52.6145 30.1788 52.1867 30.4234 52.1154 30.5123C51.7392 30.9751 51.0483 31.0705 50.5766 30.7042ZM56.44 40.9228C56.9215 41.2892 57.0147 41.9768 56.6484 42.4594C55.669 43.7481 54.071 44.4095 51.8994 44.4259C51.8961 44.4259 51.8928 44.4259 51.8906 44.4259C51.2885 44.4259 50.7982 43.9401 50.7938 43.3379C50.7894 42.7325 51.2764 42.2379 51.8818 42.2324C53.3394 42.2214 54.3561 41.8507 54.9023 41.1323C55.2697 40.6508 55.9552 40.5576 56.44 40.9228ZM53.3482 32.5599C53.9547 32.5599 54.445 33.0513 54.445 33.6567V34.6328C54.445 35.2383 53.9547 35.7296 53.3482 35.7296C52.7417 35.7296 52.2514 35.2383 52.2514 34.6328V33.6567C52.2514 33.0513 52.7417 32.5599 53.3482 32.5599ZM34.9257 10.1419C34.4968 9.71303 34.4968 9.01987 34.9257 8.59103L38.8159 4.70077C39.2448 4.27194 39.9379 4.27194 40.3668 4.70077C40.7956 5.12961 40.7956 5.82277 40.3668 6.25161L36.4765 10.1419C36.2626 10.3557 35.9819 10.4632 35.7011 10.4632C35.4203 10.4632 35.1395 10.3557 34.9257 10.1419ZM38.0416 11.707L45.0478 4.70077C45.4766 4.27194 46.1698 4.27194 46.5986 4.70077C47.0275 5.12961 47.0275 5.82277 46.5986 6.25161L39.5924 13.2578C39.3786 13.4717 39.0978 13.5792 38.817 13.5792C38.5363 13.5792 38.2555 13.4717 38.0416 13.2578C37.6128 12.829 37.6128 12.1347 38.0416 11.707Z" fill="url(#paint0_linear_35_1225)"/>
<defs>
<linearGradient id="paint0_linear_35_1225" x1="0" y1="0" x2="0" y2="68" gradientUnits="userSpaceOnUse">
<stop stop-color="#64C1BE"/>
<stop offset="1" stop-color="#28ACB9"/>
</linearGradient>
</defs>
</svg>
