<svg width="62" height="57" viewBox="0 0 62 57" fill="none" xmlns="http://www.w3.org/2000/svg">
<path fill-rule="evenodd" clip-rule="evenodd" d="M59.288 26.1871V17.1558C59.288 14.4771 57.3853 12.2425 54.8622 11.7342V9.41031C54.8622 6.97649 52.8704 4.9846 50.4365 4.9846H48.4218C48.4218 4.9846 48.289 5.00742 48.2226 5.02817L45.3676 0.513224C45.212 0.270463 44.9692 0.0920214 44.6808 0.0256251C44.3923 -0.0407712 44.106 0.0256251 43.8405 0.181242L36.2484 4.98462L4.42571 4.98254C1.99189 4.98254 0 6.97443 0 9.40825V51.1485C0 53.0076 0.973104 54.8003 2.52306 55.7734C3.38621 56.3709 4.42571 56.6801 5.53373 56.6801H53.7563C56.8106 56.6801 59.2901 54.2006 59.2901 51.1463V41.2777C60.5745 40.8129 61.504 39.5949 61.504 38.1571V29.3035C61.504 27.8656 60.5745 26.6477 59.2901 26.1829L59.288 26.1871ZM52.6483 9.41031V11.6242H52.3827L49.5941 7.19852H50.4344C51.6524 7.19639 52.6483 8.19234 52.6483 9.41031ZM29.8951 11.6242H49.7704L44.0811 2.63789L29.8951 11.6242ZM32.7523 7.17361L25.7578 11.5993H4.42571C3.93811 11.5993 3.49616 11.4437 3.07495 11.1117C2.54378 10.7362 2.21179 10.0929 2.21179 9.38542C2.21179 8.16744 3.20774 7.1715 4.42571 7.1715L32.7523 7.17361ZM53.7542 54.4475C55.5905 54.4475 57.074 52.964 57.074 51.1277L57.099 51.1049V41.4355H47.6786C43.4085 41.4355 39.9331 37.9621 39.9331 33.6899C39.9331 33.4243 39.9538 33.1588 39.9767 32.8932C39.9767 32.8268 39.9974 32.7396 40.0202 32.6504C40.2194 31.0112 40.9933 29.4405 42.1885 28.2454C43.6492 26.7619 45.5975 25.9651 47.6558 25.9651H57.0762V17.1331C57.0762 15.2968 55.5926 13.8132 53.7563 13.8132H4.42784C3.63108 13.8132 2.87788 13.614 2.21392 13.2157V51.1277C2.21392 52.2565 2.81149 53.3188 3.74103 53.9164C4.2722 54.2712 4.86977 54.4475 5.53373 54.4475H53.7542ZM58.1821 39.2444H47.6537C44.5995 39.2444 42.12 36.7649 42.12 33.7106V33.2458C42.12 33.185 42.1391 33.1241 42.1583 33.0633L42.1635 33.0467C42.2963 31.8287 42.8503 30.6792 43.7342 29.7932C44.7737 28.7537 46.168 28.1769 47.6516 28.1769H58.18C58.8004 28.1769 59.2859 28.6645 59.2859 29.2828V38.1363C59.288 38.7589 58.8004 39.2444 58.1821 39.2444ZM44.3339 33.7127C44.3339 35.549 45.8174 37.0325 47.6537 37.0325C49.4899 37.0325 50.9735 35.549 50.9735 33.7127C50.9735 31.8764 49.4899 30.3929 47.6537 30.3929C45.8174 30.3929 44.3339 31.8764 44.3339 33.7127ZM47.6537 34.8186C47.0333 34.8186 46.5478 34.331 46.5478 33.7127C46.5478 33.0923 47.0354 32.6068 47.6537 32.6068C48.2741 32.6068 48.7596 33.0944 48.7596 33.7127C48.7596 34.3331 48.272 34.8186 47.6537 34.8186Z" fill="url(#paint0_linear_35_1242)"/>
<defs>
<linearGradient id="paint0_linear_35_1242" x1="0" y1="0" x2="0" y2="56.6801" gradientUnits="userSpaceOnUse">
<stop stop-color="#64C1BE"/>
<stop offset="1" stop-color="#28ACB9"/>
</linearGradient>
</defs>
</svg>
