<svg width="136" height="172" viewBox="0 0 136 172" fill="none" xmlns="http://www.w3.org/2000/svg">
<path fill-rule="evenodd" clip-rule="evenodd" d="M90.5009 15.0392C91.3207 18.7188 90.6931 22.5503 88.8628 25.3028C88.4137 25.1573 87.9638 25.0263 87.5139 24.9102C84.059 24.0241 80.6342 24.0282 77.5607 24.9145C75.9002 23.5464 74.0463 22.3738 72.0134 21.4091C67.2784 19.1624 61.7002 18.1342 55.8804 18.4375C50.5249 18.7142 45.0453 20.1245 39.9412 22.524C39.2027 20.935 38.443 18.1406 39.2128 14.0573C40.0611 9.54334 44.7293 5.6155 50.3074 4.72094C53.5261 4.20372 56.637 4.70693 59.4859 6.13974C59.6335 6.25726 59.8007 6.34396 59.9775 6.3976C63.2711 8.1975 66.1946 11.26 68.502 15.4402C68.8978 16.1549 69.7975 16.4171 70.5173 16.0212C71.2319 15.6253 71.4941 14.7256 71.0982 14.0059C68.9866 10.1813 66.4306 7.19391 63.4735 5.08958C64.5826 4.60852 66.0507 4.06555 67.7719 3.65158C72.9542 2.40742 77.8743 2.8547 82.3985 4.99342C86.6245 6.98818 89.4984 10.5561 90.5009 15.0392ZM80.1519 27.3794C82.8673 26.962 85.7866 27.3132 88.6955 28.377C88.8152 28.4415 88.9412 28.4884 89.0701 28.518C91.5014 29.4586 93.9189 30.8958 96.1973 32.7968C105.7 40.7239 110.079 54.0452 107.97 68.5014L105.652 70.6305C104.624 71.5714 104.557 73.1754 105.498 74.2036L107.931 76.8533L106.206 78.4371C105.672 77.8032 105.094 77.1627 104.475 76.5223C102.816 74.8119 102.86 72.1572 102.917 68.7993L102.917 68.79L102.917 68.7854C102.994 64.1591 103.09 58.398 98.2384 53.1403C97.6831 52.5388 96.7423 52.5028 96.1408 53.0581C95.5393 53.6133 95.5033 54.5541 96.0585 55.1557C100.105 59.5411 100.027 64.2195 99.9504 68.7437L99.9501 68.7585C99.8885 72.4804 99.8303 75.9962 102.341 78.589C102.945 79.2129 103.507 79.8347 104.017 80.4467L99.6496 84.4569C99.5605 84.452 99.4713 84.4482 99.3822 84.4454C93.8739 81.565 93.4219 77.5324 92.8556 72.4454L92.85 72.3952V72.3951C92.5278 69.5317 92.1949 66.5723 90.8711 63.6128C89.512 60.5744 87.3017 58.045 84.135 55.9124C84.9756 54.1341 85.4266 52.1636 85.4266 50.143C85.4266 49.3204 84.7634 48.6572 83.9408 48.6572C83.1182 48.6572 82.455 49.3204 82.455 50.143C82.455 52.0406 81.9495 53.8764 81.0208 55.4592C80.9701 55.5195 80.9236 55.5846 80.8818 55.6543C80.8469 55.7127 80.8165 55.7724 80.7905 55.8331C80.3199 56.5616 79.7562 57.2302 79.1081 57.8188C76.5479 60.1528 72.7691 61.1502 68.1832 60.7184C64.2656 60.3482 60.1116 60.0346 56.1272 60.5847C53.8548 60.8983 51.8806 61.4536 50.0915 62.2864C48.0504 63.2324 46.2819 64.5485 44.8321 66.1937C42.7479 68.5624 41.5535 70.886 40.6609 73.0575C40.623 73.132 40.5913 73.2098 40.5662 73.29C40.2564 74.058 39.982 74.8063 39.7166 75.53L39.7113 75.5446C38.0604 80.0336 36.9637 83.0155 29.8504 84.4451L29.8458 84.4455C26.8472 84.4792 24.0407 85.6481 21.9231 87.7454C21.4774 88.1879 21.0731 88.661 20.7121 89.1601C20.8314 86.5468 21.5975 83.5648 23.9384 81.2059C25.2423 79.8867 26.4605 79.0923 27.6328 78.3278L27.6658 78.3063L27.6788 78.2977C29.1752 77.3189 30.5895 76.3938 31.825 74.6458C33.1308 72.7949 34.0511 70.2295 34.7091 66.5793C35.0382 64.7747 36.4726 58.5025 41.2744 53.5259C45.994 48.6315 52.3844 46.5751 60.2658 47.4182C61.0833 47.5005 61.8133 46.9144 61.9007 46.0969C61.983 45.2795 61.3969 44.5494 60.5794 44.4621C55.8958 43.9582 51.603 44.4055 47.8139 45.7885C44.5236 46.9915 41.6034 48.8989 39.1305 51.4592C37.0844 53.5773 35.3724 56.1119 34.0408 58.991C32.7041 61.8854 32.0717 64.4251 31.7787 66.0498C30.5452 72.8801 28.7517 74.0486 26.0387 75.8162L26.036 75.8179C25.0264 76.4758 23.9103 77.2036 22.7091 78.2721C15.8132 59.8225 19.3451 36.534 39.6982 25.9551C39.8693 25.9143 40.0367 25.8413 40.1948 25.7328C40.2385 25.7033 40.2802 25.6719 40.3197 25.6387C50.4617 20.5813 62.0663 19.9794 70.7332 24.0928C72.7438 25.0473 74.5442 26.2153 76.1219 27.5805C76.1967 27.6628 76.28 27.7357 76.37 27.7985C79.9235 30.9679 82.3087 35.1644 83.3753 40.1949C83.5501 40.9969 84.3367 41.511 85.1387 41.3414C85.9407 41.1666 86.4549 40.38 86.2852 39.578C85.3906 35.3674 83.6529 31.64 81.1081 28.4936C80.8 28.1125 80.4812 27.741 80.1519 27.3794ZM51.86 76.2498C48.9289 74.8718 45.9846 74.4534 43.0876 75.0065C42.8883 75.5234 42.7001 76.0372 42.5134 76.548L42.5113 76.5536C40.8773 81.0057 39.329 85.2241 31.508 87.1174C31.6758 91.3016 32.2428 95.557 33.201 99.8139C34.5705 99.1125 36.1213 98.7166 37.763 98.7166C43.3 98.7166 47.8037 103.22 47.8037 108.757C47.8037 113.484 44.522 117.457 40.1172 118.519C43.7738 125.32 48.172 130.691 52.7829 134.173C52.8596 134.22 52.9314 134.274 52.9977 134.334C56.7303 137.101 60.5965 138.628 64.317 138.674C64.3736 138.669 64.4302 138.663 64.4867 138.663C70.6244 138.663 77.426 134.382 83.3273 126.861C81.7228 125.703 80.6762 123.817 80.6762 121.692C80.6762 119.554 82.3522 115.945 82.8663 114.891C83.4473 113.698 84.0642 112.603 84.5989 111.806C85.257 110.829 86.0127 109.924 87.0512 109.924C88.0229 109.924 88.7272 110.675 89.4881 111.806C89.927 112.454 90.4135 113.299 90.8923 114.231C92.9452 109.733 94.5717 104.938 95.7005 100.072L91.3647 104.053C90.5215 104.835 89.4521 105.22 88.3828 105.22C87.19 105.22 85.9973 104.742 85.1284 103.791C84.3316 102.922 83.9203 101.796 83.9665 100.614C84.018 99.4364 84.5218 98.3465 85.3906 97.5496L97.2476 86.6624C94.5986 85.1131 92.7529 83.1257 91.6217 80.6044C91.061 79.3563 90.7055 78.0499 90.4533 76.7254C86.5702 74.5197 82.5223 74.1795 78.409 75.7048C75.2163 76.8924 73.1701 78.8101 73.1496 78.8307C72.8719 79.1031 72.5018 79.242 72.1316 79.242C71.7409 79.242 71.3501 79.0877 71.0571 78.7844C70.4916 78.1932 70.5121 77.2523 71.1034 76.6817L71.104 76.6811C71.2104 76.5803 73.5426 74.3705 77.2625 72.9646C79.4732 72.1266 81.7198 71.741 83.946 71.813C85.9832 71.8808 87.9957 72.3347 89.953 73.1667L89.9097 72.7795L89.9093 72.776C89.3274 67.5774 88.7762 62.6533 82.5727 58.4397C82.1307 59.0015 81.6415 59.5285 81.1081 60.014C78.8768 62.0397 74.7793 64.3223 67.9056 63.6694C59.6849 62.8931 51.9114 62.6463 47.0685 68.1525C45.9747 69.3974 45.1607 70.6279 44.5088 71.8431C47.4165 71.6568 50.3828 72.2517 53.2276 73.6124C56.0173 74.9442 57.7377 76.5531 57.8694 76.6762L57.8752 76.6817C58.4664 77.2472 58.487 78.188 57.9215 78.7793C57.6284 79.0877 57.2377 79.242 56.847 79.242C56.4768 79.242 56.1118 79.1031 55.8239 78.8307L55.8112 78.8193C55.6583 78.6808 54.1796 77.3408 51.86 76.2498ZM48.9142 134.844C49.4218 135.29 49.9327 135.717 50.4465 136.122L49.5054 146.175C49.1147 150.36 47.0016 154.267 43.7164 156.894C43.0789 157.408 42.971 158.339 43.4851 158.981C43.7781 159.351 44.21 159.542 44.647 159.542C44.9709 159.542 45.2999 159.439 45.5724 159.218C47.5158 157.665 49.1044 155.768 50.292 153.583C51.5002 151.367 52.2302 148.966 52.4667 146.452L53.2482 138.104C54.3026 138.765 55.3648 139.337 56.4305 139.815C59.1296 141.023 61.839 141.64 64.4918 141.64C64.5126 141.64 64.534 141.64 64.5551 141.639H64.5557H64.5559C64.5973 141.638 64.6379 141.637 64.6718 141.64C68.2726 141.597 71.9458 140.41 75.6023 138.109L76.3833 146.452C76.7072 149.897 77.9822 153.172 80.0695 155.927C82.1569 158.683 84.9639 160.796 88.1926 162.04L111.945 171.186C112.119 171.253 112.299 171.284 112.479 171.284C113.076 171.284 113.636 170.919 113.867 170.328C114.161 169.562 113.78 168.703 113.014 168.41L89.2619 159.264C83.6992 157.12 79.8999 152.108 79.3446 146.175L78.4037 136.123C81.1251 133.974 83.7371 131.255 86.198 128.006C86.4755 128.043 86.7586 128.062 87.0461 128.062C90.5626 128.062 93.4211 125.204 93.4211 121.687C93.4211 120.598 92.9816 119.124 92.4829 117.801C94.1606 114.441 95.6066 110.891 96.7897 107.246H99.0198C105.241 107.246 110.317 102.2 110.411 95.9665C111.057 93.0422 111.576 89.9071 110.629 86.3649L113.903 83.3581L116.346 86.018C116.798 86.5167 117.425 86.8046 118.099 86.8354H118.207C118.844 86.8354 119.446 86.5989 119.913 86.1722L129.101 77.7356C130.129 76.7948 130.196 75.1907 129.255 74.1625L127.541 72.2951L134.226 66.1577C135.306 65.1655 135.933 63.8185 135.995 62.3533C136.057 60.888 135.548 59.4896 134.555 58.41C133.563 57.3304 132.216 56.7031 130.751 56.6414C129.286 56.5797 127.887 57.0887 126.808 58.081L120.126 64.2153L118.412 62.3481C117.471 61.3199 115.867 61.2531 114.839 62.1939L111.311 65.4341C111.54 62.5703 111.529 59.7503 111.276 57.0116C110.932 53.2483 110.125 49.6135 108.886 46.2049C106.598 39.9121 102.871 34.4831 98.1047 30.509C96.0858 28.8244 93.911 27.4416 91.677 26.4083C92.5193 25.0009 93.1365 23.3999 93.488 21.6867C93.9712 19.3321 93.9404 16.8078 93.4006 14.3914C92.8402 11.8877 91.7297 9.50221 90.1873 7.5023C88.4856 5.2916 86.2903 3.54361 83.6684 2.30459C80.815 0.957612 77.7714 0.19158 74.6199 0.032204C72.111 -0.0963249 69.5353 0.160733 66.9647 0.787953C63.8617 1.54729 61.5207 2.66696 60.3819 3.27996C57.0636 1.72549 53.431 1.20757 49.8344 1.78534C46.5646 2.31488 43.4183 3.7544 40.9711 5.85199C38.4828 7.98043 36.8222 10.7001 36.2926 13.5072C35.7785 16.2525 35.7939 18.8231 36.344 21.1521C36.5994 22.2382 36.9422 23.1451 37.2911 23.8778C32.3289 26.6238 28.1523 30.1886 24.8638 34.4779C21.5632 38.7811 19.1983 43.7474 17.8307 49.2485C16.5403 54.4205 16.1701 59.9061 16.7203 65.5459C17.227 70.7299 18.4863 75.8262 20.472 80.7035C19.6016 81.9079 18.9309 83.257 18.4682 84.7327C17.9336 86.4344 17.6816 88.3007 17.7176 90.2852C17.7689 93.058 18.3634 95.2734 18.5835 96.0048C18.6396 98.9196 19.7902 101.675 21.8306 103.781C23.4885 105.491 25.5864 106.618 27.8679 107.048C27.7722 107.603 27.7223 108.175 27.7223 108.757C27.7223 109.821 27.8884 110.846 28.1961 111.809L25.8766 113.78C24.7199 114.762 23.0439 114.762 21.8923 113.78L19.6004 111.835C19.9134 110.865 20.0826 109.83 20.0826 108.757C20.0826 103.22 15.5789 98.7166 10.0419 98.7166C4.50487 98.7166 0.0012207 103.22 0.0012207 108.757C0.0012207 114.294 4.50487 118.798 10.0419 118.798C10.7794 118.798 11.4986 118.718 12.1912 118.566L14.7666 121.358C15.8257 122.505 16.4066 123.996 16.4066 125.559C16.4066 131.877 14.3707 138.242 10.5252 143.969C8.37616 147.172 7.18855 150.946 7.18855 154.591C7.18855 159.048 8.92626 163.243 12.0778 166.395C15.2293 169.546 19.4245 171.284 23.8819 171.284C28.3393 171.284 32.5344 169.546 35.686 166.395C38.8375 163.243 40.5752 159.048 40.5752 154.591C40.5752 150.946 39.3927 147.172 37.2386 143.969C33.393 138.247 31.3571 131.877 31.3571 125.559C31.3571 123.996 31.9381 122.505 32.9971 121.358L35.5769 118.558C36.0054 118.654 36.4441 118.722 36.8911 118.76C40.269 125.324 44.4136 130.872 48.9142 134.844ZM107.45 95.9025C107.444 95.8244 107.444 95.745 107.451 95.665C107.427 93.8784 106.852 92.1925 105.804 90.7949L99.4291 96.6483C98.9828 99.2019 98.3997 101.754 97.69 104.274H99.0198C103.627 104.274 107.386 100.53 107.45 95.9025ZM108.076 88.7086C108.085 88.7781 108.094 88.8474 108.102 88.9165C108.067 88.8712 108.032 88.8262 107.997 88.7814L108.076 88.7086ZM107.986 72.5173L110.327 70.3678C110.352 70.3468 110.375 70.3251 110.398 70.3026L116.52 64.6822L124.35 73.2114L126.767 75.8437L122.28 79.9623L115.168 72.2191C114.613 71.6176 113.677 71.5765 113.071 72.1317C112.469 72.687 112.428 73.6227 112.983 74.2293L120.093 81.9702L118.232 83.6788L107.986 72.5173ZM28.8174 104.2C24.7968 103.628 21.6505 100.147 21.5503 95.9907C21.5697 95.8544 21.5703 95.7141 21.5505 95.5736C21.6523 91.5358 24.6483 88.201 28.5497 87.5368C28.7554 92.2203 29.4446 96.983 30.5949 101.733C29.8849 102.457 29.2835 103.288 28.8174 104.2ZM101.106 87.1518L87.4008 99.7346C87.1181 99.9968 86.9484 100.352 86.933 100.737C86.9176 101.123 87.0512 101.493 87.3134 101.776C87.5756 102.058 87.9304 102.228 88.316 102.243C88.7015 102.259 89.0717 102.125 89.3545 101.863L111.893 81.1699L109.94 79.0414L101.254 87.0158C101.208 87.0645 101.158 87.1099 101.106 87.1518ZM89.4496 118.185C89.4693 118.244 89.4928 118.302 89.5198 118.358C90.1613 119.964 90.4547 121.147 90.4547 121.692C90.4547 123.569 88.9277 125.096 87.0512 125.096C85.1747 125.096 83.6478 123.569 83.6478 121.692C83.6478 120.973 84.1516 119.163 85.2724 116.742C85.9407 115.297 86.5782 114.186 87.0409 113.492C87.5037 114.186 88.1412 115.302 88.8198 116.747C89.0569 117.254 89.2665 117.735 89.4496 118.185ZM128.823 60.266L122.135 66.4042L123.833 68.2543L125.533 70.1061L132.216 63.9676C132.71 63.5152 132.998 62.8931 133.029 62.2247C133.059 61.5564 132.823 60.9137 132.37 60.4202C131.918 59.9266 131.296 59.6387 130.628 59.6079C129.959 59.577 129.317 59.8135 128.823 60.266ZM44.8321 108.757C44.8321 112.573 41.7912 115.693 38.0064 115.822C37.8732 115.805 37.7369 115.805 37.6012 115.825C33.7786 115.738 30.6939 112.6 30.6939 108.757C30.6939 106.628 31.6411 104.715 33.1363 103.417C33.1874 103.38 33.2357 103.339 33.281 103.295C34.5018 102.292 36.0635 101.688 37.763 101.688C41.6651 101.688 44.8372 104.86 44.8321 108.757ZM15.1525 117.398L16.9516 119.348C18.5197 121.045 19.3782 123.255 19.3782 125.564C19.3782 132.473 17.1675 139.414 12.9929 145.635C11.1678 148.354 10.1601 151.537 10.1601 154.601C10.1601 162.169 16.3141 168.323 23.8819 168.323C31.4497 168.323 37.6036 162.169 37.6036 154.601C37.6036 151.537 36.5959 148.354 34.7708 145.635C30.5911 139.414 28.3855 132.479 28.3855 125.564C28.3855 123.255 29.2492 121.045 30.8122 119.348L32.6244 117.381C31.4165 116.659 30.3722 115.69 29.5616 114.544L27.7994 116.042C26.7044 116.968 25.3163 117.482 23.8819 117.482C22.4475 117.482 21.0594 116.973 19.9695 116.042L18.2288 114.565C17.414 115.71 16.3651 116.678 15.1525 117.398ZM10.0419 101.688C6.1449 101.688 2.97281 104.86 2.97281 108.757C2.97281 112.654 6.1449 115.826 10.0419 115.826C13.9389 115.826 17.111 112.654 17.111 108.757C17.111 104.86 13.9389 101.688 10.0419 101.688ZM23.8819 164.976C18.1546 164.976 13.4967 160.318 13.4967 154.591C13.4967 153.768 14.16 153.105 14.9825 153.105C15.8051 153.105 16.4683 153.768 16.4683 154.591C16.4683 158.683 19.7947 162.009 23.887 162.009C27.9794 162.009 31.3057 158.683 31.3057 154.591C31.3057 153.768 31.9689 153.105 32.7915 153.105C33.6141 153.105 34.2773 153.768 34.2773 154.591C34.2721 160.318 29.6091 164.976 23.8819 164.976ZM98.0482 144.514C94.5368 144.514 91.6783 141.656 91.6783 138.144C91.6783 136.005 93.3543 132.396 93.8684 131.342C94.4493 130.15 95.0663 129.055 95.601 128.258C96.259 127.281 97.0148 126.376 98.0533 126.376C99.025 126.376 99.7293 127.127 100.49 128.258C101.03 129.055 101.642 130.15 102.223 131.337C102.737 132.396 104.423 136.005 104.423 138.139C104.418 141.65 101.56 144.514 98.0482 144.514ZM98.043 129.939C97.5803 130.633 96.9428 131.743 96.2745 133.188C95.1537 135.61 94.6499 137.419 94.6499 138.139C94.6499 140.016 96.1768 141.542 98.0533 141.542C99.9298 141.542 101.457 140.016 101.457 138.139C101.457 137.424 100.953 135.615 99.8219 133.193C99.1432 131.749 98.5057 130.633 98.043 129.939ZM64.389 125.332H64.2759C60.6668 125.302 57.0732 123.888 53.5977 121.122C52.9551 120.613 52.8523 119.677 53.3613 119.034C53.8702 118.392 54.8059 118.289 55.4486 118.798C61.4072 123.543 67.3349 123.538 73.5608 118.777C74.2138 118.279 75.1443 118.402 75.643 119.055C76.1417 119.708 76.0183 120.639 75.3654 121.137C71.7203 123.919 68.029 125.332 64.389 125.332ZM54.5026 90.8558C54.7905 91.2671 55.2481 91.483 55.7159 91.483C56.0141 91.483 56.3123 91.3956 56.5693 91.2106C57.2377 90.7324 57.3971 89.807 56.9241 89.1387C54.3636 85.5195 51.3243 84.0996 48.5913 83.7019C48.3576 83.6554 48.1174 83.6274 47.8722 83.6194C46.8752 83.5352 45.9305 83.5788 45.0789 83.689C41.5777 84.1466 38.9506 85.8123 38.8426 85.8843C38.1537 86.3265 37.9532 87.2467 38.3954 87.9356C38.8375 88.6246 39.7578 88.8251 40.4467 88.3829L40.4584 88.3759C40.5864 88.2987 41.739 87.6027 43.3991 87.0919C43.3308 87.4002 43.2949 87.7204 43.2949 88.0487C43.2949 90.4908 45.2845 92.4804 47.7265 92.4804C50.0666 92.4804 51.9912 90.6535 52.1479 88.3523C52.9996 89.0089 53.7852 89.8438 54.5026 90.8558ZM46.2665 88.0436C46.2665 87.2581 46.8929 86.6106 47.6771 86.5844C47.8223 86.5976 47.9663 86.6143 48.1092 86.6344C48.7304 86.8033 49.1866 87.3732 49.1866 88.0436C49.1866 88.8456 48.5286 89.5037 47.7265 89.5037C46.9245 89.5037 46.2665 88.8456 46.2665 88.0436ZM72.2756 91.2106C72.5378 91.3956 72.8359 91.483 73.1341 91.483C73.602 91.483 74.0595 91.2671 74.3372 90.8558C75.0583 89.8385 75.849 89.0001 76.7066 88.3419C76.8582 90.648 78.785 92.4804 81.1286 92.4804C83.5707 92.4804 85.5603 90.4908 85.5603 88.0487C85.5603 87.7206 85.5244 87.4005 85.4562 87.0924C87.1964 87.6279 88.3758 88.368 88.3982 88.3829C89.0871 88.8251 90.0074 88.6246 90.4495 87.9356C90.8917 87.2467 90.6912 86.3265 90.0023 85.8843C89.8943 85.8123 87.2723 84.1466 83.766 83.689C82.9126 83.5786 81.966 83.5351 80.9669 83.62C80.7363 83.6283 80.51 83.6544 80.2895 83.6969C77.5487 84.0875 74.4957 85.5041 71.9208 89.1387C71.4478 89.8122 71.6072 90.7376 72.2756 91.2106ZM79.6685 88.0436C79.6685 87.3688 80.1308 86.796 80.7581 86.6312C80.8943 86.6124 81.0317 86.5967 81.17 86.5841C81.958 86.6062 82.5887 87.2553 82.5887 88.0436C82.5887 88.8456 81.9306 89.5037 81.1286 89.5037C80.3266 89.5037 79.6685 88.8508 79.6685 88.0436ZM58.9548 107.986C59.87 110.037 62.0344 111.364 64.4713 111.364C66.9082 111.364 69.0726 110.037 69.9775 107.986C70.3116 107.241 69.9775 106.362 69.2269 106.027C68.4814 105.693 67.6022 106.027 67.2681 106.778C66.8362 107.745 65.7103 108.392 64.4661 108.392C63.222 108.392 62.0961 107.745 61.6642 106.778C61.33 106.027 60.456 105.693 59.7054 106.027C58.9548 106.362 58.6207 107.236 58.9548 107.986Z" fill="url(#paint0_linear_0_2725)"/>
<defs>
<linearGradient id="paint0_linear_0_2725" x1="0.0012207" y1="0" x2="0.0012207" y2="171.284" gradientUnits="userSpaceOnUse">
<stop stop-color="#64C1BE"/>
<stop offset="1" stop-color="#28ACB9"/>
</linearGradient>
</defs>
</svg>
