<svg width="17" height="26" viewBox="0 0 17 26" fill="none" xmlns="http://www.w3.org/2000/svg">
<mask id="path-1-outside-1_0_2998" maskUnits="userSpaceOnUse" x="0" y="0" width="17" height="26" fill="black">
<rect fill="white" width="17" height="26"/>
<path fill-rule="evenodd" clip-rule="evenodd" d="M2 4C2 2.89543 2.89543 2 4 2H13C14.1046 2 15 2.89543 15 4V21.6667C15 22.7712 14.1046 23.6667 13 23.6667H4C2.89543 23.6667 2 22.7712 2 21.6667V4ZM5 20.3333C5 19.781 5.44772 19.3333 6 19.3333H11C11.5523 19.3333 12 19.781 12 20.3333V20.5C12 21.0523 11.5523 21.5 11 21.5H6C5.44772 21.5 5 21.0523 5 20.5V20.3333ZM8.5 4.16667C7.67157 4.16667 7 4.83824 7 5.66667V5.91667C7 6.74509 7.67157 7.41667 8.5 7.41667C9.32843 7.41667 10 6.74509 10 5.91667V5.66667C10 4.83824 9.32843 4.16667 8.5 4.16667Z"/>
</mask>
<path d="M4 0C1.79086 0 0 1.79086 0 4H4V4V0ZM13 0H4V4H13V0ZM17 4C17 1.79086 15.2091 0 13 0V4H17ZM17 21.6667V4H13V21.6667H17ZM13 25.6667C15.2091 25.6667 17 23.8758 17 21.6667H13V21.6667V25.6667ZM4 25.6667H13V21.6667H4V25.6667ZM0 21.6667C0 23.8758 1.79086 25.6667 4 25.6667V21.6667H4H0ZM0 4V21.6667H4V4H0ZM6 17.3333C4.34315 17.3333 3 18.6765 3 20.3333H7C7 20.8856 6.55229 21.3333 6 21.3333V17.3333ZM11 17.3333H6V21.3333H11V17.3333ZM14 20.3333C14 18.6765 12.6569 17.3333 11 17.3333V21.3333C10.4477 21.3333 10 20.8856 10 20.3333H14ZM14 20.5V20.3333H10V20.5H14ZM11 23.5C12.6568 23.5 14 22.1569 14 20.5H10C10 19.9477 10.4477 19.5 11 19.5V23.5ZM6 23.5H11V19.5H6V23.5ZM3 20.5C3 22.1569 4.34315 23.5 6 23.5V19.5C6.55228 19.5 7 19.9477 7 20.5H3ZM3 20.3333V20.5H7V20.3333H3ZM9 5.66667C9 5.94281 8.77614 6.16667 8.5 6.16667V2.16667C6.567 2.16667 5 3.73367 5 5.66667H9ZM9 5.91667V5.66667H5V5.91667H9ZM8.5 5.41667C8.77614 5.41667 9 5.64052 9 5.91667H5C5 7.84966 6.567 9.41667 8.5 9.41667V5.41667ZM8 5.91667C8 5.64052 8.22386 5.41667 8.5 5.41667V9.41667C10.433 9.41667 12 7.84966 12 5.91667H8ZM8 5.66667V5.91667H12V5.66667H8ZM8.5 6.16667C8.22386 6.16667 8 5.94281 8 5.66667H12C12 3.73367 10.433 2.16667 8.5 2.16667V6.16667Z" fill="#C1C1C1" mask="url(#path-1-outside-1_0_2998)"/>
</svg>
