<svg width="18" height="24" viewBox="0 0 18 24" fill="none" xmlns="http://www.w3.org/2000/svg">
<mask id="path-1-outside-1_0_2886" maskUnits="userSpaceOnUse" x="0" y="0" width="18" height="24" fill="black">
<rect fill="white" width="18" height="24"/>
<path fill-rule="evenodd" clip-rule="evenodd" d="M9 22C9 22 2 14.2 2 9C2 5.1 5.1 2 9 2C12.9 2 16 5.1 16 9C16 14.2 9 22 9 22ZM9 6.5C7.6 6.5 6.5 7.6 6.5 9C6.5 10.4 7.6 11.5 9 11.5C10.4 11.5 11.5 10.4 11.5 9C11.5 7.6 10.4 6.5 9 6.5Z"/>
</mask>
<path d="M9 22L7.51152 23.3358C7.89086 23.7585 8.43204 24 9 24C9.56796 24 10.1091 23.7585 10.4885 23.3358L9 22ZM0 9C0 10.707 0.562455 12.4691 1.26903 14.0438C1.98793 15.6459 2.92872 17.2116 3.84082 18.5668C4.75681 19.9276 5.66884 21.1129 6.35037 21.9567C6.69201 22.3797 6.97792 22.7195 7.18033 22.9558C7.28159 23.074 7.3621 23.1665 7.41842 23.2306C7.44658 23.2627 7.4687 23.2877 7.48436 23.3054C7.49219 23.3142 7.4984 23.3211 7.50294 23.3262C7.50522 23.3288 7.50707 23.3309 7.5085 23.3325C7.50922 23.3333 7.50983 23.3339 7.51033 23.3345C7.51058 23.3348 7.51088 23.3351 7.511 23.3352C7.51127 23.3355 7.51152 23.3358 9 22C10.4885 20.6642 10.4887 20.6644 10.4888 20.6646C10.4889 20.6646 10.489 20.6647 10.489 20.6648C10.4891 20.6649 10.4891 20.6648 10.4889 20.6647C10.4887 20.6644 10.488 20.6636 10.4869 20.6624C10.4847 20.66 10.4809 20.6557 10.4755 20.6496C10.4646 20.6374 10.4475 20.618 10.4244 20.5916C10.3781 20.539 10.3083 20.4588 10.2181 20.3535C10.0377 20.143 9.77674 19.8328 9.46213 19.4433C8.83116 18.6621 7.99319 17.5724 7.15918 16.3332C6.32128 15.0884 5.51207 13.7291 4.91847 12.4062C4.31254 11.0559 4 9.89303 4 9H0ZM9 0C3.99543 0 0 3.99543 0 9H4C4 6.20457 6.20457 4 9 4V0ZM18 9C18 3.99543 14.0046 0 9 0V4C11.7954 4 14 6.20457 14 9H18ZM9 22C10.4885 23.3358 10.4887 23.3355 10.489 23.3352C10.4891 23.3351 10.4894 23.3348 10.4897 23.3345C10.4902 23.3339 10.4908 23.3333 10.4915 23.3325C10.4929 23.3309 10.4948 23.3288 10.4971 23.3262C10.5016 23.3211 10.5078 23.3142 10.5156 23.3054C10.5313 23.2877 10.5534 23.2627 10.5816 23.2306C10.6379 23.1665 10.7184 23.074 10.8197 22.9558C11.0221 22.7195 11.308 22.3797 11.6496 21.9567C12.3312 21.1129 13.2432 19.9276 14.1592 18.5668C15.0713 17.2116 16.0121 15.6459 16.731 14.0438C17.4375 12.4691 18 10.707 18 9H14C14 9.89303 13.6875 11.0559 13.0815 12.4062C12.4879 13.7291 11.6787 15.0884 10.8408 16.3332C10.0068 17.5724 9.16884 18.6621 8.53787 19.4433C8.22326 19.8328 7.96229 20.143 7.78189 20.3535C7.69174 20.4588 7.62187 20.539 7.57564 20.5916C7.55253 20.618 7.53535 20.6374 7.52452 20.6496C7.5191 20.6557 7.51528 20.66 7.51309 20.6624C7.512 20.6636 7.51132 20.6644 7.51105 20.6647C7.51092 20.6648 7.51089 20.6649 7.51097 20.6648C7.51101 20.6647 7.51114 20.6646 7.51116 20.6646C7.51133 20.6644 7.51152 20.6642 9 22ZM8.5 9C8.5 8.83646 8.56001 8.71842 8.63921 8.63921C8.71842 8.56001 8.83646 8.5 9 8.5V4.5C6.49543 4.5 4.5 6.49543 4.5 9H8.5ZM9 9.5C8.83646 9.5 8.71842 9.43999 8.63921 9.36079C8.56001 9.28158 8.5 9.16354 8.5 9H4.5C4.5 11.5046 6.49543 13.5 9 13.5V9.5ZM9.5 9C9.5 9.16354 9.43999 9.28158 9.36079 9.36079C9.28158 9.43999 9.16354 9.5 9 9.5V13.5C11.5046 13.5 13.5 11.5046 13.5 9H9.5ZM9 8.5C9.16354 8.5 9.28158 8.56001 9.36079 8.63921C9.43999 8.71842 9.5 8.83646 9.5 9H13.5C13.5 6.49543 11.5046 4.5 9 4.5V8.5Z" fill="#00D7D9" mask="url(#path-1-outside-1_0_2886)"/>
</svg>
