<svg width="21" height="21" viewBox="0 0 21 21" fill="none" xmlns="http://www.w3.org/2000/svg">
<mask id="path-1-outside-1_0_2881" maskUnits="userSpaceOnUse" x="0" y="0" width="21" height="21" fill="black">
<rect fill="white" width="21" height="21"/>
<path fill-rule="evenodd" clip-rule="evenodd" d="M2 10.5C2 5.80558 5.80558 2 10.5 2C15.1944 2 19 5.80558 19 10.5C19 15.1944 15.1944 19 10.5 19C5.80558 19 2 15.1944 2 10.5ZM13.8239 15.0015L14.9871 13.4607L11.2779 10.6605V5.30648H9.34747V11.6219L13.8239 15.0015Z"/>
</mask>
<path d="M14.9871 13.4607L16.5833 14.6658C17.2488 13.7842 17.0737 12.5301 16.1921 11.8646L14.9871 13.4607ZM13.8239 15.0015L12.6189 16.5976C13.0422 16.9172 13.5752 17.0556 14.1005 16.9822C14.6259 16.9089 15.1005 16.6298 15.4201 16.2065L13.8239 15.0015ZM11.2779 10.6605H9.27794C9.27794 11.2878 9.57224 11.8788 10.0729 12.2567L11.2779 10.6605ZM11.2779 5.30648H13.2779C13.2779 4.20191 12.3825 3.30648 11.2779 3.30648V5.30648ZM9.34747 5.30648V3.30648C8.2429 3.30648 7.34747 4.20191 7.34747 5.30648H9.34747ZM9.34747 11.6219H7.34747C7.34747 12.2492 7.64178 12.8402 8.14242 13.2181L9.34747 11.6219ZM10.5 0C4.70101 0 0 4.70101 0 10.5H4C4 6.91015 6.91015 4 10.5 4V0ZM21 10.5C21 4.70101 16.299 0 10.5 0V4C14.0899 4 17 6.91015 17 10.5H21ZM10.5 21C16.299 21 21 16.299 21 10.5H17C17 14.0899 14.0899 17 10.5 17V21ZM0 10.5C0 16.299 4.70101 21 10.5 21V17C6.91015 17 4 14.0899 4 10.5H0ZM13.3909 12.2557L12.2277 13.7964L15.4201 16.2065L16.5833 14.6658L13.3909 12.2557ZM10.0729 12.2567L13.782 15.0569L16.1921 11.8646L12.483 9.06432L10.0729 12.2567ZM9.27794 5.30648V10.6605H13.2779V5.30648H9.27794ZM9.34747 7.30648H11.2779V3.30648H9.34747V7.30648ZM11.3475 11.6219V5.30648H7.34747V11.6219H11.3475ZM15.029 13.4053L10.5525 10.0257L8.14242 13.2181L12.6189 16.5976L15.029 13.4053Z" fill="#00D7D9" mask="url(#path-1-outside-1_0_2881)"/>
</svg>
