<svg aria-hidden="true" xmlns="http://www.w3.org/2000/svg" xmlns:xlink="http://www.w3.org/1999/xlink"><symbol viewBox="0 0 27 27" id="icon_close-modal" xmlns="http://www.w3.org/2000/svg">
	<path fill-rule="evenodd" clip-rule="evenodd" d="M15.9099 13.0815L26.163 23.3345L23.3345 26.163L13.0815 15.9099L2.82843 26.163L0 23.3345L10.253 13.0815L0 2.82843L2.82843 0L13.0815 10.253L23.3345 0L26.163 2.82843L15.9099 13.0815Z"/>
</symbol><symbol viewBox="0 0 20 20" id="icon_doc" xmlns="http://www.w3.org/2000/svg">
<path fill-rule="evenodd" clip-rule="evenodd" d="M16 15C16 15.552 15.552 16 15 16H5C4.448 16 4 15.552 4 15C4 14.448 4.448 14 5 14H15C15.552 14 16 14.448 16 15V15ZM5 10H15C15.552 10 16 10.448 16 11C16 11.552 15.552 12 15 12H5C4.448 12 4 11.552 4 11C4 10.448 4.448 10 5 10V10ZM18 17C18 17.552 17.552 18 17 18H3C2.448 18 2 17.552 2 17V3C2 2.448 2.448 2 3 2H12V6C12 7.104 12.895 8 14 8H18V17ZM19.707 5.707L14.293 0.293C14.105 0.105 13.851 0 13.586 0H2C0.895 0 0 0.895 0 2V18C0 19.104 0.895 20 2 20H18C19.105 20 20 19.104 20 18V6.414C20 6.149 19.895 5.895 19.707 5.707V5.707Z"/>
<defs>
<radialGradient id="bpaint0_radial_0_2890" cx="0" cy="0" r="1" gradientUnits="userSpaceOnUse" gradientTransform="translate(0.673882 19.9579) rotate(-8.63738) scale(19.5478)">
<stop stop-color="#2BD8D4"/>
<stop offset="1" stop-color="#A5E8CB"/>
</radialGradient>
</defs>
</symbol><symbol viewBox="0 0 24 20" id="icon_mail" xmlns="http://www.w3.org/2000/svg">
<mask id="cpath-1-outside-1_0_2992" maskUnits="userSpaceOnUse" x="0" y="0" width="24" height="20">
<rect width="24" height="20"/>
<path fill-rule="evenodd" clip-rule="evenodd" d="M20 2L22 4L20 6L22 8L20 10L22 12L20 14L22 16L20 18L18 16L16 18L14 16L12 18L10 16L8 18L6 16L4 18L2 16L4 14L2 12L4 10L2 8L4 6L2 4L4 2L6 4L8 2L10 4L12 2L14 4L16 2L18 4L20 2ZM6 8L12 13L18 8V6L12 10L6 6V8Z"/>
</mask>
<path d="M22 4L23.0607 5.06066C23.6464 4.47487 23.6464 3.52513 23.0607 2.93934L22 4ZM20 2L21.0607 0.93934C20.4749 0.353553 19.5251 0.353553 18.9393 0.93934L20 2ZM20 6L18.9393 4.93934C18.3536 5.52513 18.3536 6.47487 18.9393 7.06066L20 6ZM22 8L23.0607 9.06066C23.6464 8.47487 23.6464 7.52513 23.0607 6.93934L22 8ZM20 10L18.9393 8.93934C18.3536 9.52513 18.3536 10.4749 18.9393 11.0607L20 10ZM22 12L23.0607 13.0607C23.6464 12.4749 23.6464 11.5251 23.0607 10.9393L22 12ZM20 14L18.9393 12.9393C18.3536 13.5251 18.3536 14.4749 18.9393 15.0607L20 14ZM22 16L23.0607 17.0607C23.6464 16.4749 23.6464 15.5251 23.0607 14.9393L22 16ZM20 18L18.9393 19.0607C19.5251 19.6464 20.4749 19.6464 21.0607 19.0607L20 18ZM18 16L19.0607 14.9393C18.4749 14.3536 17.5251 14.3536 16.9393 14.9393L18 16ZM16 18L14.9393 19.0607C15.5251 19.6464 16.4749 19.6464 17.0607 19.0607L16 18ZM14 16L15.0607 14.9393C14.4749 14.3536 13.5251 14.3536 12.9393 14.9393L14 16ZM12 18L10.9393 19.0607C11.5251 19.6464 12.4749 19.6464 13.0607 19.0607L12 18ZM10 16L11.0607 14.9393C10.4749 14.3536 9.52513 14.3536 8.93934 14.9393L10 16ZM8 18L6.93934 19.0607C7.52513 19.6464 8.47487 19.6464 9.06066 19.0607L8 18ZM6 16L7.06066 14.9393C6.47487 14.3536 5.52513 14.3536 4.93934 14.9393L6 16ZM4 18L2.93934 19.0607C3.52513 19.6464 4.47487 19.6464 5.06066 19.0607L4 18ZM2 16L0.93934 14.9393C0.353553 15.5251 0.353553 16.4749 0.93934 17.0607L2 16ZM4 14L5.06066 15.0607C5.64645 14.4749 5.64645 13.5251 5.06066 12.9393L4 14ZM2 12L0.93934 10.9393C0.353553 11.5251 0.353553 12.4749 0.93934 13.0607L2 12ZM4 10L5.06066 11.0607C5.64645 10.4749 5.64645 9.52513 5.06066 8.93934L4 10ZM2 8L0.93934 6.93934C0.353553 7.52513 0.353553 8.47487 0.93934 9.06066L2 8ZM4 6L5.06066 7.06066C5.64645 6.47487 5.64645 5.52513 5.06066 4.93934L4 6ZM2 4L0.93934 2.93934C0.353553 3.52513 0.353553 4.47487 0.93934 5.06066L2 4ZM4 2L5.06066 0.93934C4.47487 0.353553 3.52513 0.353553 2.93934 0.93934L4 2ZM6 4L4.93934 5.06066C5.52513 5.64645 6.47487 5.64645 7.06066 5.06066L6 4ZM8 2L9.06066 0.93934C8.47487 0.353553 7.52513 0.353553 6.93934 0.93934L8 2ZM10 4L8.93934 5.06066C9.52513 5.64645 10.4749 5.64645 11.0607 5.06066L10 4ZM12 2L13.0607 0.93934C12.4749 0.353553 11.5251 0.353553 10.9393 0.93934L12 2ZM14 4L12.9393 5.06066C13.5251 5.64645 14.4749 5.64645 15.0607 5.06066L14 4ZM16 2L17.0607 0.93934C16.4749 0.353553 15.5251 0.353553 14.9393 0.93934L16 2ZM18 4L16.9393 5.06066C17.5251 5.64645 18.4749 5.64645 19.0607 5.06066L18 4ZM12 13L11.0397 14.1523C11.596 14.6159 12.404 14.6159 12.9603 14.1523L12 13ZM6 8H4.5C4.5 8.44517 4.69773 8.86734 5.03972 9.15233L6 8ZM18 8L18.9603 9.15233C19.3023 8.86734 19.5 8.44517 19.5 8H18ZM18 6H19.5C19.5 5.44681 19.1955 4.93852 18.7078 4.67749C18.2201 4.41646 17.6282 4.44507 17.1679 4.75192L18 6ZM12 10L11.1679 11.2481C11.6718 11.584 12.3282 11.584 12.8321 11.2481L12 10ZM6 6L6.83205 4.75192C6.37177 4.44507 5.77995 4.41646 5.29221 4.67749C4.80448 4.93852 4.5 5.44681 4.5 6H6ZM23.0607 2.93934L21.0607 0.93934L18.9393 3.06066L20.9393 5.06066L23.0607 2.93934ZM21.0607 7.06066L23.0607 5.06066L20.9393 2.93934L18.9393 4.93934L21.0607 7.06066ZM23.0607 6.93934L21.0607 4.93934L18.9393 7.06066L20.9393 9.06066L23.0607 6.93934ZM21.0607 11.0607L23.0607 9.06066L20.9393 6.93934L18.9393 8.93934L21.0607 11.0607ZM23.0607 10.9393L21.0607 8.93934L18.9393 11.0607L20.9393 13.0607L23.0607 10.9393ZM21.0607 15.0607L23.0607 13.0607L20.9393 10.9393L18.9393 12.9393L21.0607 15.0607ZM23.0607 14.9393L21.0607 12.9393L18.9393 15.0607L20.9393 17.0607L23.0607 14.9393ZM21.0607 19.0607L23.0607 17.0607L20.9393 14.9393L18.9393 16.9393L21.0607 19.0607ZM16.9393 17.0607L18.9393 19.0607L21.0607 16.9393L19.0607 14.9393L16.9393 17.0607ZM17.0607 19.0607L19.0607 17.0607L16.9393 14.9393L14.9393 16.9393L17.0607 19.0607ZM12.9393 17.0607L14.9393 19.0607L17.0607 16.9393L15.0607 14.9393L12.9393 17.0607ZM13.0607 19.0607L15.0607 17.0607L12.9393 14.9393L10.9393 16.9393L13.0607 19.0607ZM8.93934 17.0607L10.9393 19.0607L13.0607 16.9393L11.0607 14.9393L8.93934 17.0607ZM9.06066 19.0607L11.0607 17.0607L8.93934 14.9393L6.93934 16.9393L9.06066 19.0607ZM4.93934 17.0607L6.93934 19.0607L9.06066 16.9393L7.06066 14.9393L4.93934 17.0607ZM5.06066 19.0607L7.06066 17.0607L4.93934 14.9393L2.93934 16.9393L5.06066 19.0607ZM0.93934 17.0607L2.93934 19.0607L5.06066 16.9393L3.06066 14.9393L0.93934 17.0607ZM2.93934 12.9393L0.93934 14.9393L3.06066 17.0607L5.06066 15.0607L2.93934 12.9393ZM0.93934 13.0607L2.93934 15.0607L5.06066 12.9393L3.06066 10.9393L0.93934 13.0607ZM2.93934 8.93934L0.93934 10.9393L3.06066 13.0607L5.06066 11.0607L2.93934 8.93934ZM0.93934 9.06066L2.93934 11.0607L5.06066 8.93934L3.06066 6.93934L0.93934 9.06066ZM2.93934 4.93934L0.93934 6.93934L3.06066 9.06066L5.06066 7.06066L2.93934 4.93934ZM0.93934 5.06066L2.93934 7.06066L5.06066 4.93934L3.06066 2.93934L0.93934 5.06066ZM2.93934 0.93934L0.93934 2.93934L3.06066 5.06066L5.06066 3.06066L2.93934 0.93934ZM7.06066 2.93934L5.06066 0.93934L2.93934 3.06066L4.93934 5.06066L7.06066 2.93934ZM6.93934 0.93934L4.93934 2.93934L7.06066 5.06066L9.06066 3.06066L6.93934 0.93934ZM11.0607 2.93934L9.06066 0.93934L6.93934 3.06066L8.93934 5.06066L11.0607 2.93934ZM10.9393 0.93934L8.93934 2.93934L11.0607 5.06066L13.0607 3.06066L10.9393 0.93934ZM15.0607 2.93934L13.0607 0.93934L10.9393 3.06066L12.9393 5.06066L15.0607 2.93934ZM14.9393 0.93934L12.9393 2.93934L15.0607 5.06066L17.0607 3.06066L14.9393 0.93934ZM19.0607 2.93934L17.0607 0.93934L14.9393 3.06066L16.9393 5.06066L19.0607 2.93934ZM18.9393 0.93934L16.9393 2.93934L19.0607 5.06066L21.0607 3.06066L18.9393 0.93934ZM12.9603 11.8477L6.96028 6.84767L5.03972 9.15233L11.0397 14.1523L12.9603 11.8477ZM17.0397 6.84767L11.0397 11.8477L12.9603 14.1523L18.9603 9.15233L17.0397 6.84767ZM16.5 6V8H19.5V6H16.5ZM12.8321 11.2481L18.8321 7.24808L17.1679 4.75192L11.1679 8.75192L12.8321 11.2481ZM5.16795 7.24808L11.1679 11.2481L12.8321 8.75192L6.83205 4.75192L5.16795 7.24808ZM7.5 8V6H4.5V8H7.5Z" mask="url(#cpath-1-outside-1_0_2992)"/>
</symbol><symbol viewBox="0 0 23 15" id="icon_pagging-left" xmlns="http://www.w3.org/2000/svg">
<path fill-rule="evenodd" clip-rule="evenodd" d="M22.4375 6.79564L2.82588 6.79564L9.13504 0.5L7.03435 0.5L0.0375004 7.49498L7.03435 14.5H9.13504L2.82588 8.2L22.4375 8.2V6.79564Z"/>
</symbol><symbol viewBox="0 0 23 15" id="icon_pagging-right" xmlns="http://www.w3.org/2000/svg">
<path fill-rule="evenodd" clip-rule="evenodd" d="M0.291504 6.79564L19.9031 6.79564L13.594 0.5L15.6947 0.5L22.6915 7.49498L15.6947 14.5H13.594L19.9031 8.2L0.291504 8.2L0.291504 6.79564Z"/>
</symbol><symbol viewBox="0 0 17 26" id="icon_phone" xmlns="http://www.w3.org/2000/svg">
<mask id="fpath-1-outside-1_0_2998" maskUnits="userSpaceOnUse" x="0" y="0" width="17" height="26">
<rect width="17" height="26"/>
<path fill-rule="evenodd" clip-rule="evenodd" d="M2 4C2 2.89543 2.89543 2 4 2H13C14.1046 2 15 2.89543 15 4V21.6667C15 22.7712 14.1046 23.6667 13 23.6667H4C2.89543 23.6667 2 22.7712 2 21.6667V4ZM5 20.3333C5 19.781 5.44772 19.3333 6 19.3333H11C11.5523 19.3333 12 19.781 12 20.3333V20.5C12 21.0523 11.5523 21.5 11 21.5H6C5.44772 21.5 5 21.0523 5 20.5V20.3333ZM8.5 4.16667C7.67157 4.16667 7 4.83824 7 5.66667V5.91667C7 6.74509 7.67157 7.41667 8.5 7.41667C9.32843 7.41667 10 6.74509 10 5.91667V5.66667C10 4.83824 9.32843 4.16667 8.5 4.16667Z"/>
</mask>
<path d="M4 0C1.79086 0 0 1.79086 0 4H4V4V0ZM13 0H4V4H13V0ZM17 4C17 1.79086 15.2091 0 13 0V4H17ZM17 21.6667V4H13V21.6667H17ZM13 25.6667C15.2091 25.6667 17 23.8758 17 21.6667H13V21.6667V25.6667ZM4 25.6667H13V21.6667H4V25.6667ZM0 21.6667C0 23.8758 1.79086 25.6667 4 25.6667V21.6667H4H0ZM0 4V21.6667H4V4H0ZM6 17.3333C4.34315 17.3333 3 18.6765 3 20.3333H7C7 20.8856 6.55229 21.3333 6 21.3333V17.3333ZM11 17.3333H6V21.3333H11V17.3333ZM14 20.3333C14 18.6765 12.6569 17.3333 11 17.3333V21.3333C10.4477 21.3333 10 20.8856 10 20.3333H14ZM14 20.5V20.3333H10V20.5H14ZM11 23.5C12.6568 23.5 14 22.1569 14 20.5H10C10 19.9477 10.4477 19.5 11 19.5V23.5ZM6 23.5H11V19.5H6V23.5ZM3 20.5C3 22.1569 4.34315 23.5 6 23.5V19.5C6.55228 19.5 7 19.9477 7 20.5H3ZM3 20.3333V20.5H7V20.3333H3ZM9 5.66667C9 5.94281 8.77614 6.16667 8.5 6.16667V2.16667C6.567 2.16667 5 3.73367 5 5.66667H9ZM9 5.91667V5.66667H5V5.91667H9ZM8.5 5.41667C8.77614 5.41667 9 5.64052 9 5.91667H5C5 7.84966 6.567 9.41667 8.5 9.41667V5.41667ZM8 5.91667C8 5.64052 8.22386 5.41667 8.5 5.41667V9.41667C10.433 9.41667 12 7.84966 12 5.91667H8ZM8 5.66667V5.91667H12V5.66667H8ZM8.5 6.16667C8.22386 6.16667 8 5.94281 8 5.66667H12C12 3.73367 10.433 2.16667 8.5 2.16667V6.16667Z" mask="url(#fpath-1-outside-1_0_2998)"/>
</symbol><symbol viewBox="0 0 18 24" id="icon_point" xmlns="http://www.w3.org/2000/svg">
<mask id="gpath-1-outside-1_0_2982" maskUnits="userSpaceOnUse" x="0" y="0" width="18" height="24">
<rect width="18" height="24"/>
<path fill-rule="evenodd" clip-rule="evenodd" d="M9 22C9 22 2 14.2 2 9C2 5.1 5.1 2 9 2C12.9 2 16 5.1 16 9C16 14.2 9 22 9 22ZM9 6.5C7.6 6.5 6.5 7.6 6.5 9C6.5 10.4 7.6 11.5 9 11.5C10.4 11.5 11.5 10.4 11.5 9C11.5 7.6 10.4 6.5 9 6.5Z"/>
</mask>
<path d="M9 22L7.51152 23.3358C7.89086 23.7585 8.43204 24 9 24C9.56796 24 10.1091 23.7585 10.4885 23.3358L9 22ZM0 9C0 10.707 0.562455 12.4691 1.26903 14.0438C1.98793 15.6459 2.92872 17.2116 3.84082 18.5668C4.75681 19.9276 5.66884 21.1129 6.35037 21.9567C6.69201 22.3797 6.97792 22.7195 7.18033 22.9558C7.28159 23.074 7.3621 23.1665 7.41842 23.2306C7.44658 23.2627 7.4687 23.2877 7.48436 23.3054C7.49219 23.3142 7.4984 23.3211 7.50294 23.3262C7.50522 23.3288 7.50707 23.3309 7.5085 23.3325C7.50922 23.3333 7.50983 23.3339 7.51033 23.3345C7.51058 23.3348 7.51088 23.3351 7.511 23.3352C7.51127 23.3355 7.51152 23.3358 9 22C10.4885 20.6642 10.4887 20.6644 10.4888 20.6646C10.4889 20.6646 10.489 20.6647 10.489 20.6648C10.4891 20.6649 10.4891 20.6648 10.4889 20.6647C10.4887 20.6644 10.488 20.6636 10.4869 20.6624C10.4847 20.66 10.4809 20.6557 10.4755 20.6496C10.4646 20.6374 10.4475 20.618 10.4244 20.5916C10.3781 20.539 10.3083 20.4588 10.2181 20.3535C10.0377 20.143 9.77674 19.8328 9.46213 19.4433C8.83116 18.6621 7.99319 17.5724 7.15918 16.3332C6.32128 15.0884 5.51207 13.7291 4.91847 12.4062C4.31254 11.0559 4 9.89303 4 9H0ZM9 0C3.99543 0 0 3.99543 0 9H4C4 6.20457 6.20457 4 9 4V0ZM18 9C18 3.99543 14.0046 0 9 0V4C11.7954 4 14 6.20457 14 9H18ZM9 22C10.4885 23.3358 10.4887 23.3355 10.489 23.3352C10.4891 23.3351 10.4894 23.3348 10.4897 23.3345C10.4902 23.3339 10.4908 23.3333 10.4915 23.3325C10.4929 23.3309 10.4948 23.3288 10.4971 23.3262C10.5016 23.3211 10.5078 23.3142 10.5156 23.3054C10.5313 23.2877 10.5534 23.2627 10.5816 23.2306C10.6379 23.1665 10.7184 23.074 10.8197 22.9558C11.0221 22.7195 11.308 22.3797 11.6496 21.9567C12.3312 21.1129 13.2432 19.9276 14.1592 18.5668C15.0713 17.2116 16.0121 15.6459 16.731 14.0438C17.4375 12.4691 18 10.707 18 9H14C14 9.89303 13.6875 11.0559 13.0815 12.4062C12.4879 13.7291 11.6787 15.0884 10.8408 16.3332C10.0068 17.5724 9.16884 18.6621 8.53787 19.4433C8.22326 19.8328 7.96229 20.143 7.78189 20.3535C7.69174 20.4588 7.62187 20.539 7.57564 20.5916C7.55253 20.618 7.53535 20.6374 7.52452 20.6496C7.5191 20.6557 7.51528 20.66 7.51309 20.6624C7.512 20.6636 7.51132 20.6644 7.51105 20.6647C7.51092 20.6648 7.51089 20.6649 7.51097 20.6648C7.51101 20.6647 7.51114 20.6646 7.51116 20.6646C7.51133 20.6644 7.51152 20.6642 9 22ZM8.5 9C8.5 8.83646 8.56001 8.71842 8.63921 8.63921C8.71842 8.56001 8.83646 8.5 9 8.5V4.5C6.49543 4.5 4.5 6.49543 4.5 9H8.5ZM9 9.5C8.83646 9.5 8.71842 9.43999 8.63921 9.36079C8.56001 9.28158 8.5 9.16354 8.5 9H4.5C4.5 11.5046 6.49543 13.5 9 13.5V9.5ZM9.5 9C9.5 9.16354 9.43999 9.28158 9.36079 9.36079C9.28158 9.43999 9.16354 9.5 9 9.5V13.5C11.5046 13.5 13.5 11.5046 13.5 9H9.5ZM9 8.5C9.16354 8.5 9.28158 8.56001 9.36079 8.63921C9.43999 8.71842 9.5 8.83646 9.5 9H13.5C13.5 6.49543 11.5046 4.5 9 4.5V8.5Z" mask="url(#gpath-1-outside-1_0_2982)"/>
</symbol><symbol viewBox="0 0 20 20" id="icon_search" xmlns="http://www.w3.org/2000/svg">
<mask id="hpath-1-inside-1_35_4806">
<path fill-rule="evenodd" clip-rule="evenodd" d="M14.611 12.8949C15.6021 11.5518 16.1879 9.89127 16.1879 8.09396C16.1879 3.62379 12.5641 0 8.09396 0C3.62379 0 0 3.62379 0 8.09396C0 12.5641 3.62379 16.1879 8.09396 16.1879C9.97303 16.1879 11.7025 15.5476 13.0762 14.4733L17.6676 19.0647L19.2242 17.5081L14.611 12.8949Z"/>
</mask>
<path d="M14.611 12.8949L13.404 12.0043C12.9635 12.6013 13.0257 13.4308 13.5504 13.9556L14.611 12.8949ZM13.0762 14.4733L14.1369 13.4126C13.6009 12.8766 12.7492 12.8247 12.1521 13.2917L13.0762 14.4733ZM17.6676 19.0647L16.607 20.1254C17.1928 20.7112 18.1425 20.7112 18.7283 20.1254L17.6676 19.0647ZM19.2242 17.5081L20.2849 18.5688C20.5662 18.2875 20.7242 17.9059 20.7242 17.5081C20.7242 17.1103 20.5662 16.7288 20.2849 16.4475L19.2242 17.5081ZM14.6879 8.09396C14.6879 9.55998 14.2113 10.9103 13.404 12.0043L15.818 13.7855C16.993 12.1932 17.6879 10.2226 17.6879 8.09396H14.6879ZM8.09396 1.5C11.7357 1.5 14.6879 4.45222 14.6879 8.09396H17.6879C17.6879 2.79536 13.3926 -1.5 8.09396 -1.5V1.5ZM1.5 8.09396C1.5 4.45222 4.45222 1.5 8.09396 1.5V-1.5C2.79536 -1.5 -1.5 2.79536 -1.5 8.09396H1.5ZM8.09396 14.6879C4.45222 14.6879 1.5 11.7357 1.5 8.09396H-1.5C-1.5 13.3926 2.79536 17.6879 8.09396 17.6879V14.6879ZM12.1521 13.2917C11.0329 14.1671 9.62636 14.6879 8.09396 14.6879V17.6879C10.3197 17.6879 12.3722 16.9282 14.0003 15.6548L12.1521 13.2917ZM18.7283 18.0041L14.1369 13.4126L12.0155 15.5339L16.607 20.1254L18.7283 18.0041ZM18.1636 16.4475L16.607 18.0041L18.7283 20.1254L20.2849 18.5688L18.1636 16.4475ZM13.5504 13.9556L18.1636 18.5688L20.2849 16.4475L15.6717 11.8342L13.5504 13.9556Z" mask="url(#hpath-1-inside-1_35_4806)"/>
</symbol><symbol viewBox="0 0 18 27" id="icon_slider-left" xmlns="http://www.w3.org/2000/svg">
<path fill-rule="evenodd" clip-rule="evenodd" d="M17.125 27H13.125L0 13.5L13.125 0H17.125L3.87524 13.5L17.125 27Z"/>
</symbol><symbol viewBox="0 0 18 27" id="icon_slider-right" xmlns="http://www.w3.org/2000/svg">
<path fill-rule="evenodd" clip-rule="evenodd" d="M0 27H4L17.125 13.5L4 0H0L13.2498 13.5L0 27Z"/>
</symbol><symbol viewBox="0 0 31 31" id="icon_spoller" xmlns="http://www.w3.org/2000/svg">
<path fill-rule="evenodd" clip-rule="evenodd" d="M17 0H14V14H0V17H14V31H17V17H31V14H17V0Z"/>
</symbol><symbol viewBox="0 0 21 21" id="icon_watch" xmlns="http://www.w3.org/2000/svg">
<mask id="lpath-1-outside-1_0_2881" maskUnits="userSpaceOnUse" x="0" y="0" width="21" height="21">
<rect width="21" height="21"/>
<path fill-rule="evenodd" clip-rule="evenodd" d="M2 10.5C2 5.80558 5.80558 2 10.5 2C15.1944 2 19 5.80558 19 10.5C19 15.1944 15.1944 19 10.5 19C5.80558 19 2 15.1944 2 10.5ZM13.8239 15.0015L14.9871 13.4607L11.2779 10.6605V5.30648H9.34747V11.6219L13.8239 15.0015Z"/>
</mask>
<path d="M14.9871 13.4607L16.5833 14.6658C17.2488 13.7842 17.0737 12.5301 16.1921 11.8646L14.9871 13.4607ZM13.8239 15.0015L12.6189 16.5976C13.0422 16.9172 13.5752 17.0556 14.1005 16.9822C14.6259 16.9089 15.1005 16.6298 15.4201 16.2065L13.8239 15.0015ZM11.2779 10.6605H9.27794C9.27794 11.2878 9.57224 11.8788 10.0729 12.2567L11.2779 10.6605ZM11.2779 5.30648H13.2779C13.2779 4.20191 12.3825 3.30648 11.2779 3.30648V5.30648ZM9.34747 5.30648V3.30648C8.2429 3.30648 7.34747 4.20191 7.34747 5.30648H9.34747ZM9.34747 11.6219H7.34747C7.34747 12.2492 7.64178 12.8402 8.14242 13.2181L9.34747 11.6219ZM10.5 0C4.70101 0 0 4.70101 0 10.5H4C4 6.91015 6.91015 4 10.5 4V0ZM21 10.5C21 4.70101 16.299 0 10.5 0V4C14.0899 4 17 6.91015 17 10.5H21ZM10.5 21C16.299 21 21 16.299 21 10.5H17C17 14.0899 14.0899 17 10.5 17V21ZM0 10.5C0 16.299 4.70101 21 10.5 21V17C6.91015 17 4 14.0899 4 10.5H0ZM13.3909 12.2557L12.2277 13.7964L15.4201 16.2065L16.5833 14.6658L13.3909 12.2557ZM10.0729 12.2567L13.782 15.0569L16.1921 11.8646L12.483 9.06432L10.0729 12.2567ZM9.27794 5.30648V10.6605H13.2779V5.30648H9.27794ZM9.34747 7.30648H11.2779V3.30648H9.34747V7.30648ZM11.3475 11.6219V5.30648H7.34747V11.6219H11.3475ZM15.029 13.4053L10.5525 10.0257L8.14242 13.2181L12.6189 16.5976L15.029 13.4053Z" mask="url(#lpath-1-outside-1_0_2881)"/>
</symbol><symbol viewBox="0 0 16 16" id="input_clear" xmlns="http://www.w3.org/2000/svg">
<path fill-rule="evenodd" clip-rule="evenodd" d="M8 0C3.6 0 0 3.6 0 8C0 12.4 3.6 16 8 16C12.4 16 16 12.4 16 8C16 3.6 12.4 0 8 0ZM12 11.0494L10.88 12.2353L8 9.18588L5.12 12.2353L4 11.0494L6.88 8L4 4.95059L5.12 3.76471L8 6.81412L10.88 3.76471L12 4.95059L9.12 8L12 11.0494Z"/>
</symbol><symbol viewBox="0 0 77 14" id="logo_salt" xmlns="http://www.w3.org/2000/svg">
<path fill-rule="evenodd" clip-rule="evenodd" d="M32.7048 10.9764C34.2224 11.0205 35.7244 10.6559 37.0571 9.91985C37.1285 9.8802 37.2046 9.85222 37.3061 9.80557C37.673 10.5339 37.8597 11.3415 37.8501 12.159C37.8616 13.0733 37.8501 13.0919 36.9902 13.3741C35.5422 13.8278 34.028 14.0267 32.5134 13.9619C30.8998 13.9293 29.376 13.619 27.9883 12.77C26.3377 11.7718 25.4156 10.2767 25.1298 8.39213C24.8566 6.89013 25.0167 5.34034 25.5908 3.92792C26.453 1.89406 28.0528 0.760515 30.1391 0.289369C32.6121 -0.288017 35.2057 0.00401796 37.4928 1.11737C37.6103 1.17102 37.7763 1.30396 37.7763 1.39959C37.8041 2.50724 37.5391 3.60231 37.0087 4.57166C36.2249 4.17282 35.4849 3.74832 34.7034 3.40546C33.7746 2.99609 32.7409 2.89722 31.7527 3.12324C30.1321 3.49409 29.1593 4.67895 29.104 6.45157C29.0804 7.09895 29.1455 7.74653 29.2976 8.3758C29.7057 9.9665 31.0266 10.9414 32.7071 10.9858L32.7048 10.9764ZM73.0235 8.54374C72.9516 8.3518 72.8262 8.18509 72.6625 8.06379C72.4989 7.9425 72.3039 7.87183 72.1014 7.86034C71.0733 7.82536 70.0428 7.86034 68.9939 7.86034V10.9088C70.052 10.9088 71.0848 10.9508 72.1106 10.8831C72.2748 10.8493 72.4307 10.7831 72.5696 10.6882C72.7084 10.5934 72.8274 10.4718 72.9198 10.3304C73.0905 10.07 73.1895 9.7682 73.2065 9.45619C73.2235 9.14418 73.158 8.83322 73.0166 8.5554L73.0235 8.54374ZM76.4122 11.4966C75.7206 12.9846 74.4435 13.6774 72.8644 13.7123C70.4808 13.7683 68.0972 13.7287 65.7182 13.731C65.3862 13.731 65.1903 13.5771 65.1903 13.2459C65.1903 10.7362 65.1903 8.22575 65.1903 5.71454C65.1672 5.49762 65.1557 5.29237 65.1534 5.10578C65.1547 4.77476 65.1246 4.44438 65.0635 4.11917C65.0362 3.85923 64.9121 3.61955 64.7164 3.44886C64.5207 3.27816 64.2681 3.18926 64.01 3.20021C63.3184 3.17688 62.6061 3.20021 61.873 3.20021C61.873 3.89993 61.8846 4.59965 61.873 5.29937C61.8431 6.99969 61.7393 8.69301 61.2667 10.335C60.8818 11.6738 60.2547 12.8633 58.89 13.4325C58.37 13.6436 57.8196 13.7681 57.2602 13.801C56.4419 13.8476 55.6166 13.7776 54.7798 13.7567C54.5266 12.7605 54.5393 11.7141 54.8167 10.7245C55.1822 10.7433 55.5484 10.7433 55.914 10.7245C56.336 10.7018 56.7413 10.5504 57.0766 10.2902C57.412 10.0301 57.6616 9.67325 57.7928 9.26678C58.0676 8.49036 58.2472 7.68276 58.3276 6.86208C58.4175 5.7122 58.3506 4.55067 58.3506 3.2935H55.9301C55.8333 2.48183 55.7641 2.32322 55.7641 1.84975C55.732 1.32925 55.7881 0.807033 55.9301 0.305696H56.428C59.1943 0.305696 61.9606 0.284704 64.7384 0.31969C65.4236 0.317351 66.1045 0.430059 66.7532 0.653224C68.0972 1.14303 68.6551 2.2859 68.8717 3.62004C68.9328 4.02918 68.9628 4.44244 68.9617 4.85621V4.98916C68.9706 5.00423 68.9769 5.02083 68.9801 5.03814C70.0636 5.03814 71.0963 5.02181 72.1268 5.03814C72.7177 5.03636 73.3078 5.0863 73.8903 5.18741C75.3748 5.49062 76.32 6.40259 76.6865 7.886C77.0201 9.08074 76.9253 10.3563 76.4191 11.4872L76.4122 11.4966ZM49.5907 6.15536C49.4708 4.54367 48.6686 3.16289 46.5939 3.0556C45.0401 2.9763 43.846 3.53607 43.3389 5.24106C43.2026 5.81928 43.1253 6.41015 43.1084 7.00435C43.1099 7.29195 43.1269 7.57926 43.1591 7.86501C43.3343 9.41372 43.9797 10.7339 45.8585 10.9484C47.5068 11.135 49.0328 10.5706 49.4731 8.61604C49.6326 7.80707 49.6738 6.97877 49.5953 6.15769L49.5907 6.15536ZM51.9905 11.8324C51.0446 12.8584 49.7915 13.5412 48.4242 13.7753C46.2781 14.1881 44.1757 14.0902 42.2208 12.9893C40.425 11.9747 39.4937 10.3583 39.1848 8.35948C38.9355 6.92374 39.0815 5.44627 39.6067 4.08885C40.3836 2.15063 41.822 0.923782 43.8138 0.384997C45.8746 -0.170115 47.9355 -0.118801 49.9134 0.74652C52.0112 1.66082 53.173 3.33315 53.5672 5.5606C53.6502 6.02708 53.6641 6.52154 53.7102 6.99969C53.6802 8.81196 53.233 10.468 51.9858 11.8371"/>
<rect y="5" width="20" height="0.999965"/>
<rect y="8" width="20" height="0.999965"/>
</symbol><symbol viewBox="0 0 29 25" id="telegram" xmlns="http://www.w3.org/2000/svg">
<mask id="opath-1-outside-1_35_4817" maskUnits="userSpaceOnUse" x="-1" y="0" width="30" height="26">
<rect x="-1" width="30" height="26"/>
<path fill-rule="evenodd" clip-rule="evenodd" d="M3.16709 10.6932L25.3121 2.13885C26.3236 1.67911 27.2998 2.38232 26.9137 3.93262L23.1426 21.7307C22.8793 22.9956 22.116 23.2982 21.0588 22.7141L15.3138 18.4629L15.2081 18.5659C13.9019 19.8378 12.7507 20.9588 12.5525 21.1531C12.5454 21.16 12.5383 21.1669 12.5313 21.1738C12.221 21.4777 11.9647 21.7286 11.4028 21.7286C10.8195 21.7286 10.7708 21.5557 10.6536 21.1395C10.6212 21.0243 10.5835 20.8906 10.5279 20.7367L8.41464 14.2478L2.89159 12.5213C1.66462 12.1449 1.65565 11.3006 3.16709 10.6932ZM21.7304 5.98508L9.28141 13.8512L11.3792 20.2923L11.7942 15.8587L22.4538 6.22649C22.9217 5.81056 22.3518 5.60762 21.7304 5.98508Z"/>
</mask>
<path d="M25.3121 2.13885L26.0328 4.0045C26.0689 3.99056 26.1045 3.97559 26.1397 3.95959L25.3121 2.13885ZM3.16709 10.6932L2.44641 8.82759C2.43805 8.83082 2.4297 8.83411 2.42138 8.83745L3.16709 10.6932ZM26.9137 3.93262L24.973 3.44928C24.9673 3.47211 24.962 3.49504 24.9571 3.51805L26.9137 3.93262ZM23.1426 21.7307L21.186 21.3162L21.1845 21.3232L23.1426 21.7307ZM21.0588 22.7141L19.8692 24.3218C19.9401 24.3742 20.0144 24.422 20.0916 24.4646L21.0588 22.7141ZM15.3138 18.4629L16.5035 16.8552C15.7154 16.2721 14.6209 16.3461 13.9186 17.03L15.3138 18.4629ZM15.2081 18.5659L13.8128 17.133L13.8128 17.133L15.2081 18.5659ZM12.5525 21.1531L13.9511 22.5827L13.9524 22.5814L12.5525 21.1531ZM12.5313 21.1738L13.9306 22.6028L13.9307 22.6027L12.5313 21.1738ZM10.6536 21.1395L8.72845 21.6815L8.72845 21.6815L10.6536 21.1395ZM10.5279 20.7367L8.62619 21.356C8.63285 21.3765 8.63983 21.3968 8.64715 21.417L10.5279 20.7367ZM8.41464 14.2478L10.3163 13.6285C10.1158 13.0127 9.62948 12.5321 9.01135 12.3389L8.41464 14.2478ZM2.89159 12.5213L3.48832 10.6124L3.47826 10.6093L2.89159 12.5213ZM9.28141 13.8512L8.21308 12.1604C7.43957 12.6492 7.09638 13.6005 7.37973 14.4705L9.28141 13.8512ZM21.7304 5.98508L20.6921 4.27569C20.682 4.28181 20.672 4.28802 20.662 4.29432L21.7304 5.98508ZM11.3792 20.2923L9.47751 20.9116C9.77119 21.8133 10.6577 22.3848 11.6003 22.28C12.5428 22.1752 13.2821 21.4229 13.3705 20.4787L11.3792 20.2923ZM11.7942 15.8587L10.4534 14.3748C10.0817 14.7106 9.84964 15.1736 9.80296 15.6723L11.7942 15.8587ZM22.4538 6.22649L21.125 4.73177C21.1209 4.73535 21.1169 4.73896 21.1129 4.74258L22.4538 6.22649ZM24.5915 0.273211L2.44641 8.82759L3.88776 12.5589L26.0328 4.0045L24.5915 0.273211ZM28.8544 4.41596C29.1484 3.23568 29.0449 1.82994 28.0285 0.845413C26.9831 -0.167176 25.555 -0.168444 24.4845 0.318124L26.1397 3.95959C26.1102 3.97302 25.9991 4.0147 25.8208 3.99474C25.6329 3.9737 25.4194 3.88697 25.2455 3.71853C24.8735 3.35825 25.0651 3.07926 24.973 3.44928L28.8544 4.41596ZM25.0991 22.1453L28.8703 4.34718L24.9571 3.51805L21.186 21.3162L25.0991 22.1453ZM20.0916 24.4646C20.8536 24.8856 22.025 25.279 23.2217 24.7385C24.428 24.1936 24.9131 23.0391 25.1006 22.1383L21.1845 21.3232C21.1523 21.478 21.1267 21.4902 21.166 21.4284C21.2144 21.3521 21.3416 21.1985 21.5752 21.0931C21.8073 20.9882 22.0049 20.9939 22.0932 21.0073C22.1662 21.0184 22.1475 21.0306 22.0261 20.9635L20.0916 24.4646ZM14.1242 20.0706L19.8692 24.3218L22.2485 21.1064L16.5035 16.8552L14.1242 20.0706ZM16.6034 19.9988L16.7091 19.8958L13.9186 17.03L13.8128 17.133L16.6034 19.9988ZM13.9524 22.5814C14.1475 22.3902 15.2947 21.2731 16.6034 19.9988L13.8128 17.133C12.509 18.4025 11.3538 19.5274 11.1526 19.7247L13.9524 22.5814ZM13.9307 22.6027C13.9378 22.5957 13.9445 22.5892 13.9511 22.5827L11.1538 19.7235C11.1463 19.7308 11.1389 19.7381 11.1319 19.7449L13.9307 22.6027ZM11.4028 23.7286C12.0169 23.7286 12.5717 23.5821 13.0672 23.2938C13.4929 23.0462 13.8092 22.7216 13.9306 22.6028L11.132 19.7448C11.0912 19.7847 11.0639 19.8114 11.0386 19.8355C11.0145 19.8584 11.0007 19.8708 10.9931 19.8774C10.9782 19.8903 11.0022 19.8676 11.0555 19.8365C11.1143 19.8023 11.1868 19.7706 11.2656 19.75C11.3417 19.73 11.3924 19.7286 11.4028 19.7286V23.7286ZM8.72845 21.6815C8.74865 21.7532 8.80381 21.9583 8.88336 22.1555C8.9726 22.3766 9.14146 22.7207 9.47208 23.0365C10.1692 23.7023 11.0288 23.7286 11.4028 23.7286V19.7286C11.3364 19.7286 11.4118 19.7215 11.5536 19.7579C11.7256 19.8021 11.9886 19.9087 12.2347 20.1438C12.4656 20.3643 12.5639 20.5871 12.5928 20.6588C12.612 20.7065 12.6172 20.7339 12.5788 20.5975L8.72845 21.6815ZM8.64715 21.417C8.67544 21.4953 8.69593 21.5659 8.72845 21.6815L12.5788 20.5975C12.5465 20.4827 12.4916 20.2859 12.4086 20.0564L8.64715 21.417ZM6.51294 14.8671L8.62619 21.356L12.4296 20.1174L10.3163 13.6285L6.51294 14.8671ZM2.29488 14.4302L7.81792 16.1567L9.01135 12.3389L3.48831 10.6124L2.29488 14.4302ZM2.42138 8.83745C1.91289 9.04178 1.40757 9.31336 0.988175 9.68463C0.581523 10.0446 0.0970289 10.6459 0.0123097 11.4954C-0.0798395 12.4193 0.344383 13.1561 0.830515 13.6156C1.28251 14.0429 1.82857 14.2872 2.30492 14.4334L3.47826 10.6093C3.34113 10.5672 3.42595 10.5648 3.57841 10.7089C3.76501 10.8853 4.0514 11.3024 3.99256 11.8923C3.94116 12.4077 3.66113 12.6606 3.63955 12.6797C3.60522 12.7101 3.66557 12.6484 3.91279 12.549L2.42138 8.83745ZM10.3497 15.5419L22.7987 7.67584L20.662 4.29432L8.21308 12.1604L10.3497 15.5419ZM13.2809 19.6729L11.1831 13.2318L7.37973 14.4705L9.47751 20.9116L13.2809 19.6729ZM9.80296 15.6723L9.38791 20.1059L13.3705 20.4787L13.7855 16.0451L9.80296 15.6723ZM21.1129 4.74258L10.4534 14.3748L13.1351 17.3426L23.7947 7.7104L21.1129 4.74258ZM22.7686 7.69448C22.7451 7.70876 22.6845 7.74132 22.5757 7.76378C22.5052 7.77833 22.2272 7.8291 21.8507 7.69973C21.6509 7.63107 21.3362 7.47956 21.0628 7.15395C20.7628 6.79675 20.61 6.34205 20.6269 5.88598C20.6423 5.47201 20.7909 5.17368 20.8881 5.01866C20.9882 4.85914 21.086 4.7664 21.125 4.73177L23.7827 7.7212C24.0127 7.51672 24.5902 6.94811 24.6242 6.03445C24.6438 5.50676 24.4689 4.98997 24.126 4.58164C23.8096 4.2049 23.4311 4.01322 23.1505 3.91679C22.6123 3.73188 22.1046 3.77669 21.7671 3.84636C21.3913 3.92393 21.0264 4.07267 20.6921 4.27569L22.7686 7.69448Z" mask="url(#opath-1-outside-1_35_4817)"/>
</symbol><symbol viewBox="0 0 26 27" id="whatsapp" xmlns="http://www.w3.org/2000/svg">
<path fill-rule="evenodd" clip-rule="evenodd" d="M0.64716 26.3262C0.485584 26.3262 0.326441 26.2651 0.204891 26.1491C0.0200034 25.9727 -0.0422447 25.7032 0.0463884 25.4636L2.15866 19.7541C0.611809 17.333 -0.112562 14.4534 0.115745 11.608C0.356412 8.60888 1.65069 5.79555 3.76002 3.68622C6.1371 1.30913 9.31989 0 12.7221 0C16.2465 0 19.5769 1.3895 22.1001 3.9126C27.2189 9.03143 27.3205 17.2587 22.3266 22.2527C19.9498 24.6294 16.7672 25.9385 13.3656 25.9385H13.3653C10.8996 25.9384 8.49831 25.2493 6.3982 23.9422L0.897113 26.2754C0.816421 26.3096 0.731438 26.3262 0.64716 26.3262ZM6.8012 22.0534C6.91745 22.0534 7.03297 22.087 7.13294 22.1528C8.97664 23.3672 11.1104 24.0091 13.3035 24.0092C16.1842 24.0093 18.8777 22.9024 20.8878 20.8923C25.1194 16.6606 25.0238 9.67964 20.6746 5.33051C18.5269 3.18274 15.694 2 12.6979 2C9.81685 2 7.12312 3.10707 5.11288 5.11737C1.46468 8.76557 0.964417 14.5952 3.92339 18.9789C4.03204 19.1399 4.05652 19.3433 3.98911 19.5254L2.37924 23.877L6.56587 22.1013C6.64136 22.0692 6.72149 22.0534 6.8012 22.0534ZM17.1199 20.4762H17.1189C14.664 20.4747 11.8488 19.1045 9.39495 16.7172L9.38252 16.7048C6.99519 14.2511 5.62509 11.4357 5.62349 8.98083C5.62349 8.07696 6.08645 7.12633 6.92712 6.30359C7.50554 5.73759 8.35946 5.16641 8.96344 5.16641C9.89402 5.16641 10.1417 5.6065 10.5165 6.27266L10.5168 6.2731C10.608 6.43534 10.7114 6.61919 10.8452 6.84153C10.9194 6.9643 11.0215 7.11999 11.1298 7.28476C11.8172 8.3321 12.2501 9.06447 12.0139 9.67696C11.8287 10.1536 11.3388 10.5448 10.865 10.923L10.8619 10.9254L10.8619 10.9254C10.6867 11.0654 10.4375 11.2644 10.3268 11.385C10.4128 11.8632 11.0393 12.8756 12.1318 13.968C13.2228 15.059 14.234 15.6853 14.7135 15.7726C14.8338 15.6616 15.032 15.4135 15.171 15.2394L15.1726 15.2374C15.5523 14.7617 15.945 14.2698 16.4231 14.0857C16.5334 14.0432 16.6542 14.0215 16.7821 14.0215C17.3277 14.0215 17.9689 14.4147 18.815 14.97L18.8205 14.9737C18.9832 15.0804 19.1368 15.1812 19.2592 15.2551C19.4808 15.3884 19.6648 15.492 19.8272 15.5833L19.8274 15.5834C20.4934 15.9583 20.9333 16.2059 20.9333 17.1363C20.9333 17.74 20.3618 18.5938 19.7954 19.1722C18.9727 20.0122 18.0225 20.4754 17.1199 20.4762ZM10.2945 15.8053C12.4772 17.9266 15.028 19.1938 17.1191 19.1954C18.3835 19.1939 19.5863 17.5538 19.6526 17.1249C19.6521 17.0373 19.647 16.9913 19.6433 16.9695C19.578 16.9127 19.3775 16.8 19.199 16.6995L19.1959 16.6978L19.1957 16.6977C19.0348 16.6071 18.8348 16.4945 18.5979 16.3519C18.4526 16.2643 18.2872 16.1557 18.1121 16.0408L18.1116 16.0404C17.7796 15.8225 17.1131 15.3851 16.8292 15.3119C16.6542 15.4345 16.3472 15.8189 16.1738 16.036L16.1738 16.036L16.1735 16.0365C15.7341 16.5868 15.3547 17.0621 14.8196 17.064C13.516 17.0627 11.7396 15.3871 11.2261 14.8737C10.7126 14.3602 9.03709 12.5837 9.03574 11.2829C9.03574 10.7445 9.51296 10.3635 10.0656 9.92225L10.0658 9.92205C10.2818 9.74971 10.6643 9.44437 10.7876 9.26985C10.7139 8.98538 10.2766 8.31916 10.059 7.98768C9.94404 7.81259 9.83549 7.64717 9.74833 7.50289C9.60423 7.26344 9.49107 7.06241 9.4002 6.90084C9.29978 6.72235 9.18694 6.5219 9.13027 6.45658C9.10843 6.45287 9.06238 6.44774 8.97471 6.4473C8.5455 6.51319 6.90425 7.71576 6.90425 8.98045C6.90573 11.0713 8.17298 13.6223 10.2945 15.8053Z"/>
</symbol></svg>