<svg width="24" height="20" viewBox="0 0 24 20" fill="none" xmlns="http://www.w3.org/2000/svg">
<mask id="path-1-outside-1_0_2916" maskUnits="userSpaceOnUse" x="0" y="0" width="24" height="20" fill="black">
<rect fill="white" width="24" height="20"/>
<path fill-rule="evenodd" clip-rule="evenodd" d="M20 2L22 4L20 6L22 8L20 10L22 12L20 14L22 16L20 18L18 16L16 18L14 16L12 18L10 16L8 18L6 16L4 18L2 16L4 14L2 12L4 10L2 8L4 6L2 4L4 2L6 4L8 2L10 4L12 2L14 4L16 2L18 4L20 2ZM6 8L12 13L18 8V6L12 10L6 6V8Z"/>
</mask>
<path d="M22 4L23.0607 5.06066C23.6464 4.47487 23.6464 3.52513 23.0607 2.93934L22 4ZM20 2L21.0607 0.93934C20.4749 0.353553 19.5251 0.353553 18.9393 0.93934L20 2ZM20 6L18.9393 4.93934C18.3536 5.52513 18.3536 6.47487 18.9393 7.06066L20 6ZM22 8L23.0607 9.06066C23.6464 8.47487 23.6464 7.52513 23.0607 6.93934L22 8ZM20 10L18.9393 8.93934C18.3536 9.52513 18.3536 10.4749 18.9393 11.0607L20 10ZM22 12L23.0607 13.0607C23.6464 12.4749 23.6464 11.5251 23.0607 10.9393L22 12ZM20 14L18.9393 12.9393C18.3536 13.5251 18.3536 14.4749 18.9393 15.0607L20 14ZM22 16L23.0607 17.0607C23.6464 16.4749 23.6464 15.5251 23.0607 14.9393L22 16ZM20 18L18.9393 19.0607C19.5251 19.6464 20.4749 19.6464 21.0607 19.0607L20 18ZM18 16L19.0607 14.9393C18.4749 14.3536 17.5251 14.3536 16.9393 14.9393L18 16ZM16 18L14.9393 19.0607C15.5251 19.6464 16.4749 19.6464 17.0607 19.0607L16 18ZM14 16L15.0607 14.9393C14.4749 14.3536 13.5251 14.3536 12.9393 14.9393L14 16ZM12 18L10.9393 19.0607C11.5251 19.6464 12.4749 19.6464 13.0607 19.0607L12 18ZM10 16L11.0607 14.9393C10.4749 14.3536 9.52513 14.3536 8.93934 14.9393L10 16ZM8 18L6.93934 19.0607C7.52513 19.6464 8.47487 19.6464 9.06066 19.0607L8 18ZM6 16L7.06066 14.9393C6.47487 14.3536 5.52513 14.3536 4.93934 14.9393L6 16ZM4 18L2.93934 19.0607C3.52513 19.6464 4.47487 19.6464 5.06066 19.0607L4 18ZM2 16L0.93934 14.9393C0.353553 15.5251 0.353553 16.4749 0.93934 17.0607L2 16ZM4 14L5.06066 15.0607C5.64645 14.4749 5.64645 13.5251 5.06066 12.9393L4 14ZM2 12L0.93934 10.9393C0.353553 11.5251 0.353553 12.4749 0.93934 13.0607L2 12ZM4 10L5.06066 11.0607C5.64645 10.4749 5.64645 9.52513 5.06066 8.93934L4 10ZM2 8L0.93934 6.93934C0.353553 7.52513 0.353553 8.47487 0.93934 9.06066L2 8ZM4 6L5.06066 7.06066C5.64645 6.47487 5.64645 5.52513 5.06066 4.93934L4 6ZM2 4L0.93934 2.93934C0.353553 3.52513 0.353553 4.47487 0.93934 5.06066L2 4ZM4 2L5.06066 0.93934C4.47487 0.353553 3.52513 0.353553 2.93934 0.93934L4 2ZM6 4L4.93934 5.06066C5.52513 5.64645 6.47487 5.64645 7.06066 5.06066L6 4ZM8 2L9.06066 0.93934C8.47487 0.353553 7.52513 0.353553 6.93934 0.93934L8 2ZM10 4L8.93934 5.06066C9.52513 5.64645 10.4749 5.64645 11.0607 5.06066L10 4ZM12 2L13.0607 0.93934C12.4749 0.353553 11.5251 0.353553 10.9393 0.93934L12 2ZM14 4L12.9393 5.06066C13.5251 5.64645 14.4749 5.64645 15.0607 5.06066L14 4ZM16 2L17.0607 0.93934C16.4749 0.353553 15.5251 0.353553 14.9393 0.93934L16 2ZM18 4L16.9393 5.06066C17.5251 5.64645 18.4749 5.64645 19.0607 5.06066L18 4ZM12 13L11.0397 14.1523C11.596 14.6159 12.404 14.6159 12.9603 14.1523L12 13ZM6 8H4.5C4.5 8.44517 4.69773 8.86734 5.03972 9.15233L6 8ZM18 8L18.9603 9.15233C19.3023 8.86734 19.5 8.44517 19.5 8H18ZM18 6H19.5C19.5 5.44681 19.1955 4.93852 18.7078 4.67749C18.2201 4.41646 17.6282 4.44507 17.1679 4.75192L18 6ZM12 10L11.1679 11.2481C11.6718 11.584 12.3282 11.584 12.8321 11.2481L12 10ZM6 6L6.83205 4.75192C6.37177 4.44507 5.77995 4.41646 5.29221 4.67749C4.80448 4.93852 4.5 5.44681 4.5 6H6ZM23.0607 2.93934L21.0607 0.93934L18.9393 3.06066L20.9393 5.06066L23.0607 2.93934ZM21.0607 7.06066L23.0607 5.06066L20.9393 2.93934L18.9393 4.93934L21.0607 7.06066ZM23.0607 6.93934L21.0607 4.93934L18.9393 7.06066L20.9393 9.06066L23.0607 6.93934ZM21.0607 11.0607L23.0607 9.06066L20.9393 6.93934L18.9393 8.93934L21.0607 11.0607ZM23.0607 10.9393L21.0607 8.93934L18.9393 11.0607L20.9393 13.0607L23.0607 10.9393ZM21.0607 15.0607L23.0607 13.0607L20.9393 10.9393L18.9393 12.9393L21.0607 15.0607ZM23.0607 14.9393L21.0607 12.9393L18.9393 15.0607L20.9393 17.0607L23.0607 14.9393ZM21.0607 19.0607L23.0607 17.0607L20.9393 14.9393L18.9393 16.9393L21.0607 19.0607ZM16.9393 17.0607L18.9393 19.0607L21.0607 16.9393L19.0607 14.9393L16.9393 17.0607ZM17.0607 19.0607L19.0607 17.0607L16.9393 14.9393L14.9393 16.9393L17.0607 19.0607ZM12.9393 17.0607L14.9393 19.0607L17.0607 16.9393L15.0607 14.9393L12.9393 17.0607ZM13.0607 19.0607L15.0607 17.0607L12.9393 14.9393L10.9393 16.9393L13.0607 19.0607ZM8.93934 17.0607L10.9393 19.0607L13.0607 16.9393L11.0607 14.9393L8.93934 17.0607ZM9.06066 19.0607L11.0607 17.0607L8.93934 14.9393L6.93934 16.9393L9.06066 19.0607ZM4.93934 17.0607L6.93934 19.0607L9.06066 16.9393L7.06066 14.9393L4.93934 17.0607ZM5.06066 19.0607L7.06066 17.0607L4.93934 14.9393L2.93934 16.9393L5.06066 19.0607ZM0.93934 17.0607L2.93934 19.0607L5.06066 16.9393L3.06066 14.9393L0.93934 17.0607ZM2.93934 12.9393L0.93934 14.9393L3.06066 17.0607L5.06066 15.0607L2.93934 12.9393ZM0.93934 13.0607L2.93934 15.0607L5.06066 12.9393L3.06066 10.9393L0.93934 13.0607ZM2.93934 8.93934L0.93934 10.9393L3.06066 13.0607L5.06066 11.0607L2.93934 8.93934ZM0.93934 9.06066L2.93934 11.0607L5.06066 8.93934L3.06066 6.93934L0.93934 9.06066ZM2.93934 4.93934L0.93934 6.93934L3.06066 9.06066L5.06066 7.06066L2.93934 4.93934ZM0.93934 5.06066L2.93934 7.06066L5.06066 4.93934L3.06066 2.93934L0.93934 5.06066ZM2.93934 0.93934L0.93934 2.93934L3.06066 5.06066L5.06066 3.06066L2.93934 0.93934ZM7.06066 2.93934L5.06066 0.93934L2.93934 3.06066L4.93934 5.06066L7.06066 2.93934ZM6.93934 0.93934L4.93934 2.93934L7.06066 5.06066L9.06066 3.06066L6.93934 0.93934ZM11.0607 2.93934L9.06066 0.93934L6.93934 3.06066L8.93934 5.06066L11.0607 2.93934ZM10.9393 0.93934L8.93934 2.93934L11.0607 5.06066L13.0607 3.06066L10.9393 0.93934ZM15.0607 2.93934L13.0607 0.93934L10.9393 3.06066L12.9393 5.06066L15.0607 2.93934ZM14.9393 0.93934L12.9393 2.93934L15.0607 5.06066L17.0607 3.06066L14.9393 0.93934ZM19.0607 2.93934L17.0607 0.93934L14.9393 3.06066L16.9393 5.06066L19.0607 2.93934ZM18.9393 0.93934L16.9393 2.93934L19.0607 5.06066L21.0607 3.06066L18.9393 0.93934ZM12.9603 11.8477L6.96028 6.84767L5.03972 9.15233L11.0397 14.1523L12.9603 11.8477ZM17.0397 6.84767L11.0397 11.8477L12.9603 14.1523L18.9603 9.15233L17.0397 6.84767ZM16.5 6V8H19.5V6H16.5ZM12.8321 11.2481L18.8321 7.24808L17.1679 4.75192L11.1679 8.75192L12.8321 11.2481ZM5.16795 7.24808L11.1679 11.2481L12.8321 8.75192L6.83205 4.75192L5.16795 7.24808ZM7.5 8V6H4.5V8H7.5Z" fill="#00D7D9" mask="url(#path-1-outside-1_0_2916)"/>
</svg>
