<svg width="17" height="24" viewBox="0 0 17 24" fill="none" xmlns="http://www.w3.org/2000/svg">
<mask id="path-1-outside-1_0_2897" maskUnits="userSpaceOnUse" x="0" y="0" width="17" height="24" fill="black">
<rect fill="white" width="17" height="24"/>
<path fill-rule="evenodd" clip-rule="evenodd" d="M2 4C2 2.89543 2.89543 2 4 2H13C14.1046 2 15 2.89543 15 4V20C15 21.1046 14.1046 22 13 22H4C2.89543 22 2 21.1046 2 20V4ZM5 19C5 18.4477 5.44772 18 6 18H11C11.5523 18 12 18.4477 12 19C12 19.5523 11.5523 20 11 20H6C5.44772 20 5 19.5523 5 19ZM8.5 4C7.67157 4 7 4.67157 7 5.5C7 6.32843 7.67157 7 8.5 7C9.32843 7 10 6.32843 10 5.5C10 4.67157 9.32843 4 8.5 4Z"/>
</mask>
<path d="M4 0C1.79086 0 0 1.79086 0 4H4V4V0ZM13 0H4V4H13V0ZM17 4C17 1.79086 15.2091 0 13 0V4H17ZM17 20V4H13V20H17ZM13 24C15.2091 24 17 22.2091 17 20H13V24ZM4 24H13V20H4V24ZM0 20C0 22.2091 1.79086 24 4 24V20H4H0ZM0 4V20H4V4H0ZM6 16C4.34315 16 3 17.3431 3 19H7C7 19.5523 6.55229 20 6 20V16ZM11 16H6V20H11V16ZM14 19C14 17.3431 12.6569 16 11 16V20C10.4477 20 10 19.5523 10 19H14ZM11 22C12.6569 22 14 20.6569 14 19H10C10 18.4477 10.4477 18 11 18V22ZM6 22H11V18H6V22ZM3 19C3 20.6569 4.34315 22 6 22V18C6.55229 18 7 18.4477 7 19H3ZM9 5.5C9 5.77614 8.77614 6 8.5 6V2C6.567 2 5 3.567 5 5.5H9ZM8.5 5C8.77614 5 9 5.22386 9 5.5H5C5 7.433 6.567 9 8.5 9V5ZM8 5.5C8 5.22386 8.22386 5 8.5 5V9C10.433 9 12 7.433 12 5.5H8ZM8.5 6C8.22386 6 8 5.77614 8 5.5H12C12 3.567 10.433 2 8.5 2V6Z" fill="#00D7D9" mask="url(#path-1-outside-1_0_2897)"/>
</svg>
