<svg width="26" height="27" viewBox="0 0 26 27" fill="none" xmlns="http://www.w3.org/2000/svg">
<path fill-rule="evenodd" clip-rule="evenodd" d="M0.64716 26.3262C0.485584 26.3262 0.326441 26.2651 0.204891 26.1491C0.0200034 25.9727 -0.0422447 25.7032 0.0463884 25.4636L2.15866 19.7541C0.611809 17.333 -0.112562 14.4534 0.115745 11.608C0.356412 8.60888 1.65069 5.79555 3.76002 3.68622C6.1371 1.30913 9.31989 0 12.7221 0C16.2465 0 19.5769 1.3895 22.1001 3.9126C27.2189 9.03143 27.3205 17.2587 22.3266 22.2527C19.9498 24.6294 16.7672 25.9385 13.3656 25.9385H13.3653C10.8996 25.9384 8.49831 25.2493 6.3982 23.9422L0.897113 26.2754C0.816421 26.3096 0.731438 26.3262 0.64716 26.3262ZM6.8012 22.0534C6.91745 22.0534 7.03297 22.087 7.13294 22.1528C8.97664 23.3672 11.1104 24.0091 13.3035 24.0092C16.1842 24.0093 18.8777 22.9024 20.8878 20.8923C25.1194 16.6606 25.0238 9.67964 20.6746 5.33051C18.5269 3.18274 15.694 2 12.6979 2C9.81685 2 7.12312 3.10707 5.11288 5.11737C1.46468 8.76557 0.964417 14.5952 3.92339 18.9789C4.03204 19.1399 4.05652 19.3433 3.98911 19.5254L2.37924 23.877L6.56587 22.1013C6.64136 22.0692 6.72149 22.0534 6.8012 22.0534ZM17.1199 20.4762H17.1189C14.664 20.4747 11.8488 19.1045 9.39495 16.7172L9.38252 16.7048C6.99519 14.2511 5.62509 11.4357 5.62349 8.98083C5.62349 8.07696 6.08645 7.12633 6.92712 6.30359C7.50554 5.73759 8.35946 5.16641 8.96344 5.16641C9.89402 5.16641 10.1417 5.6065 10.5165 6.27266L10.5168 6.2731C10.608 6.43534 10.7114 6.61919 10.8452 6.84153C10.9194 6.9643 11.0215 7.11999 11.1298 7.28476C11.8172 8.3321 12.2501 9.06447 12.0139 9.67696C11.8287 10.1536 11.3388 10.5448 10.865 10.923L10.8619 10.9254L10.8619 10.9254C10.6867 11.0654 10.4375 11.2644 10.3268 11.385C10.4128 11.8632 11.0393 12.8756 12.1318 13.968C13.2228 15.059 14.234 15.6853 14.7135 15.7726C14.8338 15.6616 15.032 15.4135 15.171 15.2394L15.1726 15.2374C15.5523 14.7617 15.945 14.2698 16.4231 14.0857C16.5334 14.0432 16.6542 14.0215 16.7821 14.0215C17.3277 14.0215 17.9689 14.4147 18.815 14.97L18.8205 14.9737C18.9832 15.0804 19.1368 15.1812 19.2592 15.2551C19.4808 15.3884 19.6648 15.492 19.8272 15.5833L19.8274 15.5834C20.4934 15.9583 20.9333 16.2059 20.9333 17.1363C20.9333 17.74 20.3618 18.5938 19.7954 19.1722C18.9727 20.0122 18.0225 20.4754 17.1199 20.4762ZM10.2945 15.8053C12.4772 17.9266 15.028 19.1938 17.1191 19.1954C18.3835 19.1939 19.5863 17.5538 19.6526 17.1249C19.6521 17.0373 19.647 16.9913 19.6433 16.9695C19.578 16.9127 19.3775 16.8 19.199 16.6995L19.1959 16.6978L19.1957 16.6977C19.0348 16.6071 18.8348 16.4945 18.5979 16.3519C18.4526 16.2643 18.2872 16.1557 18.1121 16.0408L18.1116 16.0404C17.7796 15.8225 17.1131 15.3851 16.8292 15.3119C16.6542 15.4345 16.3472 15.8189 16.1738 16.036L16.1738 16.036L16.1735 16.0365C15.7341 16.5868 15.3547 17.0621 14.8196 17.064C13.516 17.0627 11.7396 15.3871 11.2261 14.8737C10.7126 14.3602 9.03709 12.5837 9.03574 11.2829C9.03574 10.7445 9.51296 10.3635 10.0656 9.92225L10.0658 9.92205C10.2818 9.74971 10.6643 9.44437 10.7876 9.26985C10.7139 8.98538 10.2766 8.31916 10.059 7.98768C9.94404 7.81259 9.83549 7.64717 9.74833 7.50289C9.60423 7.26344 9.49107 7.06241 9.4002 6.90084C9.29978 6.72235 9.18694 6.5219 9.13027 6.45658C9.10843 6.45287 9.06238 6.44774 8.97471 6.4473C8.5455 6.51319 6.90425 7.71576 6.90425 8.98045C6.90573 11.0713 8.17298 13.6223 10.2945 15.8053Z" fill="black"/>
</svg>
