<svg width="1920" height="189" viewBox="0 0 1920 189" fill="none" xmlns="http://www.w3.org/2000/svg">
<path fill-rule="evenodd" clip-rule="evenodd" d="M1650.15 147.809C1625.92 147.809 1632.36 152.239 1629.65 153.636C1615.4 135.358 1603.16 141.359 1576.6 146.417C1571.52 147.383 1566.73 148.853 1562.25 150.732C1552.75 148.081 1547.42 140.368 1532.57 141.275C1517.71 142.182 1519.61 144.809 1514.09 147.809C1510.65 135.658 1498.78 127.108 1485.01 125.71C1480.95 113.749 1468.34 105.68 1454.24 105.351C1454.07 104.185 1453.85 103.021 1453.55 101.854C1448.26 81.3052 1424.52 68.3508 1400.55 72.9152C1387.9 75.3216 1377.76 82.1368 1371.73 91.0371C1365.77 84.6919 1355.94 81.4072 1346.02 83.2942C1339.74 84.4933 1334.51 87.5605 1330.94 91.6579C1326.01 90.2764 1320.6 89.9472 1315.17 90.9823C1302.84 93.33 1294 101.872 1292.06 111.933C1289.31 111.734 1286.47 111.882 1283.62 112.423C1271.06 114.814 1262.38 124.116 1261.78 134.631C1253.38 119.156 1233.33 110.197 1213.07 114.051C1189.65 118.512 1174.86 138.397 1180.03 158.468C1181.8 165.313 1185.69 171.265 1190.94 176C1178.65 163.003 1689.73 172.912 1689.73 172.912C1692.45 166.498 1674.38 147.809 1650.15 147.809Z" fill="white"/>
<path opacity="0.5" fill-rule="evenodd" clip-rule="evenodd" d="M1218.85 110.809C1243.08 110.809 1236.64 115.239 1239.35 116.636C1253.6 98.3576 1265.84 104.359 1292.4 109.417C1297.48 110.383 1302.27 111.853 1306.75 113.732C1316.25 111.081 1321.58 103.368 1336.43 104.275C1351.29 105.182 1349.39 107.809 1354.91 110.809C1358.35 98.6575 1370.22 90.1082 1383.99 88.7102C1388.05 76.7486 1400.66 68.6803 1414.76 68.3509C1414.93 67.1852 1415.15 66.0213 1415.45 64.8537C1420.74 44.3052 1444.48 31.3508 1468.45 35.9152C1481.1 38.3216 1491.24 45.1368 1497.27 54.0371C1503.23 47.6919 1513.06 44.4072 1522.98 46.2942C1529.26 47.4933 1534.49 50.5605 1538.06 54.6579C1542.99 53.2764 1548.4 52.9472 1553.83 53.9823C1566.16 56.33 1575 64.872 1576.94 74.9333C1579.69 74.734 1582.53 74.8821 1585.38 75.4235C1597.94 77.8143 1606.62 87.1155 1607.22 97.6315C1615.62 82.1561 1635.67 73.1971 1655.93 77.0515C1679.35 81.512 1694.14 101.397 1688.97 121.468C1687.2 128.313 1683.31 134.265 1678.06 139C1690.35 126.003 1179.27 135.912 1179.27 135.912C1176.55 129.498 1194.62 110.809 1218.85 110.809Z" fill="white"/>
<path fill-rule="evenodd" clip-rule="evenodd" d="M471.148 104.809C446.916 104.809 453.357 109.239 450.648 110.636C436.397 92.3576 424.163 98.3591 397.599 103.417C392.521 104.383 387.728 105.853 383.251 107.732C373.746 105.081 368.425 97.3678 353.566 98.2748C338.707 99.1817 340.612 101.809 335.09 104.809C331.654 92.6575 319.784 84.1082 306.012 82.7102C301.951 70.7486 289.342 62.6803 275.241 62.3509C275.071 61.1852 274.853 60.0213 274.553 58.8537C269.256 38.3052 245.522 25.3508 221.545 29.9152C208.904 32.3216 198.761 39.1368 192.731 48.0371C186.766 41.6919 176.937 38.4072 167.021 40.2942C160.739 41.4933 155.515 44.5605 151.936 48.6579C147.005 47.2764 141.603 46.9472 136.166 47.9823C123.84 50.33 114.998 58.872 113.062 68.9333C110.306 68.734 107.465 68.8821 104.619 69.4235C92.0568 71.8143 83.3831 81.1155 82.7818 91.6315C74.3792 76.1561 54.3272 67.1971 34.0714 71.0515C10.6489 75.512 -4.14207 95.3971 1.03169 115.468C2.79652 122.313 6.69251 128.265 11.9395 133C-0.346401 120.003 510.729 129.912 510.729 129.912C513.446 123.498 495.381 104.809 471.148 104.809Z" fill="white"/>
<path fill-rule="evenodd" clip-rule="evenodd" d="M1201.01 109.665C1195.64 107.324 1188.67 106.267 1181.59 107.111C1178.93 107.429 1176.47 107.999 1174.24 108.754C1162.92 98.45 1141.63 92.7276 1119.91 95.3157C1115.76 95.8101 1111.84 96.5877 1108.16 97.5959C1100.46 96.0371 1091.98 95.6222 1083.41 96.643C1077.9 97.2991 1072.81 98.4997 1068.26 100.123C1065.66 93.3255 1056.13 88.4613 1044.94 87.5639C1041.82 80.8664 1031.68 76.2638 1020.2 75.9589C1020.08 75.3081 1019.92 74.6579 1019.7 74.005C1015.71 62.514 996.593 55.094 976.993 57.4297C966.659 58.6612 958.29 62.3698 953.236 67.2752C948.48 63.6896 940.528 61.7753 932.422 62.741C927.287 63.3547 922.983 65.0181 920.003 67.2695C916.009 66.4575 911.615 66.2276 907.171 66.7573C897.095 67.9588 889.757 72.6404 888.019 78.2278C885.778 78.093 883.462 78.151 881.136 78.428C870.866 79.6515 863.654 84.7575 862.995 90.6096C856.4 81.9175 840.213 76.7546 823.655 78.727C804.509 81.0096 792.144 91.958 796.036 103.182C796.036 103.182 796.194 103.365 798.395 105.663C784.714 100.637 773.016 98.9428 759.415 102.124C745.815 105.305 736.233 111.193 730.879 118.555C727.322 117.988 723.5 117.873 719.64 118.333C718.017 118.525 716.469 118.813 715 119.175L1225.76 125C1228.08 121.451 1213.03 112.976 1201.01 109.665Z" fill="white"/>
<path opacity="0.720238" fill-rule="evenodd" clip-rule="evenodd" d="M1427.01 108.665C1421.64 106.324 1414.67 105.267 1407.59 106.111C1404.93 106.429 1402.47 106.999 1400.24 107.754C1388.92 97.45 1367.63 91.7276 1345.91 94.3157C1341.76 94.8101 1337.84 95.5877 1334.16 96.5959C1326.46 95.0371 1317.98 94.6222 1309.41 95.643C1303.9 96.2991 1298.81 97.4997 1294.26 99.1235C1291.66 92.3255 1282.13 87.4613 1270.94 86.5639C1267.82 79.8664 1257.68 75.2638 1246.2 74.9589C1246.08 74.3081 1245.92 73.6579 1245.7 73.005C1241.71 61.514 1222.59 54.094 1202.99 56.4297C1192.66 57.6612 1184.29 61.3698 1179.24 66.2752C1174.48 62.6896 1166.53 60.7753 1158.42 61.741C1153.29 62.3547 1148.98 64.0181 1146 66.2695C1142.01 65.4575 1137.62 65.2276 1133.17 65.7573C1123.09 66.9588 1115.76 71.6404 1114.02 77.2278C1111.78 77.093 1109.46 77.151 1107.14 77.428C1096.87 78.6515 1089.65 83.7575 1089 89.6096C1082.4 80.9175 1066.21 75.7546 1049.66 77.727C1030.51 80.0096 1018.14 90.958 1022.04 102.182C1022.04 102.182 1022.19 102.365 1024.39 104.663C1010.71 99.6366 999.016 97.9428 985.415 101.124C971.815 104.305 962.233 110.193 956.879 117.555C953.322 116.988 949.5 116.873 945.64 117.333C944.017 117.525 942.469 117.813 941 118.175L1451.76 124C1454.08 120.451 1439.03 111.976 1427.01 108.665Z" fill="white"/>
<path fill-rule="evenodd" clip-rule="evenodd" d="M1419.82 137.683C1425.81 133.207 1433.57 131.187 1441.45 132.8C1444.41 133.409 1447.16 134.498 1449.64 135.941C1462.23 116.243 1485.95 105.303 1510.13 110.251C1514.75 111.196 1519.12 112.682 1523.22 114.61C1531.79 111.63 1541.24 110.837 1550.77 112.788C1556.91 114.042 1562.58 116.338 1567.64 119.442C1570.54 106.446 1581.15 97.1466 1593.61 95.431C1597.08 82.627 1608.37 73.8279 1621.16 73.2449C1621.29 72.0007 1621.47 70.7578 1621.72 69.5096C1626.15 47.5415 1647.45 33.3561 1669.27 37.8215C1680.78 40.1757 1690.1 47.2658 1695.72 56.6438C1701.02 49.7889 1709.87 46.1293 1718.9 47.9754C1724.62 49.1487 1729.41 52.3288 1732.73 56.6328C1737.18 55.0805 1742.07 54.641 1747.02 55.6536C1758.24 57.9506 1766.41 66.9007 1768.34 77.5826C1770.84 77.3248 1773.42 77.4358 1776.01 77.9654C1787.44 80.3043 1795.47 90.0657 1796.21 101.254C1803.55 84.6364 1821.57 74.7662 1840.01 78.5368C1861.33 82.9008 1875.1 103.831 1870.77 125.288C1869.29 132.607 1865.86 139.009 1861.19 144.137C1872.1 130.096 1890.3 122.544 1908.84 126.338C1924.86 129.615 1937.36 140.604 1943.32 154.678C1947.28 153.595 1951.54 153.375 1955.83 154.254C1957.64 154.622 1959.36 155.172 1961 155.865L1392.27 167C1389.69 160.214 1406.44 144.014 1419.82 137.683Z" fill="white"/>
<path opacity="0.5" fill-rule="evenodd" clip-rule="evenodd" d="M1933.18 100.683C1927.19 96.2068 1919.43 94.1868 1911.55 95.8004C1908.59 96.4089 1905.84 97.4978 1903.36 98.9407C1890.77 79.2426 1867.05 68.3028 1842.87 73.2506C1838.25 74.1958 1833.88 75.6824 1829.78 77.6098C1821.21 74.6297 1811.76 73.8366 1802.23 75.7881C1796.09 77.0425 1790.42 79.3376 1785.36 82.4419C1782.46 69.4457 1771.85 60.1466 1759.39 58.431C1755.92 45.627 1744.63 36.8279 1731.84 36.2449C1731.71 35.0007 1731.53 33.7578 1731.28 32.5096C1726.85 10.5415 1705.55 -3.64387 1683.73 0.821531C1672.22 3.17573 1662.9 10.2658 1657.28 19.6438C1651.98 12.7889 1643.13 9.1293 1634.1 10.9754C1628.38 12.1487 1623.59 15.3288 1620.27 19.6328C1615.82 18.0805 1610.93 17.641 1605.98 18.6536C1594.76 20.9506 1586.59 29.9007 1584.66 40.5826C1582.16 40.3248 1579.58 40.4358 1576.99 40.9654C1565.56 43.3043 1557.53 53.0657 1556.79 64.2536C1549.45 47.6364 1531.43 37.7662 1512.99 41.5368C1491.67 45.9008 1477.9 66.8315 1482.23 88.2885C1483.71 95.6068 1487.14 102.009 1491.81 107.137C1480.9 93.0957 1462.7 85.5443 1444.16 89.3378C1428.14 92.6147 1415.64 103.604 1409.68 117.678C1405.72 116.595 1401.46 116.375 1397.17 117.254C1395.36 117.622 1393.64 118.172 1392 118.865L1960.73 130C1963.31 123.214 1946.56 107.014 1933.18 100.683Z" fill="white"/>
<path fill-rule="evenodd" clip-rule="evenodd" d="M264.823 153.683C270.809 149.207 278.569 147.187 286.449 148.8C289.415 149.409 292.157 150.498 294.638 151.941C307.235 132.243 330.948 121.303 355.127 126.251C359.749 127.196 364.122 128.682 368.215 130.61C376.788 127.63 386.237 126.837 395.769 128.788C401.911 130.042 407.579 132.338 412.64 135.442C415.54 122.446 426.151 113.147 438.615 111.431C442.084 98.627 453.375 89.8279 466.156 89.2449C466.289 88.0007 466.466 86.7578 466.717 85.5096C471.154 63.5415 492.446 49.3561 514.27 53.8215C525.776 56.1757 535.096 63.2658 540.723 72.6438C546.02 65.7889 554.874 62.1293 563.9 63.9754C569.618 65.1487 574.41 68.3288 577.729 72.6328C582.176 71.0805 587.068 70.641 592.018 71.6536C603.237 73.9506 611.407 82.9007 613.342 93.5826C615.838 93.3248 618.417 93.4358 621.008 93.9654C632.442 96.3043 640.474 106.066 641.207 117.254C648.55 100.636 666.574 90.7662 685.012 94.5368C706.332 98.9008 720.1 119.831 715.766 141.288C714.288 148.607 710.861 155.009 706.187 160.137C717.097 146.096 735.303 138.544 753.835 142.338C769.859 145.615 782.357 156.604 788.318 170.678C792.279 169.595 796.535 169.375 800.834 170.254C802.641 170.622 804.364 171.172 806 171.865L237.265 183C234.687 176.214 251.44 160.014 264.823 153.683Z" fill="white"/>
<path opacity="0.5" fill-rule="evenodd" clip-rule="evenodd" d="M920.177 126.908C914.191 122.467 906.431 120.462 898.551 122.063C895.585 122.667 892.843 123.748 890.362 125.18C877.765 105.633 854.052 94.7774 829.873 99.6872C825.251 100.625 820.878 102.1 816.785 104.013C808.212 101.056 798.763 100.269 789.231 102.205C783.089 103.45 777.421 105.727 772.36 108.808C769.46 95.9115 758.849 86.6839 746.385 84.9816C742.916 72.276 731.625 63.5446 718.844 62.9661C718.711 61.7315 718.534 60.4981 718.283 59.2595C713.846 37.4604 692.554 23.3842 670.73 27.8152C659.224 30.1513 649.904 37.1868 644.277 46.4927C638.98 39.6905 630.126 36.0591 621.1 37.891C615.382 39.0553 610.59 42.2108 607.271 46.4818C602.824 44.9414 597.932 44.5053 592.982 45.5101C581.763 47.7894 573.593 56.6707 571.658 67.2704C569.162 67.0146 566.583 67.1248 563.992 67.6503C552.558 69.9712 544.526 79.6575 543.793 90.7593C536.45 74.27 518.426 64.4757 499.988 68.2173C478.668 72.5477 464.9 93.3174 469.234 114.609C470.712 121.871 474.139 128.224 478.813 133.313C467.903 119.38 449.697 111.886 431.165 115.651C415.141 118.902 402.643 129.807 396.682 143.773C392.721 142.698 388.465 142.48 384.166 143.352C382.359 143.717 380.636 144.263 379 144.95L947.735 156C950.313 149.267 933.56 133.19 920.177 126.908Z" fill="white"/>
<path fill-rule="evenodd" clip-rule="evenodd" d="M502.823 159.683C508.809 155.207 516.569 153.187 524.449 154.8C527.415 155.409 530.157 156.498 532.638 157.941C545.235 138.243 568.948 127.303 593.127 132.251C597.749 133.196 602.122 134.682 606.215 136.61C614.788 133.63 624.237 132.837 633.769 134.788C639.911 136.042 645.579 138.338 650.64 141.442C653.54 128.446 664.151 119.147 676.615 117.431C680.084 104.627 691.375 95.8279 704.156 95.2449C704.289 94.0007 704.466 92.7578 704.717 91.5096C709.154 69.5415 730.446 55.3561 752.27 59.8215C763.776 62.1757 773.096 69.2658 778.723 78.6438C784.02 71.7889 792.874 68.1293 801.9 69.9754C807.618 71.1487 812.41 74.3288 815.729 78.6328C820.176 77.0805 825.068 76.641 830.018 77.6536C841.237 79.9506 849.407 88.9007 851.342 99.5826C853.838 99.3248 856.417 99.4358 859.008 99.9654C870.442 102.304 878.474 112.066 879.207 123.254C886.55 106.636 904.574 96.7662 923.012 100.537C944.332 104.901 958.1 125.831 953.766 147.288C952.288 154.607 948.861 161.009 944.187 166.137C955.097 152.096 973.303 144.544 991.835 148.338C1007.86 151.615 1020.36 162.604 1026.32 176.678C1030.28 175.595 1034.54 175.375 1038.83 176.254C1040.64 176.622 1042.36 177.172 1044 177.865L475.265 189C472.687 182.214 489.44 166.014 502.823 159.683Z" fill="white"/>
</svg>
