<svg width="63" height="63" viewBox="0 0 63 63" fill="none" xmlns="http://www.w3.org/2000/svg">
<path fill-rule="evenodd" clip-rule="evenodd" d="M31.5 0C14.1309 0 0 14.1309 0 31.5C0 48.8691 14.1309 63 31.5 63C48.8691 63 63 48.8691 63 31.5C63 14.1309 48.8691 0 31.5 0ZM31.5 60.9C15.2886 60.9 2.1 47.7114 2.1 31.5C2.1 15.2886 15.2886 2.1 31.5 2.1C47.7114 2.1 60.9 15.2886 60.9 31.5C60.9 47.7114 47.7114 60.9 31.5 60.9ZM31.5 4.2C16.4468 4.2 4.2 16.4468 4.2 31.5C4.2 46.5538 16.4468 58.8 31.5 58.8C46.5538 58.8 58.8 46.5538 58.8 31.5C58.8 16.4468 46.5538 4.2 31.5 4.2ZM6.32666 32.55H9.45C10.0299 32.55 10.5 32.0799 10.5 31.5C10.5 30.9201 10.0299 30.45 9.45 30.45H6.32666C6.58942 24.0781 9.22948 18.3126 13.3813 14.0124L16.0048 16.6354C16.2099 16.8405 16.4785 16.943 16.7472 16.943C17.0158 16.943 17.2845 16.8405 17.4896 16.6354C17.8997 16.2253 17.8997 15.5603 17.4896 15.1507L14.9014 12.5629C19.0928 8.8845 24.5075 6.57173 30.45 6.32666V9.45C30.45 10.0299 30.9201 10.5 31.5 10.5C32.0799 10.5 32.55 10.0299 32.55 9.45V6.32666C38.6505 6.57827 44.1994 9.00402 48.4348 12.8543L46.1385 15.1507C45.7283 15.5608 45.7283 16.2253 46.1385 16.6354C46.3436 16.8405 46.6122 16.943 46.8809 16.943C47.1495 16.943 47.4182 16.8405 47.6232 16.6354L49.925 14.3337C53.9006 18.5979 56.4171 24.2359 56.6733 30.45H53.55C52.9696 30.45 52.5 30.9201 52.5 31.5C52.5 32.0799 52.9696 32.55 53.55 32.55H56.6733C56.4174 38.7566 53.907 44.3885 49.9398 48.6509L47.6232 46.3343C47.2131 45.9242 46.5486 45.9242 46.1385 46.3343C45.7283 46.7445 45.7283 47.4089 46.1385 47.8191L48.4503 50.131C44.2129 53.9896 38.6581 56.4214 32.55 56.6733V53.55C32.55 52.9696 32.0799 52.5 31.5 52.5C30.9201 52.5 30.45 52.9696 30.45 53.55V56.6733C24.4999 56.428 19.0789 54.1096 14.8852 50.423L17.4896 47.8191C17.8997 47.4089 17.8997 46.7445 17.4896 46.3343C17.0794 45.9242 16.415 45.9242 16.0048 46.3343L13.3665 48.9721C9.2232 44.6735 6.58916 38.9143 6.32666 32.55ZM31.5 34.65C32.0753 34.65 32.6079 34.4836 33.0726 34.2132L39.2899 38.6542C39.4745 38.7864 39.6877 38.85 39.899 38.85C40.2271 38.85 40.5491 38.6972 40.7542 38.4101C41.0915 37.9384 40.9818 37.2822 40.5101 36.9459L34.4383 32.6084C34.5694 32.2624 34.65 31.8914 34.65 31.5C34.65 30.133 33.7696 28.9783 32.55 28.5435V15.75C32.55 15.1701 32.0799 14.7 31.5 14.7C30.9201 14.7 30.45 15.1701 30.45 15.75V28.5435C29.2304 28.9783 28.35 30.133 28.35 31.5C28.35 33.237 29.763 34.65 31.5 34.65ZM31.5 30.45C32.0788 30.45 32.55 30.9212 32.55 31.5C32.55 32.0788 32.0788 32.55 31.5 32.55C30.9212 32.55 30.45 32.0788 30.45 31.5C30.45 30.9212 30.9212 30.45 31.5 30.45Z" fill="url(#paint0_linear_35_1163)"/>
<defs>
<linearGradient id="paint0_linear_35_1163" x1="0" y1="0" x2="0" y2="63" gradientUnits="userSpaceOnUse">
<stop stop-color="#64C1BE"/>
<stop offset="1" stop-color="#28ACB9"/>
</linearGradient>
</defs>
</svg>
