<svg width="64" height="68" viewBox="0 0 64 68" fill="none" xmlns="http://www.w3.org/2000/svg">
<path fill-rule="evenodd" clip-rule="evenodd" d="M20.4059 62.79C21.9632 63.467 23.6559 64.0087 25.2808 64.4149L24.6715 67.0555C22.8434 66.6493 21.0153 66.0399 19.3226 65.2951L20.4059 62.79ZM60.6917 34.6238L63.4 34.4884C63.2646 32.5926 62.9938 30.6968 62.5875 28.8687L59.9469 29.5457C60.2855 31.1707 60.5563 32.9311 60.6917 34.6238ZM4.2916 44.4413L1.71873 45.1861C2.26039 47.0142 2.93746 48.7746 3.74995 50.4673L6.18741 49.2485C5.44263 47.6913 4.76555 46.134 4.2916 44.4413ZM5.51033 53.5141C6.52594 55.0714 7.67696 56.5609 9.03111 57.9828L10.9946 56.1547C9.8436 54.8682 8.76028 53.5141 7.81238 52.0922L5.51033 53.5141ZM50.5356 10.994C49.0461 9.91064 47.4211 8.89503 45.7284 8.08255L44.5097 10.52C46.067 11.2648 47.5565 12.145 48.9107 13.1606L50.5356 10.994ZM3.3437 39.431L3.20829 37.0612L0.5 37.1966L0.635414 39.6341C0.703122 40.3112 0.770829 41.056 0.906243 41.733L3.54682 41.2591C3.47912 40.6497 3.3437 40.0404 3.3437 39.431ZM58.9313 26.4312L61.5042 25.4833C60.8271 23.7229 60.0146 22.0302 59.0667 20.4053L56.7647 21.7594C57.5772 23.249 58.322 24.8062 58.9313 26.4312ZM42.4785 6.7284C40.7181 6.11904 38.89 5.64509 36.9942 5.30655L36.5879 7.94713C38.2806 8.21796 39.9733 8.62421 41.5983 9.23357L42.4785 6.7284ZM11.5363 60.4202C12.9581 61.639 14.5154 62.7223 16.1404 63.6702L17.4945 61.3004C16.005 60.4202 14.5831 59.4046 13.2967 58.3213L11.5363 60.4202ZM56.9001 50.7381L59.2699 52.0922C60.2178 50.4673 61.0302 48.7069 61.6396 46.9465L59.0667 46.0663C58.4574 47.6913 57.7126 49.2485 56.9001 50.7381ZM51.6867 57.3057L53.5147 59.2692C54.8689 57.9828 56.1553 56.5609 57.2386 55.0714L55.072 53.4464C54.1241 54.8682 52.9054 56.1547 51.6867 57.3057ZM54.9366 19.1188L57.1032 17.4939C55.9522 16.0043 54.6658 14.5824 53.3116 13.296L51.4835 15.2595C52.7023 16.4105 53.8533 17.697 54.9366 19.1188ZM60.6917 37.8737C60.624 39.5664 60.3532 41.3268 59.9469 43.0195L62.5875 43.6288C62.9938 41.8007 63.2646 39.9049 63.4 38.0091L60.6917 37.8737ZM28.5308 64.9566L28.1922 67.6649C29.411 67.8003 30.6974 67.868 31.9161 67.868C32.5255 67.868 33.2026 67.868 33.8119 67.8003L33.6765 65.092C31.9839 65.2274 30.2235 65.1597 28.5308 64.9566ZM36.8588 64.7535L37.3327 67.3941C39.1608 67.0555 41.0566 66.5816 42.817 65.9045L41.8691 63.3316C40.2441 64.0087 38.5515 64.4827 36.8588 64.7535ZM44.8482 62.1129L46.067 64.5504C47.7596 63.7379 49.3846 62.7223 50.8742 61.5712L49.2492 59.4046C47.8273 60.4879 46.3378 61.3681 44.8482 62.1129ZM24.5361 11.8064C24.1298 12.4158 24.2652 13.296 24.9423 13.7022C25.1454 13.8377 25.4163 13.9054 25.6871 13.9054C26.0933 13.9054 26.5673 13.7022 26.8381 13.296L31.3068 6.59299C31.713 5.98362 31.5776 5.10343 30.9005 4.69719L24.1975 0.228512C23.5882 -0.177731 22.708 -0.042317 22.3017 0.634755C21.8955 1.24412 22.0309 2.12431 22.708 2.53056L26.9058 5.30655C13.0258 7.6086 2.05727 19.0511 0.635414 33.1342L3.3437 33.405C4.69785 20.6084 14.5154 10.1815 27.1089 8.08255L24.5361 11.8064ZM50.8742 33.6759V39.3633C50.8742 41.1914 49.3846 42.6132 47.6242 42.6132H38.0775V52.1599C38.0775 53.988 36.5879 55.4099 34.8276 55.4099H29.1402C27.3121 55.4099 25.8902 53.9203 25.8902 52.1599V42.6132H16.3435C14.5154 42.6132 13.0935 41.1237 13.0935 39.3633V33.6759C13.0935 31.8478 14.5831 30.4259 16.3435 30.4259H25.8902V20.8792C25.8902 19.0511 27.3798 17.6293 29.1402 17.6293H34.8276C36.6557 17.6293 38.0775 19.1188 38.0775 20.8792V30.4259H47.5565C49.3846 30.3582 50.8742 31.8478 50.8742 33.6759ZM48.1659 33.6759C48.1659 33.3373 47.8951 33.1342 47.6242 33.1342H35.3692V20.8792C35.3692 20.5407 35.0984 20.3376 34.8276 20.3376H29.1402C28.8016 20.3376 28.5985 20.6084 28.5985 20.8792V33.1342H16.3435C16.005 33.1342 15.8018 33.405 15.8018 33.6759V39.3633C15.8018 39.7018 16.0727 39.9049 16.3435 39.9049H28.5985V52.1599C28.5985 52.4985 28.8693 52.7016 29.1402 52.7016H34.8276C35.1661 52.7016 35.3692 52.4308 35.3692 52.1599V39.9049H47.5565C47.8951 39.9049 48.0982 39.6341 48.0982 39.3633V33.6759H48.1659Z" fill="url(#paint0_linear_35_1205)"/>
<defs>
<linearGradient id="paint0_linear_35_1205" x1="0.5" y1="0" x2="0.5" y2="67.868" gradientUnits="userSpaceOnUse">
<stop stop-color="#64C1BE"/>
<stop offset="1" stop-color="#28ACB9"/>
</linearGradient>
</defs>
</svg>
