<svg width="160" height="160" viewBox="0 0 160 160" fill="none" xmlns="http://www.w3.org/2000/svg">
<path fill-rule="evenodd" clip-rule="evenodd" d="M90.7039 18.5716V35.5444C90.7074 35.6119 90.7092 35.6795 90.7092 35.7471V47.5164C91.5166 47.7582 92.324 48.0321 93.1296 48.338C93.9369 48.6439 94.7265 48.9729 95.493 49.3268C95.4948 49.3286 95.4948 49.3286 95.4948 49.3286L95.4966 49.3268L95.493 49.3232L103.691 41.1249C104.328 40.4883 105.164 40.1699 106 40.1699C106.83 40.1699 107.664 40.4883 108.301 41.1249H108.308L118.84 51.6564V51.6636C119.476 52.3002 119.795 53.1343 119.795 53.9666C119.795 54.8024 119.476 55.6382 118.84 56.2749L111.367 63.7476C111.36 63.7547 111.358 63.7387 111.358 63.7476C111.358 63.7494 111.361 63.7458 111.365 63.7547C111.872 64.6421 112.332 65.5438 112.749 66.4561C113.156 67.3542 113.531 68.2878 113.867 69.2588C113.869 69.2659 113.865 69.2659 113.867 69.2677C113.874 69.273 113.862 69.2588 113.873 69.2588H124.217C125.117 69.2588 125.933 69.6251 126.526 70.2156C127.116 70.806 127.482 71.624 127.482 72.5239V87.4249H141.393C141.731 85.4936 142.663 83.765 143.991 82.4366C145.684 80.7435 148.023 79.6961 150.605 79.6961C153.187 79.6961 155.527 80.7435 157.219 82.4366C158.912 84.1296 159.959 86.4681 159.959 89.0503C159.959 91.6325 158.912 93.9729 157.219 95.6641C155.526 97.3571 153.187 98.4046 150.605 98.4046C148.023 98.4046 145.684 97.3571 143.991 95.6641C142.663 94.3357 141.731 92.6071 141.393 90.6758H124.422C124.354 90.6793 124.287 90.6811 124.217 90.6811H113.871C113.858 90.6811 113.873 90.6669 113.865 90.6722C113.864 90.674 113.867 90.674 113.865 90.6811C113.529 91.6503 113.154 92.584 112.747 93.4803V93.4856C112.34 94.3783 111.879 95.2782 111.363 96.1816C111.36 96.1887 111.356 96.1852 111.356 96.1887C111.358 96.1958 111.358 96.1798 111.365 96.1869L118.84 103.663V103.669C119.476 104.305 119.795 105.139 119.795 105.972C119.795 106.807 119.476 107.643 118.84 108.28L108.308 118.811C107.671 119.448 106.835 119.766 106 119.766C105.169 119.766 104.335 119.446 103.695 118.808L103.691 118.811L95.4948 110.615L95.4984 110.611L95.4966 110.61C95.4948 110.61 95.4966 110.611 95.4948 110.611C94.7283 110.963 93.9405 111.294 93.1331 111.598C92.3257 111.904 91.5166 112.178 90.7092 112.42V124.187C90.7092 125.087 90.3428 125.904 89.7524 126.496C89.162 127.086 88.3457 127.453 87.4459 127.453H72.5431V141.363C74.4744 141.701 76.203 142.633 77.5314 143.963C79.2244 145.656 80.2719 147.995 80.2719 150.577C80.2719 153.159 79.2244 155.498 77.5314 157.191C75.8384 158.884 73.4999 159.931 70.9177 159.931C68.3355 159.931 65.9951 158.884 64.3039 157.191C62.6109 155.498 61.5634 153.159 61.5634 150.577C61.5634 147.993 62.6109 145.654 64.3039 143.963C65.6341 142.633 67.3609 141.703 69.2922 141.363V124.392C69.2869 124.324 69.2851 124.257 69.2851 124.187V112.418C68.4777 112.176 67.6703 111.902 66.8647 111.597C66.0556 111.291 65.2678 110.962 64.5013 110.608C64.4995 110.606 64.5013 110.606 64.4995 110.606L64.4977 110.608L64.5013 110.611L56.3048 118.81C55.6681 119.446 54.8323 119.765 53.9964 119.765C53.1659 119.765 52.3319 119.445 51.6917 118.806L51.6881 118.81L41.1566 108.278L41.1601 108.275C40.5199 107.634 40.2016 106.8 40.2016 105.97C40.2016 105.134 40.5199 104.298 41.1566 103.661L48.6293 96.1869C48.6364 96.1798 48.6382 96.1958 48.6382 96.1869C48.6382 96.1834 48.6346 96.1869 48.6311 96.1798C48.1242 95.2924 47.6636 94.3908 47.2475 93.4785C46.8385 92.5804 46.465 91.6468 46.1271 90.6775C46.1253 90.6704 46.1289 90.6704 46.1271 90.6686C46.12 90.6633 46.1325 90.6775 46.1218 90.6775H35.777C34.8771 90.6775 34.0608 90.3112 33.4704 89.7208C32.88 89.1303 32.5137 88.3141 32.5137 87.4142V72.5114H18.6032C18.2653 74.4428 17.3335 76.1713 16.005 77.4998C14.312 79.1928 11.9734 80.2403 9.39124 80.2403C6.80726 80.2403 4.4687 79.1928 2.77746 77.4998C1.08445 75.8068 0.0369873 73.4682 0.0369873 70.886C0.0369873 68.3038 1.08445 65.9635 2.77746 64.2722C4.47048 62.5792 6.80904 61.5318 9.39124 61.5318C11.9734 61.5318 14.312 62.5792 16.005 64.2722C17.3352 65.6025 18.2653 67.3293 18.6032 69.2606H35.576C35.6436 69.257 35.7112 69.2535 35.7788 69.2535H46.1253C46.1378 69.2535 46.1236 69.2677 46.1307 69.2624C46.1325 69.2606 46.1289 69.2606 46.1307 69.2535C46.4739 68.2665 46.8474 67.331 47.2493 66.4472H47.2511C47.6654 65.5349 48.1278 64.6368 48.6329 63.7494C48.6364 63.7423 48.64 63.7441 48.64 63.7423C48.6382 63.7352 48.6382 63.7512 48.6311 63.7423L41.1566 56.2678L41.1601 56.2642C40.5199 55.624 40.2016 54.7899 40.2016 53.9594C40.2016 53.1236 40.5199 52.2878 41.1566 51.6511L51.6881 41.1196C52.3248 40.4829 53.1606 40.1646 53.9964 40.1646C54.8269 40.1646 55.661 40.4829 56.2976 41.1196H56.3048L64.5013 49.3161C64.5031 49.3179 64.5031 49.3197 64.5013 49.3197L64.5031 49.3179C65.2695 48.9658 66.0574 48.635 66.8647 48.3309C67.6721 48.0268 68.4795 47.7511 69.2887 47.5093V35.74C69.2887 34.8401 69.655 34.0239 70.2454 33.4334C70.8359 32.843 71.6521 32.4767 72.5538 32.4767H87.4548V18.5662C85.5235 18.2283 83.7949 17.2965 82.4664 15.968C80.7734 14.275 79.726 11.9365 79.726 9.35425C79.726 6.77027 80.7734 4.43171 82.4664 2.74048C84.1594 1.04746 86.498 0 89.0802 0C91.6624 0 94.001 1.04746 95.694 2.74048C97.387 4.43349 98.4344 6.77205 98.4344 9.35425C98.4344 11.9365 97.387 14.275 95.694 15.968C94.3638 17.3018 92.6352 18.2337 90.7039 18.5716ZM66.6104 154.888C67.713 155.99 69.2353 156.671 70.9177 156.671C72.6 156.671 74.1223 155.99 75.2249 154.888C76.3275 153.785 77.0086 152.263 77.0086 150.58C77.0086 148.898 76.3275 147.376 75.2249 146.273C74.1223 145.171 72.6 144.489 70.9177 144.489C69.2353 144.489 67.713 145.171 66.6104 146.273C65.5078 147.376 64.8267 148.898 64.8267 150.58C64.8267 152.263 65.5096 153.787 66.6104 154.888ZM5.08046 66.5823C3.97787 67.6849 3.29675 69.2072 3.29675 70.8896C3.29675 72.5719 3.97787 74.0942 5.08046 75.1968C6.18305 76.2994 7.70534 76.9805 9.38768 76.9805C11.07 76.9805 12.5923 76.2994 13.6949 75.1968C14.7975 74.0942 15.4786 72.5719 15.4786 70.8896C15.4786 69.2072 14.7975 67.6849 13.6949 66.5823C12.5923 65.4797 11.07 64.7986 9.38768 64.7986C7.70534 64.7986 6.18127 65.4815 5.08046 66.5823ZM154.916 93.3576C156.018 92.255 156.699 90.7327 156.699 89.0503C156.699 87.368 156.018 85.8457 154.916 84.7431C153.813 83.6405 152.291 82.9594 150.608 82.9594C148.926 82.9594 147.404 83.6405 146.301 84.7431C145.199 85.8457 144.517 87.368 144.517 89.0503C144.517 90.7327 145.199 92.255 146.301 93.3576C147.404 94.4601 148.926 95.1413 150.608 95.1413C152.291 95.1395 153.815 94.4584 154.916 93.3576ZM93.3856 5.05236C92.2831 3.94977 90.7608 3.26865 89.0784 3.26865C87.3961 3.26865 85.8738 3.94977 84.7712 5.05236C83.6686 6.15495 82.9875 7.67724 82.9875 9.35958C82.9875 11.0419 83.6704 12.5642 84.7712 13.6668C85.8738 14.7694 87.3961 15.4505 89.0784 15.4505C90.7608 15.4505 92.2831 14.7694 93.3856 13.6668C94.4882 12.5642 95.1694 11.0419 95.1694 9.35958C95.1694 7.67724 94.4865 6.15318 93.3856 5.05236ZM72.8241 57.2388C72.0398 57.2388 71.3285 57.5589 70.8145 58.0728L70.8181 58.0764C70.3006 58.5939 69.9822 59.3052 69.9822 60.0824V69.9524H60.1123C59.328 69.9524 58.6166 70.2725 58.1027 70.7864C57.5887 71.3004 57.2686 72.0117 57.2686 72.796V87.1439C57.2686 87.8606 57.5389 88.5186 57.9818 89.0201C58.0191 89.0663 58.0582 89.1108 58.1009 89.1535C58.6149 89.6674 59.3262 89.9875 60.1105 89.9875H69.9805V99.8575C69.9805 100.642 70.2988 101.353 70.8145 101.867L70.8181 101.864L70.8216 101.867C71.3374 102.381 72.0452 102.701 72.8241 102.701H87.172C87.9563 102.701 88.6658 102.383 89.1816 101.867C89.6955 101.353 90.0156 100.642 90.0156 99.8575V89.9875H99.8856C100.597 89.9875 101.251 89.719 101.755 89.2797C101.804 89.2406 101.851 89.1997 101.895 89.1553C102.409 88.6413 102.729 87.9299 102.729 87.1457V72.7978C102.729 72.0135 102.411 71.3039 101.897 70.7882C101.381 70.2742 100.672 69.9541 99.8874 69.9541H90.0174V60.0842C90.0174 59.2999 89.6991 58.5885 89.1833 58.0746C88.6694 57.5606 87.958 57.2405 87.1738 57.2405H72.8241V57.2388ZM86.7505 60.5039H73.2438V70.3739C73.2438 71.1581 72.9236 71.8695 72.4097 72.3834L72.4061 72.3799C71.8886 72.8974 71.1791 73.2175 70.4001 73.2175H60.5302V86.7243H70.4001C71.1791 86.7243 71.8886 87.0444 72.4044 87.5583L72.4115 87.5654C72.9254 88.0794 73.2455 88.789 73.2455 89.5697V99.4396H86.7523V89.5697C86.7523 88.8583 87.0208 88.2039 87.4601 87.7006C87.4992 87.6508 87.5401 87.6046 87.5863 87.5601C88.1003 87.0462 88.8116 86.726 89.5959 86.726H99.4659V73.2193H89.5959C88.8116 73.2193 88.1003 72.8992 87.5863 72.3852C87.0706 71.8713 86.7523 71.1599 86.7523 70.3757V60.5039H86.7505ZM91.9843 51.3844C91.2747 51.1158 90.5385 50.8668 89.7773 50.6392C89.0838 50.4311 88.5022 50.0132 88.0914 49.4602C87.6806 48.9089 87.4476 48.2349 87.4476 47.5128L87.4459 35.7453C68.6787 35.7453 72.5502 31.2283 72.5502 47.5128C72.5502 48.2331 72.3172 48.9071 71.9064 49.4602C71.4956 50.0132 70.9141 50.4311 70.2205 50.6392C69.4594 50.8668 68.7214 51.1158 68.0118 51.3844C67.288 51.6564 66.5731 51.957 65.8671 52.2824C65.2375 52.5723 64.5689 52.6523 63.9322 52.5403H63.9251C63.2831 52.4265 62.6802 52.117 62.193 51.6298L53.9964 43.4332H53.9947C53.9929 43.4332 53.9946 43.4315 53.9929 43.4315L43.4613 53.9648C43.4596 53.9648 43.4631 53.9648 43.4631 53.9648V53.9666L50.9376 61.4411C51.4569 61.9621 51.7717 62.6183 51.8642 63.3137C51.9566 64.0037 51.8268 64.7204 51.4622 65.3606C51.0159 66.1431 50.6015 66.9558 50.2192 67.7952V67.8023C49.8297 68.6577 49.49 69.5007 49.2019 70.3276C48.9725 70.9892 48.5546 71.5333 48.0158 71.9157C47.4716 72.3016 46.8189 72.5203 46.1236 72.5203H35.7752C35.7752 90.866 31.3524 87.416 46.1218 87.416C46.8171 87.416 47.4716 87.633 48.014 88.0189C48.551 88.4012 48.969 88.9472 49.2001 89.6087C49.4936 90.4552 49.8333 91.3 50.2174 92.1429C50.5997 92.9841 51.0141 93.7968 51.4605 94.5775C51.825 95.2177 51.9549 95.9344 51.8624 96.6244C51.7681 97.3198 51.4551 97.9778 50.9341 98.4971L43.4613 105.97C43.4596 105.972 43.4631 105.97 43.4631 105.972L53.9947 116.503H53.9964C53.9982 116.503 53.9964 116.505 53.9982 116.505L62.1947 108.308H62.2018C62.6909 107.819 63.2902 107.512 63.9286 107.398C64.5671 107.284 65.2393 107.366 65.8689 107.656C66.5767 107.981 67.2916 108.282 68.0154 108.556C68.7249 108.824 69.4612 109.073 70.2223 109.301C70.9159 109.509 71.4974 109.927 71.9082 110.48C72.319 111.031 72.552 111.705 72.552 112.427V124.195C91.3192 124.195 87.4476 128.712 87.4476 112.429C87.4476 111.709 87.6806 111.033 88.0914 110.482C88.5022 109.928 89.0838 109.511 89.7773 109.302C90.5385 109.075 91.2765 108.826 91.9861 108.556C92.7081 108.282 93.4248 107.983 94.1308 107.657C94.7603 107.368 95.4326 107.286 96.071 107.4C96.7076 107.513 97.3087 107.823 97.7978 108.31H97.8049L106.001 116.507H106.003C106.005 116.507 106.003 116.508 106.003 116.508L116.535 105.977C116.535 105.977 116.537 105.977 116.535 105.977V105.975L109.06 98.5006C108.539 97.9813 108.226 97.3215 108.132 96.628C108.039 95.938 108.169 95.2213 108.534 94.5811C108.97 93.8164 109.386 93.0019 109.779 92.1394L109.78 92.1411C110.163 91.3018 110.501 90.4588 110.794 89.6141C111.024 88.9525 111.441 88.4083 111.98 88.0242C112.525 87.6383 113.177 87.4213 113.873 87.4213H124.221C124.221 69.0756 128.644 72.5257 113.874 72.5257C113.179 72.5257 112.525 72.3087 111.982 71.9228C111.443 71.5405 111.027 70.9945 110.796 70.3329C110.501 69.4882 110.161 68.6417 109.779 67.7988C109.396 66.9576 108.982 66.1449 108.536 65.3642C108.171 64.7239 108.041 64.0073 108.134 63.3172C108.226 62.6219 108.541 61.9639 109.06 61.4428L116.533 53.9701C116.533 53.9701 116.535 53.9701 116.533 53.9701V53.9683L106.003 43.4386H106.001C106 43.4386 106.001 43.4368 106 43.4368L97.8031 51.6333H97.796C97.307 52.1224 96.7059 52.43 96.0692 52.5439C95.4308 52.6577 94.7586 52.5759 94.129 52.286C93.423 51.9588 92.7063 51.6582 91.9843 51.3844Z" fill="url(#paint0_linear_0_2687)"/>
<defs>
<linearGradient id="paint0_linear_0_2687" x1="0.0369873" y1="0" x2="0.0369873" y2="159.931" gradientUnits="userSpaceOnUse">
<stop stop-color="#64C1BE"/>
<stop offset="1" stop-color="#28ACB9"/>
</linearGradient>
</defs>
</svg>
