<svg width="140" height="166" viewBox="0 0 140 166" fill="none" xmlns="http://www.w3.org/2000/svg">
<path fill-rule="evenodd" clip-rule="evenodd" d="M77.0817 68.7633H77.0814H77.081H77.0806H77.0802C76.6783 68.7607 76.2588 68.758 75.8152 68.758C76.0417 68.4713 76.2452 68.1954 76.4383 67.9336L76.4383 67.9335L76.4385 67.9333L76.4386 67.9332L76.4387 67.933C76.875 67.3415 77.2585 66.8216 77.7355 66.4099C78.0732 66.1185 78.9468 66.0012 79.2695 66.2333C79.7956 66.6118 80.1815 67.1918 80.5589 67.7591L80.559 67.7591L80.559 67.7592L80.5591 67.7592L80.5591 67.7593C80.6352 67.8736 80.7109 67.9873 80.7873 68.0988C80.8133 68.1366 80.3302 68.7135 80.0678 68.727C79.1171 68.7764 78.1633 68.7703 77.0817 68.7633ZM47.3125 85.2378C47.2267 85.2548 47.1409 85.272 47.0548 85.289C46.1102 80.9709 45.1653 76.6527 44.2204 72.3345L44.2226 72.3331C44.3517 72.2535 44.4808 72.1739 44.6097 72.0941C46.5472 74.0677 48.9049 75.1724 51.4854 75.5592C51.1891 76.0319 50.8772 76.4925 50.5673 76.9502L50.5666 76.9512L50.5664 76.9515C49.8655 77.9867 49.1746 79.0071 48.6965 80.119C48.2159 81.2362 47.9489 82.4451 47.682 83.654C47.5648 84.1845 47.4477 84.715 47.3125 85.2378ZM110.19 85.582L109.74 85.5069C109.674 81.7196 108.413 78.4314 105.472 75.6232C108.358 75.1521 110.774 74.0974 112.699 72.0665L113.089 72.2662C112.266 76.0458 111.443 79.8256 110.62 83.6053L110.19 85.582ZM117.736 70.0751C117.322 70.1125 116.898 70.1508 116.46 70.1823C116.495 69.8061 116.527 69.4276 116.559 69.0477L116.559 69.0475L116.559 69.0474C116.648 67.997 116.738 66.9365 116.905 65.8881C116.956 65.5609 117.466 65.1048 117.814 65.0563C122.536 64.3966 125.322 66.6246 125.782 71.3621C126.332 77.0197 122.606 82.0468 117.033 83.0998C116.44 83.212 115.827 83.2266 115.164 83.2424C114.842 83.2501 114.507 83.258 114.156 83.2777L114.484 81.7058L114.488 81.6893C114.767 80.3529 115.034 79.0791 115.298 77.8052C115.366 77.48 115.427 77.1535 115.481 76.8258C115.905 74.2418 117.129 73.1823 119.827 73.071C119.892 73.0683 119.958 73.0688 120.024 73.0692C120.125 73.0699 120.226 73.0706 120.326 73.06C121.246 72.9629 121.81 72.4238 121.836 71.5307C121.862 70.6463 121.361 69.9378 120.437 69.9241C119.555 69.9111 118.671 69.9908 117.737 70.0751L117.736 70.0751ZM39.4947 65.039C39.7733 65.0603 40.0544 65.0817 40.3388 65.0968C40.5096 66.883 40.6672 68.5294 40.8374 70.3051C40.5811 70.2622 40.3301 70.2169 40.0824 70.1722L40.0823 70.1722L40.0822 70.1722C39.5109 70.0691 38.9574 69.9692 38.3997 69.9096C38.3226 69.9014 38.2425 69.8915 38.1608 69.8815L38.1606 69.8815L38.1602 69.8814C37.6797 69.8225 37.1431 69.7567 36.8174 69.9691C36.2685 70.3276 35.568 71.0196 35.5943 71.5354C35.6213 72.0618 36.3673 72.7037 36.949 73.0057C37.2575 73.1657 37.6358 73.1784 38.0192 73.1914C38.3191 73.2015 38.6222 73.2117 38.8973 73.2926C40.4036 73.7359 41.5173 74.4732 41.754 76.3037C41.9609 77.905 42.324 79.4864 42.6873 81.0683L42.6873 81.0684C42.8441 81.7512 43.0009 82.434 43.1452 83.1186C38.3874 83.8951 33.2492 80.6036 32.0594 75.7981C31.6126 73.9929 31.5075 71.9942 31.7524 70.151C32.2002 66.7787 34.3247 65.0915 37.7222 64.9695C38.3077 64.9485 38.8956 64.9933 39.4947 65.039ZM73.4903 55.6346C74.9333 55.5807 76.223 55.5326 77.3054 55.4848L77.7606 55.494H77.7606C89.3688 55.7293 97.9948 55.9041 106.54 57.292C107.851 57.5051 109.162 57.748 110.453 58.0633C111.728 58.3745 112.581 59.3614 112.609 60.656C112.661 63.0784 112.45 65.4781 111.49 67.7491C110.536 70.0064 108.91 71.4989 106.493 72.0353C101.514 73.14 96.516 73.8195 91.3985 73.0217C88.7477 72.6084 86.7441 71.4053 85.3967 69.0638C84.6512 67.7679 83.8544 66.4897 82.9603 65.2937C80.3403 61.789 76.9652 61.7983 74.3207 65.3037C73.5714 66.2969 72.8539 67.3388 72.295 68.4458C70.7235 71.5582 68.0922 72.8741 64.7699 73.2073C59.8593 73.6994 55.0313 73.1413 50.3061 71.8922C46.8945 70.9906 45.5603 68.1927 45.0117 64.9882C44.7815 63.6436 44.7413 62.2581 44.716 60.8894C44.6882 59.3696 45.469 58.3002 46.9823 58.0477C47.7478 57.92 48.5134 57.7873 49.2793 57.6545C52.3675 57.1192 55.461 56.5829 58.5737 56.3659C63.9577 55.9905 69.3538 55.789 73.4903 55.6346ZM57.6576 129.604C57.5335 129.362 57.4056 129.112 57.2695 128.852C63.5183 125.753 66.5108 120.46 67.7477 113.749C75.0024 117.509 82.2288 117.543 89.5027 113.753C90.2322 117.031 91.1379 120.039 92.9076 122.709C94.6748 125.375 97.0822 127.315 100.022 128.874C99.8959 129.113 99.7754 129.348 99.657 129.578L99.6568 129.579C99.4089 130.061 99.1706 130.525 98.9122 130.977C94.3163 139.015 88.2349 145.825 81.405 151.997C81.0121 152.352 80.6815 152.664 80.3973 152.932C79.5512 153.73 79.1167 154.14 78.6754 154.147C78.2096 154.155 77.7363 153.714 76.7633 152.808L76.7632 152.808L76.761 152.806C76.4941 152.557 76.1895 152.274 75.8372 151.955C69.0418 145.805 62.9947 139.022 58.4131 131.027C58.1521 130.571 57.913 130.104 57.6576 129.604ZM106.116 53.8634C87.7721 51.7455 69.4503 51.7157 51.1136 53.8912C51.6763 52.2286 52.233 50.5754 52.7872 48.9297C54.2571 44.5644 55.7094 40.2515 57.209 35.9552C57.7539 34.3946 58.4809 32.8779 59.2869 31.4316C62.3137 26.0009 66.5504 23.8622 72.5287 25.4981C76.7423 26.6511 80.5999 26.6304 84.8143 25.4903C90.8089 23.8687 95.005 26.0149 98.0273 31.4779C98.8889 33.0352 99.6524 34.6736 100.234 36.3532C101.676 40.5158 103.066 44.6966 104.476 48.9411L104.479 48.9483L104.484 48.9631C105.023 50.5864 105.566 52.219 106.116 53.8634ZM55.9779 106.13L56.0722 106.066C56.683 106.502 57.2881 106.932 57.8885 107.359C60.0391 108.889 62.1285 110.375 64.1955 111.892C64.4459 112.076 64.6273 112.597 64.573 112.916C63.5783 118.753 60.9706 123.417 55.4295 126.229C49.8342 129.068 44.2847 132.026 38.9023 135.245C36.248 136.832 33.8672 138.912 31.517 140.965L31.1423 141.292L30.9606 141.45C29.8681 142.402 28.864 142.991 27.3892 143.072C22.1661 143.361 17.1742 142.666 12.5989 139.97C2.28711 133.894 0.155658 119.131 8.31321 110.46C11.377 107.204 15.2669 105.972 19.5321 106.464C23.4907 106.921 27.417 107.684 31.3383 108.447C32.1081 108.596 32.8776 108.746 33.6472 108.893C38.4933 109.82 43.3278 110.554 48.2557 109.555C50.7338 109.052 53.0204 108.108 55.1206 106.705C55.4434 106.489 55.7659 106.272 55.9779 106.13ZM58.5576 76.5332C58.9077 76.5647 59.2579 76.5961 59.5951 76.5961C62.9502 76.8015 66.2797 76.5148 69.4353 75.3853C70.2977 75.0766 71.0537 74.4768 71.812 73.8751L71.8122 73.875C72.2048 73.5635 72.598 73.2515 73.007 72.9792C73.047 72.9526 73.0874 72.9252 73.1283 72.8974L73.1855 72.8583C73.5901 72.5825 74.0339 72.2797 74.4622 72.2699C77.2864 72.2051 80.1131 72.2317 82.9385 72.2622C83.2783 72.2657 83.7461 72.3765 83.9344 72.6129C86.3526 75.647 89.8084 76.2306 93.3251 76.5088C94.6478 76.6136 95.9813 76.5746 97.3157 76.5355C98.1067 76.5124 98.8981 76.4893 99.6877 76.4961C100.247 76.5011 100.866 76.5804 101.353 76.8298C104.604 78.4942 106.303 81.1955 106.389 84.8377C106.611 94.1914 102.443 101.295 95.0335 106.686C90.5462 109.951 85.7362 112.511 80.1409 113.309C77.8073 113.642 75.5655 113.21 73.393 112.47C65.7953 109.88 59.2942 105.703 54.7591 98.9351C51.6908 94.3562 50.4789 89.2045 51.0078 83.7267C51.3348 80.3409 53.2858 77.9303 56.3995 76.6542C57.0294 76.396 57.7935 76.4646 58.5576 76.5332ZM41.3679 61.7312C41.3596 61.7641 41.3516 61.7958 41.3455 61.8256H35.3251C35.2126 61.1853 35.0825 60.5489 34.9528 59.914L34.9528 59.914L34.9528 59.9139L34.9528 59.9139L34.9528 59.9138C34.6738 58.5486 34.3964 57.191 34.2984 55.8205C33.1796 40.1813 37.4008 26.3236 48.5008 14.9647C54.3718 8.95657 61.658 5.43843 69.9342 4.02546C78.114 2.62901 86.1935 3.00077 94.0641 5.7699C104.561 9.46292 112.069 16.5883 117.175 26.3347C121.802 35.1667 123.732 44.6103 123.098 54.5461C122.992 56.2011 122.699 57.8441 122.403 59.5063C122.266 60.2761 122.128 61.0499 122.008 61.8311H115.967C115.953 61.6792 115.942 61.5201 115.93 61.3561C115.903 60.9856 115.874 60.5903 115.82 60.1982C115.445 57.4341 113.906 55.6359 111.222 54.9091C110.449 54.6997 110.015 54.3397 109.761 53.606C109.24 52.102 108.724 50.5955 108.209 49.0891L108.209 49.0884L108.209 49.0877L108.208 49.087C106.748 44.8164 105.287 40.5456 103.683 36.3292C102.568 33.397 101.262 30.4565 99.5381 27.8534C95.9614 22.453 90.3433 20.5302 83.4834 22.426C80.1399 23.3499 77.1113 23.3601 73.7775 22.4122C68.8229 21.0035 64.0149 21.5714 59.9764 25.2119C57.7696 27.2012 56.1806 29.6744 55.1556 32.416C54.1049 35.2261 53.1393 38.0678 52.1736 40.9096L52.1735 40.9099L52.1735 40.91C51.5087 42.8661 50.844 44.8223 50.1514 46.7683C49.3354 49.0613 48.4036 51.314 47.4728 53.5643L47.359 53.8394C47.2084 54.2034 46.8419 54.6099 46.4837 54.7355C42.7572 56.0421 41.5911 57.5664 41.412 61.4888C41.4082 61.5723 41.3872 61.6551 41.368 61.731L41.3679 61.7312ZM49.9246 132.694C51.3625 131.913 52.8015 131.132 54.2322 130.333C54.594 130.945 54.9346 131.534 55.2653 132.107L55.2657 132.107L55.2657 132.107L55.2665 132.109L55.2667 132.109L55.2671 132.11C55.9541 133.299 56.5979 134.413 57.2973 135.491C62.3905 143.343 68.7036 150.12 75.7469 156.239C77.5954 157.844 79.8502 157.761 81.7402 156.083C90.0091 148.741 97.4366 140.699 102.693 130.855C102.73 130.787 102.781 130.727 102.844 130.654L102.869 130.624L102.891 130.599C102.91 130.576 102.93 130.551 102.951 130.524C112.861 135.359 122.713 140.226 129.267 149.674C132.433 154.238 134.737 159.175 136.083 164.56C136.243 165.202 136.284 165.669 136.175 166H139.501C139.548 165.47 139.509 164.906 139.375 164.32C138.301 159.624 136.514 155.212 134.086 151.047C129.459 143.108 122.768 137.368 114.825 132.992C110.382 130.544 105.866 128.224 101.35 125.911C96.0772 123.211 93.7459 118.586 92.7224 113.055C92.5978 112.381 92.799 111.985 93.4026 111.648C94.273 111.163 95.1061 110.603 95.9179 110.023C99.8428 107.219 103.197 103.92 105.957 99.8857C108.724 95.84 111.333 91.7752 112.859 87.0973C113.09 86.3881 113.522 86.4395 113.973 86.4931L113.973 86.4931C114.066 86.5042 114.16 86.5153 114.253 86.5199C120.471 86.8266 126.032 83.3832 128.053 77.6391C129.866 72.4876 129.712 67.564 125.336 63.509C125.095 63.2856 125.061 62.7002 125.121 62.3126C125.265 61.3887 125.445 60.4677 125.625 59.5469L125.625 59.5467C125.956 57.8501 126.287 56.1546 126.393 54.4445C127.106 42.9149 124.524 32.1188 118.597 22.1938C113.213 13.1804 105.729 6.56494 95.791 2.90595C88.6334 0.270407 81.2366 -0.429069 73.6695 0.233632C63.9156 1.08746 55.2334 4.51155 47.8867 11.041C34.1826 23.2205 27.7084 44.3502 32.1747 62.157C32.3568 62.8833 32.2868 63.3263 31.6636 63.8409C30.1491 65.093 29.1794 66.7544 28.6838 68.648C26.3192 77.6834 32.979 87.1005 42.9736 86.5019C43.9567 86.4431 44.352 86.7428 44.6525 87.6349C46.0319 91.7317 48.1328 95.4462 50.7218 98.9033C51.4874 99.9257 52.1999 100.988 52.922 102.065L52.9222 102.065C53.2524 102.557 53.5847 103.052 53.925 103.548C51.2952 105.501 48.385 106.48 45.2078 106.714C40.5409 107.059 36.0275 106.08 31.5142 105.102L31.4967 105.099C31.092 105.011 30.6873 104.922 30.2827 104.833L30.2826 104.833C25.8095 103.853 21.3363 102.872 16.6934 103.194C12.4828 103.486 8.8108 105.02 6.00239 108.191C0.23071 114.709 -1.42742 122.269 1.2399 130.51C3.95425 138.897 9.97509 143.888 18.5494 145.717C20.2233 146.074 21.9392 146.234 23.7027 146.399L23.704 146.399L23.7051 146.4C24.5267 146.476 25.3587 146.554 26.2016 146.654C26.0376 146.884 25.8781 147.107 25.7223 147.324C25.3957 147.78 25.0852 148.214 24.7827 148.652C21.4126 153.542 19.0498 158.872 17.868 164.697C17.7774 165.143 17.7522 165.58 17.7857 166H21.0996C21.0126 165.693 21.0555 165.268 21.2015 164.69C24.1007 153.226 30.4783 144.234 40.5484 138.013C43.6016 136.127 46.7604 134.412 49.9246 132.694ZM101.404 48.7961C99.19 47.6153 96.7992 47.2083 94.2834 47.0452C93.8042 47.1324 93.3237 47.2139 92.8431 47.2955C91.7364 47.4834 90.6297 47.6713 89.5392 47.9275C88.134 48.2578 87.6144 49.0515 87.9216 50.0955C88.2011 51.0454 89.0656 51.3976 90.377 51.0339C93.659 50.1233 96.8499 50.3099 99.9673 51.7199C101.102 52.2327 102.009 51.9835 102.432 51.1227C102.859 50.2531 102.487 49.3735 101.404 48.7961ZM69.4419 49.1298C69.5007 50.6065 68.5238 51.4761 67.4553 51.1599C63.8351 50.0892 60.3377 50.2793 56.9041 51.8806C56.0033 52.3009 55.2655 51.9064 54.847 51.0423C54.4312 50.1832 54.7357 49.3502 55.5317 49.0417C57.2942 48.359 59.0966 47.667 60.9464 47.3506C63.333 46.9423 65.7669 47.1862 68.0662 48.024C68.5055 48.1841 68.8675 48.556 69.1508 48.8471L69.1509 48.8472L69.1511 48.8474C69.2596 48.9589 69.3566 49.0585 69.4419 49.1298ZM62.0902 63.0421L62.6706 63.0368C62.7879 63.1857 62.9275 63.3307 63.0671 63.4757C63.3784 63.7992 63.6897 64.1225 63.7536 64.4891C63.897 65.3099 63.2971 65.9156 62.442 65.9323C61.5861 65.9493 60.9665 65.3602 61.0695 64.5414C61.116 64.1725 61.4142 63.8352 61.7123 63.4979C61.8459 63.3469 61.9793 63.1959 62.0902 63.0421ZM61.9139 69.0077C64.1751 69.2758 65.8781 68.005 67.0416 64.9822C67.2966 65.2711 67.539 65.5496 67.774 65.8196L67.7746 65.8203C68.2957 66.4189 68.7806 66.976 69.2861 67.5134C69.8818 68.1466 70.605 68.2416 71.2992 67.6985C71.9757 67.1694 72.1098 66.4654 71.6808 65.6997C71.5468 65.4608 71.3754 65.2413 71.2058 65.024L71.1769 64.9869C66.5368 59.0366 59.7932 58.8445 53.7258 62.2351C52.8747 62.7106 52.5775 63.5019 53.0336 64.358C53.5011 65.2351 54.3209 65.3161 55.1933 64.9141C55.8821 64.5964 56.5707 64.2781 57.2792 63.9505L57.8021 63.7088C58.2994 67.1627 59.5422 68.726 61.9139 69.0077ZM94.2407 64.8606C94.4005 64.9739 94.5573 65.1102 94.7142 65.2465C95.0646 65.5509 95.4149 65.8553 95.7973 65.9028C96.6221 66.0056 97.1982 65.4117 97.1672 64.5018C97.1382 63.6495 96.6358 63.2377 95.7798 63.2575C94.9159 63.2773 94.4999 63.7408 94.2407 64.8606ZM100.309 63.6403C100.14 66.957 98.727 68.7517 96.2663 69.0109C93.9498 69.2546 92.1198 67.8284 91.2767 64.9324C91.0447 65.1873 90.82 65.4318 90.6013 65.67C90.1267 66.1866 89.6799 66.673 89.2451 67.1702C88.4333 68.0985 87.6032 68.3119 86.8967 67.675C86.0389 66.9017 86.255 66.0759 86.8534 65.2366C90.4139 60.2437 96.3479 58.7254 102.523 61.2594C103.25 61.5578 103.972 61.9016 104.626 62.3319C105.36 62.8144 105.684 63.5397 105.191 64.3748C104.712 65.1861 103.95 65.3119 103.129 64.9609C102.508 64.6953 101.898 64.402 101.243 64.0865L101.242 64.0863C100.943 63.9421 100.634 63.7932 100.309 63.6403Z" fill="url(#paint0_linear_0_2715)"/>
<defs>
<linearGradient id="paint0_linear_0_2715" x1="0" y1="-0.000488281" x2="0" y2="166.001" gradientUnits="userSpaceOnUse">
<stop stop-color="#64C1BE"/>
<stop offset="1" stop-color="#28ACB9"/>
</linearGradient>
</defs>
</svg>
