<svg width="163" height="163" viewBox="0 0 163 163" fill="none" xmlns="http://www.w3.org/2000/svg">
<path fill-rule="evenodd" clip-rule="evenodd" d="M66.7868 21.2104L85.725 40.169C91.1068 35.4822 93.0226 30.5918 91.4163 24.8379C89.959 19.6174 86.4326 16.3416 81.1737 15.2582C75.0477 13.9962 70.4052 16.7059 66.7868 21.2104ZM89.1249 15.5352C89.8452 14.8129 90.5618 14.0919 91.2767 13.3727L91.2774 13.3721L91.2782 13.3712L91.2792 13.3702C92.8455 11.7945 94.4034 10.2272 95.9734 8.67195C101.816 2.8841 108.84 -0.0437546 117.074 0.000488847C130.83 0.0746468 142.781 10.1264 145.199 23.7097C145.52 25.5116 145.687 27.366 145.689 29.1964C145.714 51.367 145.712 73.5377 145.71 95.7083C145.709 100.141 145.709 104.573 145.708 109.006C145.708 109.139 145.721 109.282 145.734 109.425C145.765 109.778 145.796 110.134 145.642 110.361C145.262 110.92 144.716 111.57 144.119 111.729C143.311 111.945 142.708 111.308 142.551 110.465C142.464 109.998 142.465 109.51 142.467 109.028V109.028V109.028L142.467 108.98L142.467 108.84C142.465 88.4343 142.464 68.0287 142.464 47.6229V47.2563L142.464 29.1564C142.464 15.992 133.154 5.14655 120.145 3.43664C112.364 2.41402 105.345 4.48365 99.5013 9.8097C97.5973 11.5448 95.8407 13.4419 94.0553 15.3701L94.055 15.3704C93.2375 16.2533 92.4141 17.1426 91.5676 18.0259C91.5762 18.0401 91.5903 18.0649 91.609 18.0977L91.609 18.0978C91.6757 18.2154 91.8011 18.4362 91.9454 18.6438C96.725 25.5242 96.0648 34.1101 90.275 40.1609C89.3204 41.1586 88.336 42.1283 87.352 43.0975L87.3519 43.0976L87.3518 43.0976L87.3518 43.0977L87.0827 43.3628C85.8358 44.5916 85.1563 44.5989 83.913 43.3573C80.614 40.0634 77.3211 36.7638 74.0281 33.4641L74.0248 33.4609L74.0215 33.4576L74.015 33.4511L73.9883 33.4244C72.8584 32.2921 71.7284 31.1599 70.5982 30.0279C69.9452 29.374 69.2917 28.7204 68.6383 28.0669L68.6338 28.0624C66.9502 26.3785 65.2665 24.6947 63.5899 23.0038C62.3433 21.7464 62.2951 21.0174 63.5668 19.8404C64.1235 19.3252 64.6694 18.7888 65.216 18.2517C66.744 16.7503 68.2778 15.2434 70.0676 14.1782C76.0208 10.6357 82.0857 10.9605 87.9304 14.728C88.1874 14.8937 88.4398 15.0667 88.7116 15.253C88.8438 15.3437 88.9807 15.4375 89.1249 15.5352ZM15.8854 53.2557L37.0752 74.4921C38.2014 72.6713 38.0448 70.7078 36.4151 69.0632C31.4073 64.0107 26.3796 58.9777 21.3354 53.9614C19.683 52.3183 17.817 52.1482 15.8854 53.2557ZM52.2914 95.0776C48.3402 95.0816 45.2145 98.2106 45.2132 102.163C45.2122 106.078 48.3779 109.298 52.2612 109.33C56.1728 109.362 59.439 106.074 59.4111 102.131C59.3832 98.1832 56.2444 95.0733 52.2914 95.0776ZM114.173 95.0766C110.263 95.0909 107.075 98.2855 107.079 102.185C107.084 106.056 110.323 109.314 114.186 109.331C118.099 109.349 121.331 106.076 121.314 102.111C121.298 98.188 118.124 95.0622 114.173 95.0766ZM116.994 112.162C117.746 112.933 118.499 113.679 119.243 114.417C120.932 116.091 122.574 117.719 124.057 119.483C125.827 121.587 127.77 122.444 130.515 122.215C132.565 122.044 134.632 122.085 136.627 122.126C137.478 122.143 138.316 122.16 139.133 122.16C133.973 116.993 128.777 111.79 123.573 106.579C122.278 109.206 120.095 111.108 116.994 112.162ZM72.5506 118.068H98.1366V110.831H72.5506V118.068ZM90.3782 147.437V121.448H80.7613V125.188C80.7613 126.703 80.7612 128.218 80.7611 129.732C80.7608 135.211 80.7604 140.69 80.7673 146.169C80.7674 146.252 80.7626 146.339 80.7577 146.426C80.7307 146.916 80.702 147.436 81.5102 147.436C83.6128 147.438 85.7154 147.438 87.8598 147.437H87.878H87.8964L90.3782 147.437ZM82.4853 76.7264V76.7221L79.7031 76.7219C77.6628 76.7216 75.6225 76.7213 73.5823 76.7224C72.6033 76.7228 71.6242 76.7221 70.6452 76.7214C67.9461 76.7195 65.2469 76.7175 62.5481 76.7402C61.1172 76.7523 59.979 77.6454 59.6391 78.8895C59.2783 80.2108 59.6982 81.698 60.8565 82.2965C61.632 82.6972 62.5996 82.8903 63.4822 82.8933C72.4085 82.9238 81.3352 82.9216 90.2617 82.9195C92.5369 82.919 94.812 82.9184 97.0871 82.9184C97.49 82.9184 97.8929 82.9187 98.2958 82.919C99.3977 82.9197 100.5 82.9205 101.601 82.9157L101.633 82.9155C101.998 82.9139 102.367 82.9122 102.725 82.8528C104.411 82.574 105.559 81.2178 105.468 79.6419C105.371 77.9798 104.079 76.7412 102.297 76.7352C97.5034 76.7189 92.7096 76.7216 87.9159 76.7243L87.8756 76.7244H87.8755H87.8755C86.0787 76.7254 84.282 76.7264 82.4853 76.7264ZM112.039 158.33C113.271 154.247 110.724 150.664 106.546 150.66C92.6645 150.648 78.7829 150.651 64.9013 150.658C60.5581 150.66 58.0815 154.019 59.2701 158.332C76.8505 158.332 94.4448 158.332 112.039 158.33ZM61.2065 107.472H105.208C103.502 102.577 103.501 102.502 105.144 96.8973H61.2293C63.0883 100.492 63.0599 103.996 61.2065 107.472ZM37.452 79.9592C37.2949 79.7867 37.1745 79.6522 37.0758 79.5421L37.0757 79.542L37.0754 79.5416C36.9148 79.3624 36.8122 79.2478 36.7037 79.1391C28.6275 71.0504 20.5508 62.9622 12.4706 54.8774C12.1755 54.5823 11.8637 54.2967 11.5276 54.0509C8.35645 51.7299 3.95699 53.5428 3.31748 57.4234C2.97811 59.4828 3.82326 61.0597 5.23578 62.4715C13.4669 70.7 21.6913 78.9353 29.9156 87.1706L29.932 87.187L29.997 87.2522C33.7576 91.0177 37.5181 94.7833 41.2793 98.5482C41.4653 98.7343 41.6623 98.9091 41.8973 99.1176L41.8975 99.1178L41.8978 99.1181L41.898 99.1182L41.8983 99.1185C42.0214 99.2277 42.1549 99.3462 42.3027 99.4803C43.5398 95.7488 45.9943 93.3702 49.4799 92.1935L39.4661 82.1153C39.2074 82.3832 38.9467 82.6562 38.6836 82.9316L38.6832 82.932L38.6824 82.9329C38.0699 83.5742 37.4444 84.2292 36.8007 84.8657C35.9141 85.7427 34.9281 85.8458 34.2587 85.1867C33.541 84.4803 33.6044 83.5861 34.5367 82.656C35.1699 82.0241 35.8347 81.424 36.5216 80.8042L36.5217 80.8041C36.8277 80.5279 37.1381 80.2478 37.452 79.9592ZM101.344 110.685L101.344 111.549L101.345 113.207C101.345 115.122 101.345 116.96 101.344 118.799C101.342 120.995 101.016 121.314 98.7779 121.316C97.6558 121.317 96.5336 121.317 95.3659 121.317H95.3544L94.3399 121.316L93.6479 121.316V122.86C93.6479 124.795 93.65 126.73 93.6521 128.665C93.6582 134.396 93.6643 140.127 93.6168 145.858C93.6057 147.172 94.0238 147.471 95.2555 147.447C98.9775 147.374 102.702 147.392 106.425 147.429C111.019 147.475 114.481 150.081 115.205 154.288C115.526 156.147 115.417 158.098 115.311 160.002L115.302 160.173C115.275 160.641 114.55 161.169 114.032 161.473C113.781 161.621 113.424 161.595 113.072 161.569C112.937 161.559 112.802 161.549 112.675 161.549C94.6434 161.551 76.6125 161.551 58.5813 161.55C56.1014 161.55 55.7705 161.235 55.8002 158.715C55.8034 158.442 55.8042 158.168 55.805 157.894C55.8086 156.7 55.8122 155.5 56.0119 154.338C56.6612 150.558 59.663 147.742 63.4968 147.547C66.3239 147.403 69.1589 147.412 71.9938 147.421C73.2178 147.425 74.4419 147.429 75.6653 147.421C76.0606 147.418 76.456 147.419 76.8826 147.42H76.8897C77.0883 147.42 77.2936 147.42 77.5089 147.42V121.316C76.9263 121.316 76.3422 121.317 75.757 121.317C74.4382 121.318 73.1141 121.318 71.7899 121.316C69.6577 121.312 69.3178 120.97 69.3158 118.829C69.3141 117.022 69.3145 115.215 69.3149 113.343V113.325L69.3149 113.268C69.3151 112.433 69.3153 111.585 69.3153 110.718H67.1783L65.5049 110.718C64.3892 110.718 63.2736 110.718 62.1579 110.718C59.9588 110.717 57.8912 110.869 55.7328 111.785C50.4128 114.041 44.2818 110.845 42.4503 105.303C42.1401 104.365 41.5777 103.412 40.8834 102.713C28.2522 90.0054 15.591 77.3274 2.91526 64.664C0.229236 61.9805 -0.720489 58.8767 0.570614 55.2746C2.23024 50.6449 7.56962 48.5159 12.0256 50.665C12.8351 51.0554 13.3957 51.0753 14.1712 50.569C17.1285 48.6383 20.7144 48.9777 23.3771 51.5418C25.8332 53.907 28.2353 56.3288 30.6374 58.7506C31.6554 59.7769 32.6733 60.8032 33.6954 61.8251L34.6955 62.825C35.8721 64.0011 37.0488 65.1773 38.2207 66.3578C41.4163 69.577 41.807 72.7648 39.493 76.6635C39.443 76.7477 39.4009 76.8365 39.3233 77.0004L39.3231 77.0009L39.3228 77.0015C39.2731 77.1063 39.2089 77.2418 39.1189 77.4262C39.3798 77.5148 39.6315 77.6218 39.8773 77.7262L39.8775 77.7263C40.3908 77.9445 40.8782 78.1516 41.3681 78.1575C45.1689 78.2045 48.9706 78.1992 52.7877 78.1939C54.0097 78.1921 55.2332 78.1904 56.4588 78.1904C57.7577 74.5142 60.5114 73.4167 64.1474 73.4383C72.6103 73.4885 81.0735 73.4816 89.5367 73.4747C93.6242 73.4714 97.7118 73.4681 101.799 73.4712C105.061 73.4737 107.461 75.1384 108.335 77.9416C109.564 81.8802 106.667 85.9941 102.543 86.0474C99.2408 86.0899 95.9376 86.0811 92.6342 86.0723C91.2518 86.0686 89.8693 86.0649 88.4868 86.065C85.9851 86.0652 83.4835 86.0639 80.9819 86.0626C75.0328 86.0595 69.0837 86.0565 63.1346 86.0738C60.1522 86.0823 58.0096 84.8546 56.7472 82.1085C56.6034 81.7958 56.1863 81.4008 55.892 81.3973C52.6917 81.3598 49.491 81.3622 46.1535 81.3646H46.1529H46.1522H46.1516H46.1471H46.1424H46.1378C45.3005 81.3653 44.4545 81.3659 43.5978 81.3659C43.7269 81.5213 43.8352 81.6566 43.9316 81.7772C44.1092 81.9994 44.2468 82.1715 44.4012 82.3264L45.5502 83.4805C48.1505 86.0929 50.751 88.7054 53.3764 91.2923C53.6531 91.5649 54.0152 91.7515 54.3766 91.9379L54.3771 91.9381C54.5314 92.0176 54.6855 92.0971 54.8329 92.1832C57.4272 93.699 60.2443 93.6405 63.0571 93.5822C63.6081 93.5707 64.159 93.5593 64.708 93.5597C78.8902 93.57 93.0725 93.5726 107.255 93.5404C108.007 93.5386 108.829 93.33 109.5 92.9858C115.951 89.6761 123.782 93.9378 124.423 101.166C124.505 102.091 124.793 102.795 125.469 103.466C131.41 109.365 137.327 115.289 143.217 121.24C143.896 121.927 144.577 122.181 145.522 122.173C149.204 122.143 152.886 122.148 156.567 122.152H156.57C157.782 122.154 158.994 122.155 160.206 122.155C160.3 122.155 160.393 122.154 160.487 122.153H160.487H160.487H160.487H160.488C160.771 122.149 161.055 122.144 161.335 122.178C162.256 122.287 162.8 122.832 162.783 123.756C162.766 124.68 162.205 125.202 161.281 125.288C161.031 125.311 160.779 125.308 160.528 125.305L160.415 125.304C160.369 125.303 160.323 125.303 160.277 125.303C157.744 125.303 155.21 125.303 152.676 125.302C144.124 125.3 135.571 125.298 127.018 125.324C125.883 125.328 125.05 125.003 124.262 124.182C120.751 120.531 117.208 116.91 113.626 113.328C113.235 112.938 112.701 112.687 112.171 112.439L112.171 112.439L112.17 112.439L112.17 112.439C111.989 112.354 111.809 112.269 111.636 112.18C111.501 112.11 111.347 112.074 111.194 112.039L111.194 112.039L111.194 112.039L111.194 112.039C111.014 111.997 110.836 111.955 110.691 111.86C108.715 110.563 106.587 110.635 104.388 110.711C103.386 110.745 102.369 110.779 101.344 110.685ZM129.052 159.83C128.958 159.823 128.858 159.817 128.75 159.811C127.945 156.075 129.837 153.683 133.502 153.68L135.792 153.679C142.222 153.675 148.652 153.671 155.082 153.685C157.668 153.691 159.325 155.21 159.622 157.762C159.774 159.065 159.102 159.851 157.795 159.852C148.385 159.856 138.976 159.854 129.566 159.852H129.565H129.565H129.565C129.401 159.852 129.237 159.842 129.052 159.83ZM142.463 148.873V150.502L141.819 150.502H141.805C141.449 150.502 141.135 150.502 140.822 150.502C139.975 150.504 139.127 150.5 138.28 150.496C136.367 150.487 134.454 150.477 132.543 150.536C128.977 150.645 126.168 153.049 125.534 156.567C125.347 157.609 125.346 158.688 125.345 159.762C125.345 160.03 125.345 160.299 125.342 160.566C125.319 162.539 125.796 162.998 127.767 162.998C135.826 162.999 143.885 162.999 151.944 162.999H152.232L160.387 162.999C160.435 162.999 160.483 162.999 160.532 163C160.651 163 160.77 163.001 160.888 162.997C162.247 162.959 162.783 162.438 162.808 161.096C162.821 160.393 162.818 159.69 162.814 158.987C162.813 158.769 162.812 158.55 162.812 158.332C162.799 153.656 159.738 150.56 155.042 150.509C153.409 150.491 151.775 150.494 150.142 150.498C149.14 150.5 148.139 150.502 147.138 150.499C146.838 150.498 146.537 150.477 146.211 150.454H146.211H146.21C146.051 150.442 145.884 150.43 145.709 150.42V148.936L145.709 145.527C145.709 141.68 145.71 137.833 145.707 133.987C145.707 133.928 145.708 133.87 145.709 133.811C145.709 133.778 145.71 133.746 145.71 133.714C145.716 133.383 145.722 133.05 145.649 132.736C145.46 131.92 144.906 131.266 144.073 131.463C143.501 131.597 142.954 132.182 142.585 132.701C142.414 132.941 142.434 133.329 142.454 133.701L142.454 133.702C142.46 133.821 142.466 133.939 142.466 134.049C142.462 137.93 142.462 141.81 142.462 145.69L142.463 148.873ZM111.938 102.033C112.008 100.777 113.132 99.7645 114.355 99.8573C115.59 99.9508 116.611 101.108 116.524 102.314C116.432 103.582 115.36 104.517 114.074 104.449C112.781 104.381 111.866 103.346 111.938 102.033ZM54.5977 102.129C54.5728 100.877 53.4903 99.8247 52.257 99.8531C51.0099 99.8817 49.9825 100.96 50.0039 102.218C50.0258 103.495 51.0507 104.473 52.3458 104.453C53.6329 104.432 54.6228 103.411 54.5977 102.129Z" fill="url(#paint0_linear_0_2792)"/>
<defs>
<linearGradient id="paint0_linear_0_2792" x1="0" y1="-0.000488281" x2="0" y2="163" gradientUnits="userSpaceOnUse">
<stop stop-color="#64C1BE"/>
<stop offset="1" stop-color="#28ACB9"/>
</linearGradient>
</defs>
</svg>
