<svg width="20" height="20" viewBox="0 0 20 20" fill="none" xmlns="http://www.w3.org/2000/svg">
<mask id="path-1-inside-1_35_4806" fill="white">
<path fill-rule="evenodd" clip-rule="evenodd" d="M14.611 12.8949C15.6021 11.5518 16.1879 9.89127 16.1879 8.09396C16.1879 3.62379 12.5641 0 8.09396 0C3.62379 0 0 3.62379 0 8.09396C0 12.5641 3.62379 16.1879 8.09396 16.1879C9.97303 16.1879 11.7025 15.5476 13.0762 14.4733L17.6676 19.0647L19.2242 17.5081L14.611 12.8949Z"/>
</mask>
<path d="M14.611 12.8949L13.404 12.0043C12.9635 12.6013 13.0257 13.4308 13.5504 13.9556L14.611 12.8949ZM13.0762 14.4733L14.1369 13.4126C13.6009 12.8766 12.7492 12.8247 12.1521 13.2917L13.0762 14.4733ZM17.6676 19.0647L16.607 20.1254C17.1928 20.7112 18.1425 20.7112 18.7283 20.1254L17.6676 19.0647ZM19.2242 17.5081L20.2849 18.5688C20.5662 18.2875 20.7242 17.9059 20.7242 17.5081C20.7242 17.1103 20.5662 16.7288 20.2849 16.4475L19.2242 17.5081ZM14.6879 8.09396C14.6879 9.55998 14.2113 10.9103 13.404 12.0043L15.818 13.7855C16.993 12.1932 17.6879 10.2226 17.6879 8.09396H14.6879ZM8.09396 1.5C11.7357 1.5 14.6879 4.45222 14.6879 8.09396H17.6879C17.6879 2.79536 13.3926 -1.5 8.09396 -1.5V1.5ZM1.5 8.09396C1.5 4.45222 4.45222 1.5 8.09396 1.5V-1.5C2.79536 -1.5 -1.5 2.79536 -1.5 8.09396H1.5ZM8.09396 14.6879C4.45222 14.6879 1.5 11.7357 1.5 8.09396H-1.5C-1.5 13.3926 2.79536 17.6879 8.09396 17.6879V14.6879ZM12.1521 13.2917C11.0329 14.1671 9.62636 14.6879 8.09396 14.6879V17.6879C10.3197 17.6879 12.3722 16.9282 14.0003 15.6548L12.1521 13.2917ZM18.7283 18.0041L14.1369 13.4126L12.0155 15.5339L16.607 20.1254L18.7283 18.0041ZM18.1636 16.4475L16.607 18.0041L18.7283 20.1254L20.2849 18.5688L18.1636 16.4475ZM13.5504 13.9556L18.1636 18.5688L20.2849 16.4475L15.6717 11.8342L13.5504 13.9556Z" fill="#141414" mask="url(#path-1-inside-1_35_4806)"/>
</svg>
