<svg width="29" height="25" viewBox="0 0 29 25" fill="none" xmlns="http://www.w3.org/2000/svg">
<mask id="path-1-outside-1_35_4817" maskUnits="userSpaceOnUse" x="-1" y="0" width="30" height="26" fill="black">
<rect fill="white" x="-1" width="30" height="26"/>
<path fill-rule="evenodd" clip-rule="evenodd" d="M3.16709 10.6932L25.3121 2.13885C26.3236 1.67911 27.2998 2.38232 26.9137 3.93262L23.1426 21.7307C22.8793 22.9956 22.116 23.2982 21.0588 22.7141L15.3138 18.4629L15.2081 18.5659C13.9019 19.8378 12.7507 20.9588 12.5525 21.1531C12.5454 21.16 12.5383 21.1669 12.5313 21.1738C12.221 21.4777 11.9647 21.7286 11.4028 21.7286C10.8195 21.7286 10.7708 21.5557 10.6536 21.1395C10.6212 21.0243 10.5835 20.8906 10.5279 20.7367L8.41464 14.2478L2.89159 12.5213C1.66462 12.1449 1.65565 11.3006 3.16709 10.6932ZM21.7304 5.98508L9.28141 13.8512L11.3792 20.2923L11.7942 15.8587L22.4538 6.22649C22.9217 5.81056 22.3518 5.60762 21.7304 5.98508Z"/>
</mask>
<path d="M25.3121 2.13885L26.0328 4.0045C26.0689 3.99056 26.1045 3.97559 26.1397 3.95959L25.3121 2.13885ZM3.16709 10.6932L2.44641 8.82759C2.43805 8.83082 2.4297 8.83411 2.42138 8.83745L3.16709 10.6932ZM26.9137 3.93262L24.973 3.44928C24.9673 3.47211 24.962 3.49504 24.9571 3.51805L26.9137 3.93262ZM23.1426 21.7307L21.186 21.3162L21.1845 21.3232L23.1426 21.7307ZM21.0588 22.7141L19.8692 24.3218C19.9401 24.3742 20.0144 24.422 20.0916 24.4646L21.0588 22.7141ZM15.3138 18.4629L16.5035 16.8552C15.7154 16.2721 14.6209 16.3461 13.9186 17.03L15.3138 18.4629ZM15.2081 18.5659L13.8128 17.133L13.8128 17.133L15.2081 18.5659ZM12.5525 21.1531L13.9511 22.5827L13.9524 22.5814L12.5525 21.1531ZM12.5313 21.1738L13.9306 22.6028L13.9307 22.6027L12.5313 21.1738ZM10.6536 21.1395L8.72845 21.6815L8.72845 21.6815L10.6536 21.1395ZM10.5279 20.7367L8.62619 21.356C8.63285 21.3765 8.63983 21.3968 8.64715 21.417L10.5279 20.7367ZM8.41464 14.2478L10.3163 13.6285C10.1158 13.0127 9.62948 12.5321 9.01135 12.3389L8.41464 14.2478ZM2.89159 12.5213L3.48832 10.6124L3.47826 10.6093L2.89159 12.5213ZM9.28141 13.8512L8.21308 12.1604C7.43957 12.6492 7.09638 13.6005 7.37973 14.4705L9.28141 13.8512ZM21.7304 5.98508L20.6921 4.27569C20.682 4.28181 20.672 4.28802 20.662 4.29432L21.7304 5.98508ZM11.3792 20.2923L9.47751 20.9116C9.77119 21.8133 10.6577 22.3848 11.6003 22.28C12.5428 22.1752 13.2821 21.4229 13.3705 20.4787L11.3792 20.2923ZM11.7942 15.8587L10.4534 14.3748C10.0817 14.7106 9.84964 15.1736 9.80296 15.6723L11.7942 15.8587ZM22.4538 6.22649L21.125 4.73177C21.1209 4.73535 21.1169 4.73896 21.1129 4.74258L22.4538 6.22649ZM24.5915 0.273211L2.44641 8.82759L3.88776 12.5589L26.0328 4.0045L24.5915 0.273211ZM28.8544 4.41596C29.1484 3.23568 29.0449 1.82994 28.0285 0.845413C26.9831 -0.167176 25.555 -0.168444 24.4845 0.318124L26.1397 3.95959C26.1102 3.97302 25.9991 4.0147 25.8208 3.99474C25.6329 3.9737 25.4194 3.88697 25.2455 3.71853C24.8735 3.35825 25.0651 3.07926 24.973 3.44928L28.8544 4.41596ZM25.0991 22.1453L28.8703 4.34718L24.9571 3.51805L21.186 21.3162L25.0991 22.1453ZM20.0916 24.4646C20.8536 24.8856 22.025 25.279 23.2217 24.7385C24.428 24.1936 24.9131 23.0391 25.1006 22.1383L21.1845 21.3232C21.1523 21.478 21.1267 21.4902 21.166 21.4284C21.2144 21.3521 21.3416 21.1985 21.5752 21.0931C21.8073 20.9882 22.0049 20.9939 22.0932 21.0073C22.1662 21.0184 22.1475 21.0306 22.0261 20.9635L20.0916 24.4646ZM14.1242 20.0706L19.8692 24.3218L22.2485 21.1064L16.5035 16.8552L14.1242 20.0706ZM16.6034 19.9988L16.7091 19.8958L13.9186 17.03L13.8128 17.133L16.6034 19.9988ZM13.9524 22.5814C14.1475 22.3902 15.2947 21.2731 16.6034 19.9988L13.8128 17.133C12.509 18.4025 11.3538 19.5274 11.1526 19.7247L13.9524 22.5814ZM13.9307 22.6027C13.9378 22.5957 13.9445 22.5892 13.9511 22.5827L11.1538 19.7235C11.1463 19.7308 11.1389 19.7381 11.1319 19.7449L13.9307 22.6027ZM11.4028 23.7286C12.0169 23.7286 12.5717 23.5821 13.0672 23.2938C13.4929 23.0462 13.8092 22.7216 13.9306 22.6028L11.132 19.7448C11.0912 19.7847 11.0639 19.8114 11.0386 19.8355C11.0145 19.8584 11.0007 19.8708 10.9931 19.8774C10.9782 19.8903 11.0022 19.8676 11.0555 19.8365C11.1143 19.8023 11.1868 19.7706 11.2656 19.75C11.3417 19.73 11.3924 19.7286 11.4028 19.7286V23.7286ZM8.72845 21.6815C8.74865 21.7532 8.80381 21.9583 8.88336 22.1555C8.9726 22.3766 9.14146 22.7207 9.47208 23.0365C10.1692 23.7023 11.0288 23.7286 11.4028 23.7286V19.7286C11.3364 19.7286 11.4118 19.7215 11.5536 19.7579C11.7256 19.8021 11.9886 19.9087 12.2347 20.1438C12.4656 20.3643 12.5639 20.5871 12.5928 20.6588C12.612 20.7065 12.6172 20.7339 12.5788 20.5975L8.72845 21.6815ZM8.64715 21.417C8.67544 21.4953 8.69593 21.5659 8.72845 21.6815L12.5788 20.5975C12.5465 20.4827 12.4916 20.2859 12.4086 20.0564L8.64715 21.417ZM6.51294 14.8671L8.62619 21.356L12.4296 20.1174L10.3163 13.6285L6.51294 14.8671ZM2.29488 14.4302L7.81792 16.1567L9.01135 12.3389L3.48831 10.6124L2.29488 14.4302ZM2.42138 8.83745C1.91289 9.04178 1.40757 9.31336 0.988175 9.68463C0.581523 10.0446 0.0970289 10.6459 0.0123097 11.4954C-0.0798395 12.4193 0.344383 13.1561 0.830515 13.6156C1.28251 14.0429 1.82857 14.2872 2.30492 14.4334L3.47826 10.6093C3.34113 10.5672 3.42595 10.5648 3.57841 10.7089C3.76501 10.8853 4.0514 11.3024 3.99256 11.8923C3.94116 12.4077 3.66113 12.6606 3.63955 12.6797C3.60522 12.7101 3.66557 12.6484 3.91279 12.549L2.42138 8.83745ZM10.3497 15.5419L22.7987 7.67584L20.662 4.29432L8.21308 12.1604L10.3497 15.5419ZM13.2809 19.6729L11.1831 13.2318L7.37973 14.4705L9.47751 20.9116L13.2809 19.6729ZM9.80296 15.6723L9.38791 20.1059L13.3705 20.4787L13.7855 16.0451L9.80296 15.6723ZM21.1129 4.74258L10.4534 14.3748L13.1351 17.3426L23.7947 7.7104L21.1129 4.74258ZM22.7686 7.69448C22.7451 7.70876 22.6845 7.74132 22.5757 7.76378C22.5052 7.77833 22.2272 7.8291 21.8507 7.69973C21.6509 7.63107 21.3362 7.47956 21.0628 7.15395C20.7628 6.79675 20.61 6.34205 20.6269 5.88598C20.6423 5.47201 20.7909 5.17368 20.8881 5.01866C20.9882 4.85914 21.086 4.7664 21.125 4.73177L23.7827 7.7212C24.0127 7.51672 24.5902 6.94811 24.6242 6.03445C24.6438 5.50676 24.4689 4.98997 24.126 4.58164C23.8096 4.2049 23.4311 4.01322 23.1505 3.91679C22.6123 3.73188 22.1046 3.77669 21.7671 3.84636C21.3913 3.92393 21.0264 4.07267 20.6921 4.27569L22.7686 7.69448Z" fill="#3B3D3E" mask="url(#path-1-outside-1_35_4817)"/>
</svg>
